<mxfile host="app.diagrams.net" modified="2021-03-11T05:26:55.711Z" agent="5.0 (Windows NT 10.0; Win64; x64) AppleWebKit/537.36 (KHTML, like Gecko) Chrome/88.0.4324.190 Safari/537.36" etag="6hTNJlDBX8M_tnOXZW-1" version="14.4.4" type="github" pages="2">
  <diagram name="Center Page" id="gyAweCoIxsuxhghV539V">
    <mxGraphModel dx="1422" dy="1894" grid="1" gridSize="10" guides="1" tooltips="1" connect="1" arrows="1" fold="1" page="1" pageScale="1" pageWidth="850" pageHeight="1100" math="0" shadow="0">
      <root>
        <mxCell id="Tib5MzPci9CGnLbOdRJG-0" />
        <mxCell id="Tib5MzPci9CGnLbOdRJG-1" parent="Tib5MzPci9CGnLbOdRJG-0" />
        <mxCell id="Tib5MzPci9CGnLbOdRJG-2" value="" style="group;fontStyle=1" parent="Tib5MzPci9CGnLbOdRJG-1" vertex="1" connectable="0">
          <mxGeometry x="70" y="-930" width="530" height="490" as="geometry" />
        </mxCell>
        <mxCell id="Tib5MzPci9CGnLbOdRJG-3" value="" style="rounded=0;whiteSpace=wrap;html=1;fillColor=none;fontFamily=Helvetica;" parent="Tib5MzPci9CGnLbOdRJG-2" vertex="1">
          <mxGeometry y="64" width="530" height="426" as="geometry" />
        </mxCell>
        <mxCell id="Tib5MzPci9CGnLbOdRJG-4" value="" style="rounded=0;whiteSpace=wrap;html=1;fontFamily=Helvetica;fillColor=none;" parent="Tib5MzPci9CGnLbOdRJG-2" vertex="1">
          <mxGeometry width="530" height="64" as="geometry" />
        </mxCell>
        <mxCell id="Tib5MzPci9CGnLbOdRJG-5" value="Center" style="text;strokeColor=none;fillColor=none;html=1;fontSize=24;fontStyle=0;verticalAlign=middle;align=center;fontFamily=Helvetica;fontColor=#758496;" parent="Tib5MzPci9CGnLbOdRJG-2" vertex="1">
          <mxGeometry x="40.23619047619047" y="12" width="126.19047619047619" height="40" as="geometry" />
        </mxCell>
        <mxCell id="Tib5MzPci9CGnLbOdRJG-6" value="Acronym :" style="text;html=1;strokeColor=none;fillColor=none;align=left;verticalAlign=middle;whiteSpace=wrap;rounded=0;fontFamily=Helvetica;fontSize=19;" parent="Tib5MzPci9CGnLbOdRJG-2" vertex="1">
          <mxGeometry x="25.238095238095237" y="86" width="126.19047619047619" height="20" as="geometry" />
        </mxCell>
        <mxCell id="Tib5MzPci9CGnLbOdRJG-7" value="ACE" style="text;html=1;strokeColor=none;fillColor=none;align=center;verticalAlign=middle;whiteSpace=wrap;rounded=0;fontFamily=Helvetica;fontSize=18;fontStyle=1" parent="Tib5MzPci9CGnLbOdRJG-2" vertex="1">
          <mxGeometry x="120" y="86" width="50.476190476190474" height="20" as="geometry" />
        </mxCell>
        <mxCell id="Tib5MzPci9CGnLbOdRJG-8" value="Ownership" style="html=1;shadow=0;dashed=0;shape=mxgraph.bootstrap.rrect;rSize=5;strokeColor=none;strokeWidth=1;fillColor=none;whiteSpace=wrap;align=center;verticalAlign=middle;spacingLeft=0;fontStyle=0;fontSize=16;spacing=5;" parent="Tib5MzPci9CGnLbOdRJG-2" vertex="1">
          <mxGeometry x="411.38095238095235" y="86" width="112.30952380952381" height="20" as="geometry" />
        </mxCell>
        <mxCell id="Tib5MzPci9CGnLbOdRJG-9" value="Name :" style="text;html=1;strokeColor=none;fillColor=none;align=left;verticalAlign=middle;whiteSpace=wrap;rounded=0;fontFamily=Helvetica;fontSize=19;" parent="Tib5MzPci9CGnLbOdRJG-2" vertex="1">
          <mxGeometry x="25.238095238095237" y="126" width="126.19047619047619" height="20" as="geometry" />
        </mxCell>
        <mxCell id="Tib5MzPci9CGnLbOdRJG-10" value="AMBULATORY CENTER FOR ENDOSCOPY, LLC" style="text;html=1;strokeColor=none;fillColor=none;align=center;verticalAlign=middle;whiteSpace=wrap;rounded=0;fontFamily=Helvetica;fontSize=17;fontStyle=1" parent="Tib5MzPci9CGnLbOdRJG-2" vertex="1">
          <mxGeometry x="120" y="126" width="389.52" height="20" as="geometry" />
        </mxCell>
        <mxCell id="Tib5MzPci9CGnLbOdRJG-11" value="Region :" style="text;html=1;strokeColor=none;fillColor=none;align=left;verticalAlign=middle;whiteSpace=wrap;rounded=0;fontFamily=Helvetica;fontSize=19;" parent="Tib5MzPci9CGnLbOdRJG-2" vertex="1">
          <mxGeometry x="25.24" y="170" width="74.76" height="20" as="geometry" />
        </mxCell>
        <mxCell id="Tib5MzPci9CGnLbOdRJG-12" value="New York/North NJ" style="text;html=1;strokeColor=none;fillColor=none;align=center;verticalAlign=middle;whiteSpace=wrap;rounded=0;fontFamily=Helvetica;fontSize=17;fontStyle=1" parent="Tib5MzPci9CGnLbOdRJG-2" vertex="1">
          <mxGeometry x="120" y="170" width="159.05" height="20" as="geometry" />
        </mxCell>
        <mxCell id="Tib5MzPci9CGnLbOdRJG-13" value="" style="shape=image;verticalLabelPosition=bottom;verticalAlign=top;aspect=fixed;imageAspect=0;image=data:image/png,iVBORw0KGgoAAAANSUhEUgAAABkAAAAaCAYAAABCfffNAAABrUlEQVRIDb2Wz2vCMBTH/YN38VBkA/cLlQ3RMWET3EFBpOwH9eKhIF6GyGAIK3OIwhhDZmGI6HaQtch3aENN2toma1khkLwk309e8t6jMfzDF4uaYcxe0aoWEE8kEU/J6EyByCCGruHm4hRxKYkdumXUsBAT82EbV9kjVpiGSPIfIUsTereB3LHj1Iw4mStrghBziqemjNQuh/gamIfyzvsmX2N0lBL2ErziZN15G3MEQIzJC9RVpHhdQ6AtjVrfil3P6JqPuqjl/B6Tw6OMihHJDwpiYvKsopgKKU48LHZNOwUtiP6AAk+kBF4R8XC/jt7SZqyi6xNqlsN9XoCUxMn994ZgPfwAFdGo8QMmqnj8YRhWngzu0j4ZK+blQWPMEjYhbGIy1NBq3KIib2/Fs6DDXKI1czHEMl5vFnw9lq4HbsLGE885l9Efkofy4dqyNlB54r2AtvpCyhoMejHVjwiSRm1IqTq60UBIIXRo28NIIHQJsZWpTngIVQgpXaYbGpJrsyWEUScDIQj6dUh0SXEUQi/AyiYGwQI9hfzuHJagvC226TJ2QQizl3vwC/aQgNbfP9u8AAAAAElFTkSuQmCC;" parent="Tib5MzPci9CGnLbOdRJG-2" vertex="1">
          <mxGeometry x="25.238095238095237" y="247" width="25" height="26" as="geometry" />
        </mxCell>
        <mxCell id="Tib5MzPci9CGnLbOdRJG-14" value="&lt;font style=&quot;font-size: 23px&quot;&gt;Locations&lt;/font&gt;" style="text;html=1;strokeColor=none;fillColor=none;align=left;verticalAlign=middle;whiteSpace=wrap;rounded=0;fontFamily=Helvetica;fontSize=19;" parent="Tib5MzPci9CGnLbOdRJG-2" vertex="1">
          <mxGeometry x="75.71428571428571" y="247" width="126.19047619047619" height="20" as="geometry" />
        </mxCell>
        <mxCell id="Tib5MzPci9CGnLbOdRJG-15" value="&lt;font style=&quot;font-size: 17px&quot;&gt;Location 1&lt;/font&gt;" style="text;html=1;strokeColor=none;fillColor=none;align=left;verticalAlign=middle;whiteSpace=wrap;rounded=0;fontFamily=Helvetica;fontSize=19;" parent="Tib5MzPci9CGnLbOdRJG-2" vertex="1">
          <mxGeometry x="25.238095238095237" y="286" width="126.19047619047619" height="20" as="geometry" />
        </mxCell>
        <mxCell id="Tib5MzPci9CGnLbOdRJG-16" value="7600 River Road&lt;br&gt;4th Floor&lt;br&gt;North Bergen, NJ 07047&lt;br&gt;US" style="text;html=1;strokeColor=none;fillColor=none;align=left;verticalAlign=middle;whiteSpace=wrap;rounded=0;fontFamily=Helvetica;fontSize=17;fontStyle=1" parent="Tib5MzPci9CGnLbOdRJG-2" vertex="1">
          <mxGeometry x="151.42857142857142" y="286" width="252.38095238095238" height="80" as="geometry" />
        </mxCell>
        <mxCell id="Tib5MzPci9CGnLbOdRJG-17" value="" style="shape=image;verticalLabelPosition=bottom;verticalAlign=top;aspect=fixed;imageAspect=0;image=data:image/png,iVBORw0KGgoAAAANSUhEUgAAABAAAAAOCAYAAAAmL5yKAAABIUlEQVQ4EWP4/////1dXzv4/eowIfO7B/49/QDoQgOHjno7/Jrq2/+WJxCZTriB0////n+HV+lKwZhu/6v8t87f837e+738gPsMyt/x/hWQE3IDJ52Cin/9vL8bjIlwGdJ+EGfD//4/Dfbi9hMuAyKUPICa8Pv6/O9SZdAPk3Rf+vwIK4Re7/+eZk+EFUCykr3kGdsWPc1PgAWnjl/TfGdlAXF6ARGPM/8nnfkIMub3lf0vz7v+PQK768/n/7QNT/ieAYge/Abb/5c2T/ncfeIsIURjr08H/tUQZAE4Dzv+dcxb+33fv7f8fsJR3bgokwRF0AZZEZOKS9D/QFhqwZQf/f4S5CpQS/784+L8lLel/ZAQxOP//LGgYwcxggDHIpQFcZ2XYdV7E/wAAAABJRU5ErkJggg==;" parent="Tib5MzPci9CGnLbOdRJG-2" vertex="1">
          <mxGeometry x="151.42857142857142" y="366" width="16" height="14" as="geometry" />
        </mxCell>
        <mxCell id="Tib5MzPci9CGnLbOdRJG-18" value="201-705-1080" style="html=1;shadow=0;dashed=0;shape=mxgraph.bootstrap.rrect;rSize=5;strokeColor=none;strokeWidth=1;fillColor=none;whiteSpace=wrap;align=center;verticalAlign=middle;spacingLeft=0;fontStyle=1;fontSize=16;spacing=5;fontColor=#007BFF;" parent="Tib5MzPci9CGnLbOdRJG-2" vertex="1">
          <mxGeometry x="159.99666666666667" y="363" width="138.8095238095238" height="20" as="geometry" />
        </mxCell>
        <mxCell id="Tib5MzPci9CGnLbOdRJG-19" value="" style="shape=image;verticalLabelPosition=bottom;verticalAlign=top;aspect=fixed;imageAspect=0;image=data:image/png,iVBORw0KGgoAAAANSUhEUgAAAA8AAAASCAYAAACEnoQPAAABQ0lEQVQ4EaWTPWvCUBSG80/8BW6FTpkyCF1KB4vBTllSF50cM0gHwWIXHYpO3TqU1kFw9gdkCAS6FywiiKShoFB4yklMTEjjBw2ckHvPfc57PnIV/vEoKfbbx1vl2SZ1VBYJ2KV3rlIo5pmG3ndZJ0KkYQFLTe77QwaxPVAvRQE1zJfPGM/CtTGL2C0fS0a1CFYpdN3Yq1gVA/NuysePS0+UMzCsv3y891dM8SfhsMYmo3k+HEjNxyGs3jJwwuYpGTi3YbvUzbdlEO9vWL1BrxhcqQJoaGUDvXzJ2Tbwfnhbl90VWEoCorSLKvvhaisYlVUV+Jp6e8ig3eTiKOUDde9XtqYsVksmligbPDk+nvOMfpRyxw66aXcEbjCaAbPtqA7WfGzauz9sg/3YCEYkY8q3FhPJJH2rwo1T3omLcQoWnv0FNWz/QQAMhU8AAAAASUVORK5CYII=;" parent="Tib5MzPci9CGnLbOdRJG-2" vertex="1">
          <mxGeometry x="151.42857142857142" y="383" width="15" height="18" as="geometry" />
        </mxCell>
        <mxCell id="Tib5MzPci9CGnLbOdRJG-20" value="201-705-1090" style="text;html=1;strokeColor=none;fillColor=none;align=left;verticalAlign=middle;whiteSpace=wrap;rounded=0;fontFamily=Helvetica;fontSize=17;fontStyle=1" parent="Tib5MzPci9CGnLbOdRJG-2" vertex="1">
          <mxGeometry x="180.45238095238093" y="382" width="138.8095238095238" height="20" as="geometry" />
        </mxCell>
        <mxCell id="Tib5MzPci9CGnLbOdRJG-21" value="" style="shape=image;verticalLabelPosition=bottom;verticalAlign=top;aspect=fixed;imageAspect=0;image=data:image/png,iVBORw0KGgoAAAANSUhEUgAAABEAAAASCAYAAAC9+TVUAAABo0lEQVQ4Ea2SP2vCQBjG/SZ+AjfBycmh1EFwaGlXF1soOulShI6FUhczlDplEBSKkSJIqUgzWHBIpoBgodiAIopIDEICwlMuucufaoqDB8fd+9x7v/c57g3hCCN0BAZ2IVsd6ocIZW1C4jKIxjKoyDrUbhv92f6SfshaQuUsgeTTCMZnGdFIHGEyUzyUxTuKkVMUG2MYf1guZKOgkiKXElblXpECLJBXSyAnTH0YCjEhPZ7bVSNl9DcSHpgLul7WxlBf8jTnCvVvl+M4MVY6NGuawNake6bp0Dbw65432ZABRyvEEb5uYy57YuaI6EMeSRaf8FCoGQsyFwqHQWZtZBkkwkHyQV4PhEz+geBHxDNXtWdDgeaNg3SS53UCLCHVKIQToRojdNhltnan0OSmU6wzNJ3vcX9H5pC23ptHazJG/cLbJ3GU3nQoVdoGpPm2DsPf9qpQsLo0KyzdCxb4Fp0VBafu0Zu4ALJznDBZG/DI3TShLkSUYrabNKdAk6vI3rXxtWaZ7roDsY62JgzSTDMJLUGBRmLSbAFjPyQgOUg+CuQX9OXkpv7eSNIAAAAASUVORK5CYII=;" parent="Tib5MzPci9CGnLbOdRJG-2" vertex="1">
          <mxGeometry x="150.16666666666666" y="406" width="17" height="18" as="geometry" />
        </mxCell>
        <mxCell id="Tib5MzPci9CGnLbOdRJG-22" value="" style="shape=image;verticalLabelPosition=bottom;labelBackgroundColor=#ffffff;verticalAlign=top;aspect=fixed;imageAspect=0;image=data:image/png,iVBORw0KGgoAAAANSUhEUgAAACkAAAApCAYAAACoYAD2AAALkElEQVRYCe1YeXBV1RnX0SqlVRm109raqVtdOlVrtWNHp9rR6nRKx136h06towXDJlBEoSACUgIiGCAQEAhL9oWQBJKQ/WUP2UNe9j15L9tLXt6+3vvr/L7HSwI3pZ2xMx1memfO3PvOPec7v/N93+/3nfuuwVVwXXMVYMTVC1JVVfj8CswODwxmJ8btbri8fnj8SuDuU6Co6sUgqIDig+oyQ7ENQXWMQfU6AFXRBMmnqLC4vGJzaNIJm9sHvxK0oxk+1aHxJNd2ev2o7B7DspjzeHJrBt44oENKbR86RqzYk9eCtPoBeP0KaF71ueA3VMOZuQq2w0/DHv0SPI2xUFyTgOqXhWiTYNqHLfg4qQYPrk/FY5vPIDSjCT0mm2z4SlA1IGmsrn8CL+7OxQ0hMbjug2hc/0E07lidhC3pjZi3IgF/OlgEh8cHVVXgN9TAEb8A1t33wrrrrkDb93N46k9C9ToFJG32mmx4M0KHby+JnbJJWyvjqzBqdc2IzJQDpx40IBli7nbO4hh8b1Uinvg8Aw9sSMV3l8Xhx2uSMXdpnCxmd3ngt4/Clf8ZrF/9FLZDT8Ie/bJ40xr2AGyRz8M3VA+oqkRmR1YT7lyTjHkfxuPp0Cw8uS0TtyyPx0OfpuFEWRecHt8UqMsfNCBr+8Zx77oU/GB1EpbHVSFHb0RsZQ+e35WDOUticcPiGLx+QAe70wlPdz5sx34HW8QTcJeHwddfBq8+GfbjL8K692dwFWyGqvihN5gxf0++AKTndG3DyGk2YtHJCty2MgFvHS5B16j1cmxTvzUg9+S2yMQ3I4okh5h7DG1WkwE/WpOMGxfHSo7abRa4a4/BGv4IXAWboFiNgN8rOerrOAdL2ANwpLwL1WPDkeJ2/OSTU3h5XwHahi1w+/zi3fM9Jjy3MxuPbjqDbL1xCtTlDxqQr+8vxF1rU3C4uAMeX4ChTGoCfTW8AHOXxuKNCB1spkE4czfAduQZeFvSAL9nyrbqnBACOdMXQ5kcxJb0BnxnSSwiCttgc3tBllM9JhwebD17ATcvi8ORkg5mxqyXBuR961LwyKZ0dI5aL5EHGo0734NbPozHgggdrIMXYIt5BY60EPgnuqeYLKsoPvGsYh+B4vPgk+RazAmJwem6fpjsbgFHgCabG8dKuzBveTy2ZzaJvM2GUwNy7pIYPL09a0piglsjQ6t7Tbh1ZYDdlp5KWA48DlfRNqgKk15rnp6xOL0IiarEtQujMHdJrOQlyRNs7Lt2URTWpdSJLs/mTQ1ISs4Lu3IkHEGAvBMkCXDbykSRIEtXCSx7HoS7eMesADmHgj9iceHdyDJcszAK1y0KyBklLdjYxw2sTqwRz04XienVNSBvDInGs19kz+rJxoGJaZDd5bCEPwp3cejF6jKbJ1WpVgtPVog+PrE1A8/tyhGloFrMbAcK2zDp9MyalxqQd/wtEY9tOYsxq+uSCfRkYeswbl2RgAUHi2Dtr4M18gU4c9ZBdZpFD6f3rkL1uaH6PPD6fFiTVIMfrk5CcfuIRIS2ppsCvzKzzE5bCT5pQD6z4xzuX5+KzAsG8SYH0keUoo2p9bhpWUDMbSNdsKcvhT32NdFH1u/gpXrtcFfshacxDorLgs/SGiQfT9X2ByKkck8qnJ5A+T2ka0eLcTI4XXPXgGS1+f7qJKxOrIbdzdIXyC2D2YHHPz+LOUGdtJjgKt8rQu6pjxJ9lO2oKhTLQEAnk96G4pzArmy9aO/K+GrJO3qRMkQBf+dIKR7emIb0+gENuGCHBmRey5CE9OFNZ6TSWF1eDE86sSKuCjcvj8eNi2MCYu6ww92UKGJuj3oJvv5yEW7FYYLj9PtgaXSeWQrV70VR+zCeCs3C3WtTkFDVKxLEU9CX5/S486Nk/HFvPhoGJoKYNHcNSOOkE6+EF0ii0ygPGk+FZgrw60OipTTyVGR3ueEba4czbRGsu++B7eizsCe9BfuJ38O650HYD/8Gvq48yVUS4oOoCsxbES+F4tf/yMSvtp6VQ8vtKxMkHeiMf3VpQLLK5DYbcfPyOPEaPcd6fUNINOaH5eOm5YGcdLi9ItTuynBYw+6H9av7Am333fLbEbcAqpv1OFBdqnpM+OWWs/hWCG1NNzpBb5iU8P/HIEkSCjAlgcczVpjbVyViflie1O971p3Ge8fLAtWBBHBZ4MrbANv+X8C69yHY9j0M29HfQnWMy2GYCzOvmYMkCA8vtEkxf/zzDKTX9wvTZxPxIGiNJ/lCUVR4fH5h3NdF7WCeTjo8AoxhYR2n6JKhPIHz4OvtLYWrZCc8LWmSm4ED77R2ciiPY33jdmzLaEJYbjOMk45ptgcRzXLXgKQh/cCEVBx+MthcXpjtbgyYbAKSNZzsZF+LwQw3Pyt8ftR3D2N80gqPN6CN7ONYguP4zmELdM1GGCccohpUDs7liYiaPG5zy4GGc3zKpZ8eGpCGcTtWnyyHfnACCeVdiC3tRE7jAL5Ib0BcWSdGJp3i1eiSDhmXXtOLtOpevL0vH0kVXUgs78KoxYn4sk6Utg3D6fbB6vQgrrQTB7L1qO8dQ2p1L9Jr+pDTOChzj+vacEzXhtNVPWjsG0dxy9Al/tSArO4cxfr4KhwtaMWir4vw97jz2H+uCWtjK7HtdB3ONQygb9SKt/bmYX5oBjYmVmNLcg1e3XkOf9lfgIO5zSBwbpRz6nrGJArNAxMYt7nQO2rFx9EVeP+gDquOlwnw0NN1WHWiDCuOl2FHWj0IeualAXlC14a1MZWy8N6sJpyp6cOxwlbElXagtG0IkYVtEro/bMvA/O2Z4ulTlT1YfKRYgA+bnQg/14TcxkFsSqoW0Axnu3FSUqSo2YjwrCaEptZhc1I1mgbGBdTm5BrsybyAbSl1qO81zcSo/e4+kKOX3PkkplImn63tA0O7LLIEK0+USQj57rUvs/Hm7hz89ZBOds8F+XtjQpWEjB4r1BuQUtUjhIksaBXvsm/hoSLxHDfTZpyUNFoff168++WZBvSZbFcG2T9mE7K0GswYGLdLtRkw2dHYZ5JGlpe2DqG6a1R+M5wkWsfQJNqMZlR2jFzMQ6/0kSjU3r4xG2q7x4QgHNNuNINrWZweGM0OmVvXa0LPqFXzUaYJN2WF8hI8pQSfqXPBPmEgWRhsSoCRwfeUMKoEvcmDCW0E7XBM0FawP/iO9jhXpG2GLzUgOYiyQw9wARoNGmOfYcIRAEdgfkWYa3V65TkIMgiEUsIW7Kdt2qJ68u5w+0S+XB4f7BfPCNzcvwXJQdkNA0KWC/3j4g0Co64x/7al1ErOdY1YhLUni9olp0iMIDkY/iGzAxzDnGOjDaaKYcIuAGlP12yQMUyDjLo+YXd5+7A4Z4YjtcThjiILW7E9tQ6fJlQJ48hwk9UlCZ97YRDv7C8QFh7OaxEGU4Y4duEhHSrah4VIfEfJ2hBfha0ptYgt60RRixGH81vkkEsvlrUPo3vEKnPomJruMQHNCM28NOHmZIpzyvluZNb1i0bSM16fH38OLwDZv+RI8dTiHJNV34+tp2rxXkQhYks6ZCEWgiMFrVO6F1PaIZrIfqYAI1bdNSZEyW8aBD3IQsHUuPyaFSQBUv33Z+tlkZbBQPlbHlkqqfBFer3oKKUosaILp8/3iLbSayeL21HSOgSmAT245GgJdqY3SAX6OKZStJZViP/UEXBxixHJld3gJhhBqgRzd+alAcl62tBrksYyyApDwrCfukbwDDlziCWQG2IJZAvLuICOYQsO5TWjQG9ARI4e3MhHUeUSaqZFq9EsOjxmcQpI6iYjQZsESrkjqWZeGpAcQEA8XFDDmOAiDaoqGjdhdwv7qQB8b7Z7wD4yfNTiEk3kneFkHhNAalWPzOEGSRxqJpWDRKIdziUXaI9rXQoRWuLM3ME3fWbYCJYnIl488QRl7XIgV1pL48krDf5fvfs/yP+W568KT/4TBgGUXwaY3MoAAAAASUVORK5CYII=;" parent="Tib5MzPci9CGnLbOdRJG-2" vertex="1">
          <mxGeometry x="17.24000000000001" y="12" width="41" height="41" as="geometry" />
        </mxCell>
        <mxCell id="Tib5MzPci9CGnLbOdRJG-23" value="" style="shape=image;verticalLabelPosition=bottom;verticalAlign=top;aspect=fixed;imageAspect=0;image=data:image/png,iVBORw0KGgoAAAANSUhEUgAAACcAAAAmCAYAAABH/4KQAAAB40lEQVRYCe3Yv2vCQBTA8fwZrv4J/RcyOjrmX3B0DMGlHQTH0qlrJ2e3Kk6KFISOIhU3S5fiUKRD+ZbTnr3E/Lgkd1FoA/IIickn7949Lzpc8OZcsI1/XNHROWvmVlNodMDpQHt6+ghnw63GUPfBUT7eYxh4FlwcTCJVYPW4D2gH4YxJmIzeAHYQnq27NbS76V+UF9CKAQw/w0Ml9nYLaGQAewsVt4VWxhe0QEoNuf1DBgRoNYLaDUxESjSAzZGC24wNZsyHE5hEawJDmdsIqbxAyZgIk9fNAJ7UXBQn0lp22w+lBEVjAjB2tprGpcIkVAWu4f4pnI5jKzGJ04LFAMM0dUJEaq7osOaC/QBbsyjrsG80c0VgXkptG8OZhoncGcHZgBnB2YKVxtmElcLZhhXGlYXNRzB8FbdP3wpNiOucqxe1XUz6UPNBp4/mx32BL7u7RoyDiQWGHdwbNDVQAqDC3meHjMmVjx3cEq40cCpMVFaR3+78w/qcve6LwirDRTMgh0nGOFhlOJbgitkagNsF9w56fbgV7eEluTVEH8pOzSXfP/XI38HJGrIV8w2r4VfDrIfyxqlVsD94bCVYeKlOBAYw2ObBibdw039HxDTrehce1tkwccZv5vTOr/Ssi8Z9A3eUzdGXStlVAAAAAElFTkSuQmCC;" parent="Tib5MzPci9CGnLbOdRJG-2" vertex="1">
          <mxGeometry x="470.52" y="13" width="39" height="38" as="geometry" />
        </mxCell>
        <UserObject label="ACE" link="https://www.draw.io" id="E_muHRxIuveiYDTUKszo-0">
          <mxCell style="text;html=1;strokeColor=none;fillColor=none;whiteSpace=wrap;align=center;verticalAlign=middle;fontColor=#0000EE;fontStyle=4;" parent="Tib5MzPci9CGnLbOdRJG-2" vertex="1">
            <mxGeometry x="166" y="11" width="60" height="40" as="geometry" />
          </mxCell>
        </UserObject>
        <UserObject label="HBMC" link="https://www.draw.io" id="E_muHRxIuveiYDTUKszo-1">
          <mxCell style="text;html=1;strokeColor=none;fillColor=none;whiteSpace=wrap;align=center;verticalAlign=middle;fontColor=#0000EE;fontStyle=4;" parent="Tib5MzPci9CGnLbOdRJG-2" vertex="1">
            <mxGeometry x="226" y="11" width="60" height="40" as="geometry" />
          </mxCell>
        </UserObject>
        <mxCell id="Tib5MzPci9CGnLbOdRJG-24" value="" style="shape=image;verticalLabelPosition=bottom;labelBackgroundColor=#ffffff;verticalAlign=top;aspect=fixed;imageAspect=0;image=data:image/png,iVBORw0KGgoAAAANSUhEUgAAAEcAAAFiCAYAAACkpsUuAAAOUElEQVR4Ae2d72sU1xrH+9cIraCNps1NrMYuBApaqnCxlZqCtyBYGiIWoRD6wnhp5Lq9WExb86J6ab3UWtBcGisNueYaqRqMkrBoS9KoS0yTNBtiCDEkGr6XZ3bO7slk5sx4nN05mXmE6ZmZ7G7n+cz3+TFnn5l9Ydtf94AXdwYvVNZsBS/uDBiOQhwMh+G4u41fOGHlsHJYOaFnXXar53GrjdW1qN20G3tqT6Ih1YXG1JVYLGQL2US2kY1uwdlXOVuq344VFOfJJUhkoxacd7d8FQulOKHI22SjFpyG1+PjSjIQeZ1s1IIjf0ic1xmOIpkwHIajV2qwclg5rJzQay8D3SqDq71TuNykd7bDLC3MgLN/AK31BCOD69kl0L/FO1k0HhrGQGYO4/f8l5HeEbQp4ocONAPgDGPwEYBHMxgUYLJjeUMvzVmggv1nDtfjB6cX7dcWsGgTWBRgyNB/TCL3eAmLQZZH0+iIHxxyp1609y3g8T1bMSEbqeNS9B4D3Cr6wOsFzzg4zccnkVtYwvilTOip2QuC134j4LSdn8Kdsxk0t01hZoGCzxOMnM+g8fQ0ZoLEG3rN7Awuh+yOBsDJ4r4FZAmLMhgytCPx2eoK8q4kKUYooH4Ilzsn0BdkOT+EY+J9IY0GKCcfkJuPj6LvbPRxRo4/xsCRD8qUdTPg1A+h794TLM7OY1BWT/0Avm75Fd8EWQ4PoDkkdxInxwg431yzInG+Rn48g05h5A+zdt0cZIjl5cMVtP53vmj91BS+E3BOzxQuK4ov8FqLKZzG1C380DGNkcwkOgyYqjDKrcTBmDYaEXNMgyKOh+GI+OYyMhwXKKwcBRSGw3CebyKNY45CQQwnbDgfJqB5iWzUUs7uTa2Rz++KjFKqkWzUglO14S3EWT1kG9moBWd9ZTVeeflNvFNzIlaQCArZRLaRjVpwNlRttt784rqNWLN2PdasXYc1L63yhWxYux5kE4EhG7XgUAMzLRVVm1FR9Roqqjah4tVVvpANli2bLdu0m7QtojYgASpOY6VH9zrZ7dvBTi96p/5v+PHiJYyO/oHJXC4WC9lCNpFtbi4VCA69OU5QnCeXbPMC5Kscouv8wLhtk41u6vGFE2fViJNMNmrBER8Q95HhKJIJw2E4eqUGK4eVw8oJvfZitzLfre7i3IE616KLzl7NgTMYVBhRqnrLEOV0o0Vxo3tlzVH0MJz88yW2HziCwwe2SUpKDBy1CxGYUz1ZPOg55QC0/MEc5XC1CNxK7UJB4ZTD1YyDQwe00q2WqyZ/0KV3NSPhuB3Uyn0MRwrKTvXEHs4RdE3kMDnRKaXyoPsYjq0cN2Cxh+N0lWfZZjgcczjmFK6N5CLQLZYE3cdulTy3SqeeJfB6vDYVS+XoTVmWas5G9bkrq/IAjQSqD4zT3xhOIVGsVDTDYTgrVRHE/Vk5rBxWjhlf6nHzkuJ7JG57U8DhhkkFHEpxBIgUFCcXI1vIJq9OUrLbt2HSLf8nZR/DUXgNw3leOBxzPAhytvIAQ4GX6xwFnDilb6+rc7LRLQP7BmSvD4zbfobDUxY8ZWHGlEXcYouXPRxzOOZwzIlLzLmJk7s8vgN3Kz53ncBthfy9Ysbz7o8o5shtKEEglb5pwA2kAXCc/TjObYLHcOyOUoYjtdayWzkyiRxznEpxbrNbSY3aDIfdyi095vexWznijFzCM5yAcDhbOUDJymE4AeC4ZSkBLrEVshOAm6oYjn3veKLhdEOrvb8M7fzO0iOiq3I5rZu7znAUk2gMh+HouS4rh5XDynFU4XpA5HTObhW2W3HzktuXa/Y+bntTwOGGSQUcClTcausDyC2ax32fb8Nk3AGo7GM4Co9hOM8LhwOyB0FO5R5gKFhxEaiAw5cPCjjylWuc191Sum+2ijMQ2TaGE/aUhUw3zuusHFaO3pQpK4eVs2qUk8WNs0dw6INdqEvVoaV7rPCtwWjXJ6ipqcPODw6i5ew1jCrOajkSQQRuJbeY1KHpx2wBzuD5BtQUis9oenJk6BHC+ST/oGinOiY6cdgClGg4XsYLZUl/n8jidtcF/NTTjwf05G0n0BJtR6gcyfhlxjnhjKHr0+JPrdR8erFssWgVwMnDqv+2H5lv95T19qII4djdo8tUk8PkHxcdMed3tH8sKefjC3jgfE+JtiOAk0X7x9RBWofDPxczlYgjoz9TOt+KShlC4en+HkDjAyeH0V+OYicBSO1FuusuRq2fNxhD5qcjeNt6VvIOpH8p1j+TOWccKk9QjkA5ecMy/94n1TSiFzmvqP1n7zoyUsLgkBs9uPk9Wj7agVqrrqnDzo+O4NzNla6WOOWIGEOG5/uSD6I96+Eu2Qs4RAB3/BM3ShRfisdTPIbI3Kp4MMU6pv5f/Q53KrogHWg5axw6PgPg5DB59wz2W4G4Du9/0YnMQ/vsPexH1+d787EptQ9n7hbPahFu6faZASeXw2jPUTtTycHZXk/tQrrHLRaVDow5yhFxZKgbZ9IN2PmGDeWNHWhMn0HPb6WF4KVCY5TjdYBR7mc4QrUuI8NxgSLUynAYjl5AZ+Wwclg5rpceIrjqjFpuxc1L1jSCSynPbW/uUITMuGFSoRyCxK22PoCEkpI0+vYEJgmG01aGo/CYQHA45ngQ5GzlAYZ8kNv7FXC4QlbA0blOWY3vcWYq2vYNyKvRUJ1jZjg8n8PzOWbM5+j472p8D8ccjjmrOeYMdeJk055CE1N90wl0DekZFKb7Ru9Wv4n2E8fsY2ofzkXUQCAARwyn2LjkdiDlblYSUMTodkxlrJBFy5tDNeLSJYJHbgowNDIcc7MVu5W6cuWA7JOWOZX7AFL4vhwky7keXUB+eBPn0vtQZ7fY1jcdQfrzo9bSIgrC1DbsT3+P26L1tswAo4HzsBstz/TjX0fREwGgSODc+GKbaw3hdjBi3/YvrqkDewlUJf7f8ljiIvAaTuzwKPpE8ec2lvm+h4iKQHF70LMC8rontHSBXlaMWC+xchiOIj6M4cbXe+3piaDqqcP7X5f/CQVCLfJYYuWUzg3CroFkKGKd4diZTwCRR4bDcPzdW1aMWGflsHJYOYqSguGUHw43L7ld/Nn7uO1NAYcbJhVwKOdzq60PIFEYJWn0LQKTBMNpK8NReEwgOBxzPAhytvIAQz7IdY4CDlfICjhhT0ea+nnOTEXbvgHZVGPCPi6Go/imlOEwHP+JLTeXZOWwclg5zzUlaq5bcU+gh7S5m9QDTI77kBWxgNv7GY5btPffx26lUE4OkxyQvQKyvZ9TuQ8gRRnv756l+ezorq2s9n569rH97PX+NtRbE2x7cKo/h0l67rr1POSEt/cf/pl+42EMPelt2J7utn5Lhn4co3DmdiW4vX/7yXzrfk+6DjXpbiuA3zi5/BaA5Lb3v9eG27l+nHpvKyrldXkeO7nt/QfRfusM9lsw9uHcLft3HmQ4NQlu72881FCIMfJ6Ie4kAw6396urYgNrGrdaqqja4j0a/L2VffIYjkLFDIfh6F17sXJYOayc0MsHLbfi5qVl1zXFIohoctubAg43TCrgkHq41dYHkFvAivs+32uruANQ2RcMTnUtNsZ0qayuLcwtOUH5wiEotZt2Y0/tSTSkutCYuhKLhWwhm8g2stEJhrZ94WypfjtWUJwnlyCRjVpw3t3yVSyU4oQib5ONWnAaXo+PK8lA5HWyUQuO/CFxXmc4imTCcBiOXqnBymHlsHJCr73YrVabWzUfn8DIn0sQ/xb/nEXf8d7QleFXo5mnnC+n8VhQWTY+weCXerHDD4LX3w2DM4C+h8uILN94OIFWhRt4Gam73zA4YxhfjsOxNYfrDMfBpLCZaDjsVuqs8wwBuePqHHJj8xi/el/9mZquaFjMyWcjdSq/hdaDvWg+OIzBKdvfpqbRfrAXx5oyOKYJwi1oGwnH7UDFvva+J3kiTwuBaNn2477h0FRkDpymEdzJ2oYDWPxzDuP37MUqCOfRVz+CkQUJyuy89ZrcrLRvYRaXQ1KPGXCaxjAuGy3ZKq/mOn/FsdMzdpG4gIEmuyhsmsSM9cInuH86vEraADi9uDokI/Bez10dShqcEYw444crn0S6lV9VXCSV+18GCQvIweFgYQ7XmxKVygdw+U4xSxV14rH2dAmLC0sY+c8VJLIIFDVN1KMB2aq8czTPApzhKApGhsNw9FyXlcPKYeWENlUhMpqWW32YgOYlslELzu5NraGfJXG2TBnJRi04VRveQpzVQ7aRjVpw1ldW45WX38Q7NSdiBYmgkE1kG9moBWdD1WbrzS+u24g1a9djzdp1WPPSKl/IhrXrQTYRGLJRC47oXK+o2oyKqtdQUbUJFa+u8oVssGzZXOjM14Jjval6Czb8JZ5LZfUWV9WQ3b4d7Nzer7idiNv7FXC4vV8Bh9v7FXBMqWJLfRxa2arUB2XK5zMcns/h+ZzQZwrYrdit2K2S5FbDuEM9f4+m0a6QfinTvqExpxetn03Z3VoLuPPZAJojAGQcnOa/j2JE7vETzRazc2W/OcQsOId8egOt/hy94KrjfkbB6cgUbyMSglkxDo2WzcUMgjOMQTd3ctJ5Gl4rrZ+aDIITtP2tfDeHrEI48xg4VJ64Yw6cNq879Jx+tYT73yQMzne9AVrYbU6LmdLcJeOMQWYoJ2B7f0FDT+fRJ1r7S1gcGgBnGIOPCmYHXynDZYURcKxrqOBY8q+cnUZHCVVDLmYAnPIEV2c8CbJtKJws7ss3l5ex8JOhGQrnCtrOz+Ix3U3zdAnjlzKhz9XIELzWjYXjdcDl3M9wFEGd4TAcvYzIymHlsHJCT/fsVmG7VZwbtEUdRTZqKYfb+xWdXdzer4DD7f0KONzer4DD7f0KOFYUj+mT+60H03s8nJ7s/j+CprUCS+IcnwAAAABJRU5ErkJggg==;" parent="Tib5MzPci9CGnLbOdRJG-1" vertex="1">
          <mxGeometry y="-1020" width="71" height="354" as="geometry" />
        </mxCell>
        <mxCell id="Tib5MzPci9CGnLbOdRJG-25" value="" style="shape=image;verticalLabelPosition=bottom;labelBackgroundColor=#ffffff;verticalAlign=top;aspect=fixed;imageAspect=0;image=data:image/png,iVBORw0KGgoAAAANSUhEUgAAByYAAACaCAYAAADsDi8jAAAgAElEQVR4Ae3d+1dV193v8fwX/bE/nh/PD7VpJV6QPHWcDsdpR56cavM0ieai8YLStDExTUkeGzWtpprEWGMeYkyJwUtEiUEkEsBLwUC2AaWiAqIgykVAiOklRj9nrMvce63N2jdkK2zfHWMNcLP22nPN+Vo7HeuzvnPeNykrW9a2dEaFls74XEtnVI7Yls2oUuCWU61lUVteTrX822Hl5bDRBxjAAAYwgAEMYAADGMAABjCAAQxgAAMYwAAGMIABDGAAAxi4lw3cZ4LJ3GwrmDTbyIAyMJi0AkuCSYJXgmcMYAADGMAABjCAAQxgAAMYwAAGMIABDGAAAxjAAAYwgAEMJDAQDiaXZB+SteWGw0krpPRXTwaHk1RN3svJNufOkx0YwAAGMIABDGAAAxjAAAYwgAEMYAADGMAABjCAAQxgAAPJGIgEk9M/0xJrswNKUzlp/fRXTxJOAisZWOyDEwxgAAMYwAAGMIABDGAAAxjAAAYwgAEMYAADGMAABjCAAa+BcDC5ePpBJ5gcbTjJlK6U5yYoz/XC43e+iDCAAQxgAAMYwAAGMIABDGAAAxjAAAYwgAEMYAADGMDAvWUgHEwuml4mJ5wsdwNKZ2rXWOtOBlZOEk4SThJOYgADGMAABjCAAQxgAAMYwAAGMIABDGAAAxjAAAYwgAEMYCDAQDiYXDitVCPCSXfdSSectKZ0TWJa17jh5L2V+pLyM94YwAAGMIABDGAAAxjAAAYwgAEMYAADGMAABjCAAQxgAAMYcAxEgsmpn8oJJw9okT2tq1s5mXI4Wa1lnnAyL6da/g184MMABjCAAQxgAAMYwAAGMIABDGAAAxjAAAYwgAEMYAADGMDAvWYgHEwumPKJnokTTuZmH3IrJqOrJis1YlpXTzBphZT+YNL6N9DoAwxgAAMYwAAGMIABDGAAAxjAAAYwgAEMYAADGMAABjCAAQzcSwbCweT8KftkhZMLp+4fWTnpVk3mZlfECCerosJJqibvJUScK1+aGMAABjCAAQxgAAMYwAAGMIABDGAAAxjAAAYwgAEMYAADiQyEg8mnH9gjO5ycaoWTn2rRdGtK1zItnm5N6VquJdmHZFVN5mabtSajKyejwsm4VZMMTKKB4e8YwQAGMIABDGAAAxjAAAYwgAEMYAADGMAABjCAAQxgAAMYyCQD4WDyqQc+1tNTit1wcn84nFxswsnsz9xgciyqJkGUSYg4FzxjAAMYwAAGMIABDGAAAxjAAAYwgAEMYAADGMAABjCAAQwkMhAOJp/I2iUrnJw/Za8WTC2x15tcNK00UjXpCSaTntKVqknW02Q9UQxgAAMYwAAGMIABDGAAAxjAAAYwgAEMYAADGMAABjCAAQzkHFY4mJw3uUhPPrBbT03ZowVT9umZqZ/omamlWjTNms71oBZP/0xLfOHkyCldl82Ims51Rry1JkmNE6XG/B0jGMAABjCAAQxgAAMYwAAGMIABDGAAAxjAAAYwgAEMYAADmWLAE0x+pCcm7/RUTVrB5KdaOO2AG0we1GI7mLSmdK2wt6UzTDhZqaUznG1EOOmpmszLqVZkA1GmIOI8sIwBDGAAAxjAAAYwgAEMYAADGMAABjCAAQxgAAMYwAAGMJDIQDiYfPzHH+qJyTv0VNZue61JZzrX/Vo4rVSLTTgZFUzmZptg0vqZOJhc5gsmrZCSAaIPMIABDGAAAxjAAAYwgAEMYAADGMAABjCAAQxgAAMYwAAGMHAvGPAEk4WaN/kjPZm1S08/sEfzp1rTuVrBpFs1Oc2qmCyPms61QlRNcqHcCxcK54hzDGAAAxjAAAYwgAEMYAADGMAABjCAAQxgAAMYwAAGMHB7BjzB5F81d/JHeiJrpxNMPrBPC6Z+4gkmy9xgsly52YfC07nmpjidK1WTtzdggKf/MIABDGAAAxjAAAYwgAEMYAADGMAABjCAAQxgAAMYwAAGJqKBcDD56I8+0NzJ2+1g8skHdmv+A3tlT+c6zZnOddG0Mi2eblVMWpsVTEbCyeiqyXjrTBJMcqFMxAuFNuMWAxjAAAYwgAEMYAADGMAABjCAAQxgAAMYwAAGMIABDNyeAU8wuU32OpNZRbKCyacfKNaCKfv0TDiYPKDF0w8mFUxa6036w8lqWYGk2fJ8a03e3gkAgP7DAAYwgAEMYAADGMAABjCAAQxgAAMYwAAGMIABDGAAAxjAwPg3EAkm77eCSWudSSuYdNaZtINJd53JRdMOaJEVTNpVk59FVU1+7q41WSkrlBwZTFaFQ8mRFZPVAsr4h8IYMUYYwAAGMIABDGAAAxjAAAYwgAEMYAADGMAABjCAAQxgAAO3YyAcTP7q/vfdYPKjcDA536qYnPqJnpn2qSLBpFU1GR1MVrjBpBVQEkzezoDwXi5oDGAAAxjAAAYwgAEMYAADGMAABjCAAQxgAAMYwAAGMICBTDTgCyYf+9FfNW/yR3oiy6qY/Fjzp+x1gsmpJpi01pk0weRno15n0j+V6wSomHy3Wy0Ng2osOpVadeeKDjU2DKqltlPbcriA7AvI7UurP4O25i/61VjWqZJXQ8rPmD47raraQbWErqh4dioOalVc6vRT3bupvI99M/HLmnPCNQYwgAEMYAADGMAABjCAAQxgAAMYwAAGMIABDEx0A55gcqucYHK7nsjaqSfdYHKBVTFpT+daqkXT3WByulUxaaomK5SbHVQxGbXOZMw1JidOMNnyRZeKUgiWCosHnPDtrgaTtVr3aqsqtrdp03gI+kwweaxHdWXdvi10bEDNoUhg2VzZqV1L0/AlM/eUigo6VfpaGo4d2MduMNkwqNC2E8mH2wvbFXIDXILJOzVW4+BzZoe0bWOHKjY3Jm8l0N04OBfaxRhiAAMYwAAGMIABDGAAAxjAAAYwgAEMYAADGMCAx0AkmPyhFUx+oLmT3WAyy6qYLNaCqSUBwWS5J5g8ZAeTudlmnclY07lWx1lncpzfQDdhmhUsbQ0lB2h2q2pMyHY3g8mVnWoaT1Wbbl827T4dox+tILVNR6vdULe+WyVjHE6WlN/pKsRIMGmF24WeCzDekw1bivrCVaUEk+P8OyLJMY033uZv23b32+Me+xq5d/rC9Ak/GXMMYAADGMAABjCAAQxgAAMYwAAGMIABDGBghIHZTSrd3xcpePqiTzUFTRk0G2Nmjnk4mPyvHxbYweTjdjC5Q09m7fYHk1NNxaRVNRkUTAZVTVZp2YwqLftFvd5c/pXeXt4Q2Z5v0NvPN2iTvTVq0/PRW4PWpVCdOALkGAYFeZ5gsuVIh7Ykcex1W3vCodJdncp1wgWT5kI7oZJyN5ysvKj1SfR5sgbuajDZMKiajbUxQllz7tbPZh39IlI9SjDp7ZvM/p1gMrPHN9nvKfbDAQYwgAEMYAADGMAABjCAAQxgAAMYwAAG4hk4rapjkXvo3qXjmnbGKoyKdzz+dqe8+YLJR+/fpscnf6h5WU4w+fQDTsXkAmsq16mfauH0A1psT+dariXudK652aZiMnYwuXVnn86e6NfZr/p17quBkVvDgM41uCGUZ+3BcVMxZIJJuwJyQEcTTgHqhkr1A2q+29WKEzaYPKy8cNVpMn2e/JfGXQsmTQVtRbvWJQhaTbDdXH+nqzuT78c79SV1r30OwSQG7zXznC/mMYABDGAAAxjAAAYwgAEMYAADGMAABlI1YO6hewPJyO89Kl04Fn1aq3XPNmrT0rokio3G4vPujWN4gsn/kR1M/tgbTO7Rgqn7ZK0zObpg0lln0h9Mxggnvxr/wWRdUYcaraAxQbCUv/GKXS3ZWNShujjBZP5vW1RR3h8pMw4NqKm8Q7t+W6vY4UStNr3ZobpqZ7pH+0ILDaj5WLeqNjdplRt4mfdHLkT/kwP+Cjz3mMc8YxDqV+P+iyocMY1qoyqOWMfq0cGFh7XqlXbVhd/nvBb3CyThVK7+C69on9Om5n1nAy78OhUUXFFjrefcap1S7VU5bU7fN3SrxO4T82/PvtbYmC16ut3ZjdpV1K0mNxi09rP6uOLNRuWnHPa6U7nWdqqi1PrMREHrKaePQ1dU4U7r6R8vt49G0cZN253pYUPbQsqL9f4NsdfBtMa7xmfPctKugrmHFTfwjfVZVn+OGCu/gRHXScOgmqqv6OBrI9vpO7+5TSot815f/QrtbtEmtxJ7/YYOj91Btbh28mOExqNuR6xz9/WzZ7pfY9L30zj2903cay3GefAe+hADGMAABjCAAQxgAAMYwAAGMIABDGAAAxiY6AZKyjz39333Up3X6zbHHuNE+YmdG9iZgXvftrwtIJ+Iffxk+tbcTw9nFOYcEtynTubYgfvY2cz4uM8cEEwWal5WkZ7M2qWnH4gXTAZN52rWmazU0hlWKOkEk5GpXD3Tufqmcg2a0nX8TeVa925IpRUW6j5VrIiFzuxjJfJuGBYdeuUcVv6r7tqPFrbaPtWVdauurEdNVlVdfbeq9gevM7fNrDsYGlBjufWebtWVR+ZQbi5r1Ws5h7Vpc5fztwo3wAz1K2R/hvOeg6+Z9p9Qcal3ny5VFHWprtJ9LWCNR+eC6VdVgXsO9QNqquxRU/0VNwQ0xw74mWIwmbe52wkPj3WqwBe0eKZ6tQLdSrcv3LUpm3Z3KmRfyOZCa9ZB9/wb3SlSm6vd91ivF7dpkzn+bE8JuBXQuv0cssvCB1S3+0qK63ZGgsltr3U5VbSlrbHnuXb3aS5uDgfUI4LJ0bYx3P/tTpm7x5Fzfk5wWvPmyOlm17/b7bTdDml7/PaOdarKvjYGFb+tEbfm8xqLOqNC5Iib9RvdvrbCyMpuHS3q0FFznTQMqO7dqHAy+vzqXfe+a6RNBeZcjrnnYbxbx9w8ch3Z225Hwn5uVEmx49H0S4tpm+32YtJrkwb+R8fY5ueY/x8I+jtyvdIX9AUGMIABDGAAAxjAAAYwgAEMYAADGMDAnTJwO8FkdBvtoDIgx8nLSV/FpJ2zRAWe+QsaVFjYo+aGAQXdo49ud0r/tu+dm7zk7joNB5OP/NCqmHxfj/24UPMmF+kJN5icP8VTMTnNTOV6UEsC15n0B5NOOOmuM2mtNZlTHd7ycqoV2e5uJyQcPDfsaNzeqPw3r9jhjBUaBb5vhVtVaQdPMYLJ2S2qsSvxBlRXYFWMec5/dqOKSyOVi77pbGe7xwv1qDS6ktGqytrdo7qtUaFKguq+9dvctTCPdWpb1Jqeq15zg8eodTXDSb4VthQ1h6s0A/vDe27W7+HgKMk5nmO0f4tb+ddyrFOFcz39l3NYVrsbzbSp4YrJyD6m/SMCNLuttdrl9n9zeXu4us45t1pt2uSMf+SJichxY5+/G0yGrmhXjlsN2RCrlLxWxXZVpRN+myc3/G29jTa6/d9iTTNccdGudIy0u1abCl0PRzoiQa3VL8Z1Q7+qXosqW5/brCq7itZ9EuVdb5942mp9XpSx9Ru6nDDeFyK771960Q2X+1X1alRQan2mHRRHPSRgzi80qObyNv/apOHjDaolNPLaW18QOXffOrLh942iHan2c87hcBjtu/ajryP+Hfz9S7/QLxjAAAYwgAEMYAADGMAABjCAAQxgAAMYuCcMjOVUrrGDSe+97rH9PSiYNDmEXSBXNsZVmva983EXTL4bN5h8xlpjclqpFtnrTB7U4sBgMsY6k7+o15vLrWpJT8Xk8ga9PaJqslGbnjfb+KuYdIKCeMGSCWFMWBIcTJrpJltiVc3NPqujblWfL5yIEdJFgqWACyPue9y1MGNWgJqQrF9VKyPHNsFeS+VFf/CTzBf+aINJX8DYoho7eDT9HGmb6Ytw4Op7n7Ofab8/7HOP8bwbLIeuqDgqRDNfCmZ62ZbAJyhGtiUvx0zT6Vz0ZqrfwHDbBICujcBg8nbaaIK7WMHo7PaoSlPnfHbZYemgGotOBf9HLRzeRVVMhtvarZIYc3qbc2yJGqvCYiegj/WZph9914g5v8Dxq3UrnmNNx2xc+b+cb6sdKfazZcz0h++8krm22CfYJv1Cv2AAAxjAAAYwgAEMYAADGMAABjCAAQxgIAMNeGY+tAtfnMIZq6ioaWeShVGui9jBpHNvP3Kv1sp8BnR0U4uqKvvVXO/cw27a36r1c5tV4X2trH1EoY7JL6yfCYPJ0hbPmNWpsNCz9Jw102Nxq1tY5eY4UQVm9mfZszO6OUpAMOlfqs+atbBTu6KL4tJw7XgqJr3B5Ed6Imunnn7gY82fslcLppboman7Rx1MhteYPGGtLzlx15g0+EwSPyIwWeiGOhXtWmcPVlAwGQlHat4MCrGc10z4ZT7TAeuttDyVXKVivGDSTCcbXR3nheYGPaGCSMWaCfbsdQq9+ybzu3s8/3nF7oe8oPYn0+6FptrOHzKFL/iGqADNbXu+qZrzXfRR7VvrTsc6ymAyL8cNhAPCMycEi6xBaUIqb4h6W200wV1Fu79SNzx2/hDVcWde61PF81F9EX5fSAcrR1ZMJtXWV8y0xt6xSuYz3evLey4Jzs/0Z9POJs+Xujkn85neIN68Fu/cU29HdFjt9LPTjnAbd6f2H0/vMfjdjCk/sYABDGAAAxjAAAYwgAEMYAADGMAABjCAgYw1MLtJpfsjS921fNGnmoKmGPe+YztILZh0luMr/a2TmeT/1skimuv7IrMNLm1XKDSoxsLGgPvQTjuCg8k6bdlozTLonb2v1ilmsY6/8ZTWza7T+tXtqqv1zBpoFzxFcgVnvN3A0uRV9r1zzz14O3sZUKjwtNZZRVpzT6l4X79aggLOcA4Quw9TMRYJJie9q1/ZU7n+VXMnO8HkU4mCyemfaUn2Z8rNPqTc7Ap7WzrDP53rshlV2rqzV2dP9DtbBgSTeaai8Ysu37pvW9z1H2s2mhAvKJg0QYc3/Bg5mLHCCWttyvA0pdbaitXWunttKvpdKPhiCwr2DCIT4kQ9TTBisVXrCQNPSGKCSW9YljQ69zO9x4v7XrPGpDc8Ne2Omn/Zfxy376Oq8Kx94rU/Vr/7jh2vT03f+n6aMY9c9KaiM+Sdend2q1MJ6rnwTXu8fW1ei9uHsdqYsO9GtjUvJ3ZfevslqF+Tamvg8c1nRp5yCXI5YkrdBOdn2uPtz8g5mHP3XpvpaQfB5MjvvMg48Df6AgMYwAAGMIABDGAAAxjAAAYwgAEMYAADGLhzBuz7xoGFSM4948i9eOd+ceTfVhubnGXHvAU0JoeIk2GY++kj73sPqO7dhkje4y7x58sSrPzBroY097JDzmyB3lk67UI6T1hp3zs3GUWtk5N497eOaWcU5pjp6/+oYHKrHvvx2AeTyzJqKldnMEwIWfeuWdPRrYLzhErhQMcHOij8GDnAJkDxA3f3m3tKRQWdqinvU5O9VqUb3tReUXF0mW2sgMpCZkKcioueKXTNVLr+n28tMGFr/GAv4Zel+5mB5+UL85xzNZWjzfvORp4sMO2Oc1GH+36cBpPOBT4o73SwphI3EmxHpvX0BmlxbZg+jDXuCfvO+DRfUNY4mHDO+9pIs+aLNOW2Bh7ffGaPDoand/abDE/7/KwnlE9wfqbvvG2MmDXn7v3iTU87CCZH+omMA3+jLzCAAQxgAAMYwAAGMIABDGAAAxjAAAYwgIFYBk5oV1G3muzl3gZlVUnWlXU7W7mnevJYtyo2nIjkCubeecDPVIPJ6PvL1r3x6MzDvl8eJ8Ow/x6QzRRu7lJjvVVt6S6rZt/r71fVK9H94dy7Nm1xlj7rUam7pJqdYXnzKvveubnHb+6FBxcGmWOmy6AnmNyiX93vCSYn75SpmJzvncp12gEtnu6uMemuM5moYtKqmgxvOdVa5m55OdXyb9EdO07+7YYdPlhm2lZ3YNe5+/hTazfU8AWTkSkvU5/KNbg/8hecVsn+ftnJuheadYHFCqisvyUzJWrARRoUQCUNNKgvAz7DPt7CNtXZXy6eVN/a10yl6q2ijD7GKKdyXbetx+nHtE7l6oyjWbvQCSLdL4KoKtygIO222uj2f0vML0TzhWS+oKy2mjVP401nGnHt/dJK71SuAddDgvML6s+IXXPu3mDSvBbv3FNvB8FkQJ9FX8P8O6n/0xTxS5/SFxjAAAYwgAEMYAADGMAABjCAAQxgAAOZbuCESsqddR1HVhoGhWxW9WHicPKuBZMx7tNv2t4XKWpKMpg0S8g5SxA6hXS+vMq+d27u+zv3vYOXPEu/oeSCySmeNSYDgsklCaZyjVkxubxBbz/foE3hzVsR1eDMazsebk7HCNMi6wGeUsWRQbWMWDMwKJg8LFNt2RJdJmvO1UwVGzWFavwvVROgGFgunnjBZE6LM3Vog7v4qfn8BD/vTDDp+YKpaNd6b5vMlKdx2m2mSm1JsWIyz56LOWgszcVYK1PF6a12HNXYmHDbOr+NV+xANHrd0sAg7XbamCC4Cw7M3LmoGwYV3b7weS81a3pGrd35fIcaramCR1wbpj8jVaHRY7Wr1PkPSczP9Jowvyc4v8D+NO/NMdeQN5g8rHS0I7ifnT4xbfQ9CBFuY6Tfwn3P3wjwMIABDGAAAxjAAAYwgAEMYAADGMAABjCAgXvAgFMVGBRAxnktzr1pc491vAWTdnHSF10qssbUncrVO9Oi3W7fVK7OfWN7VkbrfVbeEH3evmDSncq1ol3r7oKbcDD5y0lb9KsfbtWjZipXb8VkYDB5UEvcislEwWTGrTFpBsoERMf61RwYIgYHk3meSsC6gsbIXMH2cU9ol7XAqLvuoy+cWNqumrJ2bfNMq2ounDwTDIWuaJdpn/XTRdvS0Keq30emYzXv22Il79ZnHevSruhpYHMOa9WKVlUVt2uL55jpDSZrte7VNtVYQa/VrvpulQS0y4Q3Lcc6VTjXH9bk//6iQuEpbqOC2hxPEFbWqlWe83L6JBReg7K5vF2brEVfPfus39ClJndsbjuYzDGBX7+ajlnhXbdK3DJr85nmPL1ViHk5t9HGBMFdzMDMBNwN/ZEFfE2/zG7SwYrIUyr+ttZqV6nzt+aKiyoI6k9Tch8dIpvrq6FfR4NK7q3FeHd3qXSFZ4wSnF9wf5r3BweT4bB6DNsRs59zDivfnMORzhH9ZVzw04wZP7GAAQxgAAMYwAAGMIABDGAAAxjAAAYwgIF7xYApIjH5SbI/481eafXduAkm555Qwesddr7RXNriZke1Tvvqe3TwVWtZs1qt+12rjh4bVHN5W2BRV3P9oJqLm33ZhrO0XyQvybdn1BxQ4+5WbbEyltkhvbW6XXVHrqg46j7+WPsKCCY/0NzJ2zVv8g499cBuzZ9SrPluMPnMtFItCldMBgeTuTM+11J7q9TSGZVaNqNSGRtMegKilobI3L2RQYoRTOYc1vp3u+0w075was0cyD3OvMihPtWVO+GkN5h8a6s7zWjDoJqP9QTMmxxUlhwJhlpCA2qq7FZdZbcqwvMRn1BJWSRUaqp252Iu61ZjrRsOhvp08HeRL/exCCZbvO038z9X96s5HFINqrmyY0ToGO7b2adVZcJLc17WcardEKysWyE7QIxcaOH3hgMva41Hp+8b97VGLtKlbaozwWaoX43lTp+ErPDQqhos63bCSd8UvZH+CX+OCe7ClXgBbQkHfgFfFOYLsSGqCtE67mjbaEKvGCXisQOzWm3b6YbYXn9mzu56y5XTP/5g0vpCO+0s/muNR2hgZH8WdaouxlgFXyfWOEfC+/Bc21a/JDi/UQWTMa/X0bcjdj9b/dWiGuOvvl8hy3J5hwrCnuJZ428jrz/6hD7BAAYwgAEMYAADGMAABjCAAQxgAAMYwEAmGDDZRLKBpNlvxD3rqHutdy2YNEVQ3p/WPeHdLVFFU3UqLOxWk7lvbOUWxa1R+zjGnZk+A2bJtO+d+zOKVa+0q+5YJB+y8pKagqaAgq6xvX6igsn39OiPg4LJfXpm6idygslSLZpeZq8z6a+YPKTc7ArlZo8MJv1TuX6lt60pXM0WnsbVmtJ1Yk3lal/IdrnsoIKnZY0dTFrvXfVKm6rKPWGcFbCVd2jXb90EPKAK035PWV8EoBv2NFVf0cG10dWXLpbZjdq12w097f37PMGktU+tNq29qJroYNAK7Xa3qSCqItFc/Iku5sAvOhMceS80z+/NX/QrtL9TJXbynwD77EYVFV6JBKjWccIXjtv30VV47hfOiAuu1BNMWvvMbVLJbs+Fbodx3ap4s1H5Jkwci2AyJ6TSCivQC/iiiBdMjraNpv9TDib9TswXeov1Bbi/3TYS14Vl0FqQ2HxxevszJ/5Y5f/2rA7ujzJf36/Gsk6VvFIXCZStPklwfqMNJi3LY9mOuMGk/VktqqqMhK8tRwgmA79P3OuZvyX4rqSf/N8T9Af9gQEMYAADGMAABjCAAQxgAAMYwAAGJqQBcw86fH/aky3Ee21UWcaENOLO0lhxd6ZoTfY+bYrB5KdaZFVNusHkYt9UrnGCyRlVWma2nGotc7e8nGr5N26uJjtw7IeVzDHgBpPR0xBPyC9+XGaOS8aSscQABjCAAQxgAAMYwAAGMIABDGAAAxjAwHgysO7NLmfWySQDSTusrO3Srqgl1MbTOY1lW5zpWftVtXJ8u00YTD5tT+VqKiYJJscSCcca3xcH43OHxsdUoB7p0CbCyAn5pBLXyh26Vrg+uD4wgAEMYAADGMAABjCAAQxgAAMYwAAGMICBaAMrWlVV1qfmhgE1bj/trk05fu9ZeoLJd/SrH76nR3/kn8qVYHL8Dh5hAGMzMQw0q6TgtNYFLZg7+7Qq3LVCQ1tD/Acl+j8o/BsTGMAABjCAAQxgAAMYwAAGMIABDGAAAxjAAAYwEM/AijYdLb6oohVRS5/Fe89d/BvB5F3s/IkRKhH+MU63aeB3HWp0S+ubj/Worqzb2cr71Byy1tccVHN5m9ZzLfIfVwxgAAMYwAAGMIABDGAAAxjAAAYwgAEMYAADGMBARh62tH0AACAASURBVBvwBZP/lYaKyaUzKiPrS1rrTLLGZEaDIsS7zRAvQ79wV604q4PFPWr6YsAOIs1CxM21faopaNKqDD1vrgeuBwxgAAMYwAAGMIABDGAAAxjAAAYwgAEMYAADGMBAxEAagskKLZ3xuaxA0mzLrEDSbASTBJOEUBjAAAYwgAEMYAADGMAABjCAAQxgAAMYwAAGMIABDGAAA/ecgfjBZNZupb7GZIJgckZ1nKrJSGJKekxfYAADGMAABjCAAQxgAAMYwAAGMIABDGAAAxjAAAYwgAEMYCBzDBBMksbfc2k8X2CZ8wXGWDKWGMAABjCAAQxgAAMYwAAGMIABDGAAAxjAAAYwgIGJYyAwmHx88nbNm7xDT1ExSWhHcIsBDGAAAxjAAAYwgAEMYAADGMAABjCAAQxgAAMYwAAGMICBMTBAMDkGnUgSP3GSeMaKscIABjCAAQxgAAMYwAAGMIABDGAAAxjAAAYwgAEMYAADd8cAwSTBJAk/BjCAAQxgAAMYwAAGMIABDGAAAxjAAAYwgAEMYAADGMAABtJugGASZGlHxlMHd+epA/qdfscABjCAAQxgAAMYwAAGMIABDGAAAxjAAAYwgAEMYGA8GSCYJJgkmMQABjCAAQxgAAMYwAAGMIABDGAAAxjAAAYwgAEMYAADGMBA2g0QTIIs7cjGUxJPW3gyBAMYwAAGMIABDGAAAxjAAAYwgAEMYAADGMAABjCAAQzcHQMEkwSTBJMYwAAGMIABDGAAAxjAAAYwgAEMYAADGMAABjCAAQxgAAMYSLsBgkmQpR0ZTx3cnacO6Hf6HQMYwAAGMIABDGAAAxjAAAYwgAEMYAADGMAABjCAgfFkgGCSYJJgEgMYwAAGMIABDGAAAxjAAAYwgAEMYAADGMAABjCAAQxgAANpN3DfrP/3qKztl5Pe0X/98D09+qMP9Pjk7Zo3eYeeytqtp6cUa/6UfXpm6id6ZtqnWjStVIuml2nx9INaPL1cS7I/05LsQ8q1twrlZldo6YzPtXRGZXhbNqNKka1ay3IiW15OtSIbqfV4Sq1pCx4xgAEMYAADGMAABjCAAQxgAAMYwAAGMIABDGAAAxjAAAbGygAVk6TfaU+/xworx+GLDwMYwAAGMIABDGAAAxjAAAYwgAEMYAADGMAABjCAAQxMXAMEkwSTBJMYwAAGMIABDGAAAxjAAAYwgAEMYAADGMAABjCAAQxgAAMYSLsBgkmQpR0ZTy5M3CcXGDvGDgMYwAAGMIABDGAAAxjAAAYwgAEMYAADGMAABjCAgbEyQDBJMEkwiQEMYAADGMAABjCAAQxgAAMYwAAGMIABDGAAAxjAAAYwgIG0GyCYBFnakY1Vis5xeCIDAxjAAAYwgAEMYAADGMAABjCAAQxgAAMYwAAGMIABDExcAwSTBJMEkxjAAAYwgAEMYAADGMAABjCAAQxgAAMYwAAGMIABDGAAAxhIuwGCSZClHRlPLkzcJxcYO8YOAxjAAAYwgAEMYAADGMAABjCAAQxgAAMYwAAGMICBsTIQDib3fXJAn5YdUnlFlT6vPqbDfzuuY8e/VG39V6o/cVKhxiZ9dapZDU1ndPLvZ9XU3KK/n23V6bNtaj53Xs0t7TrTekFn2y7a27nzHWqxtvZOe2u9cElma7vYpaDtfMdlsdEHGMAABjCAAQxgAAMYwAAGMIABDGAAAxjAAAYwgAEMYAADGMg8A+Fgsqr6sI79rUZ19fU60dCok01/V/OZszrX2qbW8+260NGhi52X1Nl1WV2Xr+hKT6+6e/vU03dVvVf71dc/oKvWNjCo/sFrGrg2ZG+DQ8OytmvDX4e3oa+vK2gbvv6N2OgDDGAAAxjAAAYwgAEMYAADGMAABjCAAQxgAAMYwAAGMIABDGSeAYJJwlDCYAxgAAMYwAAGMIABDGAAAxjAAAYwgAEMYAADGMAABjCAAQyk3QDBJMjSjownGjLviQbGlDHFAAYwgAEMYAADGMAABjCAAQxgAAMYwAAGMIABDGAgVQMEkwSTBJMYwAAGMIABDGAAAxjAAAYwgAEMYAADGMAABjCAAQxgAAMYSLsBgkmQpR1Zqmk5+/OEBQYwgAEMYAADGMAABjCAAQxgAAMYwAAGMIABDGAAAxjIPAMEkwSTBJMYwAAGMIABDGAAAxjAAAYwgAEMYAADGMAABjCAAQxgAAMYSLsBgkmQpR0ZTzRk3hMNjCljigEMYAADGMAABjCAAQxgAAMYwAAGMIABDGAAAxjAQKoGCCYJJgkmMYABDGAAAxjAAAYwgAEMYAADGMAABjCAAQxgAAMYwAAGMJB2AwSTIEs7slTTcvbnCQsMYAADGMAABjCAAQxgAAMYwAAGMIABDGAAAxjAAAYwkHkGCCYJJgkmMYABDGAAAxjAAAYwgAEMYAADGMAABjCAAQxgAAMYwAAGMJB2AwSTIEs7Mp5oyLwnGhhTxhQDGMAABjCAAQxgAAMYwAAGMIABDGAAAxjAAAYwgIFUDRBMEkwSTGIAAxjAAAYwgAEMYAADGMAABjCAAQxgAAMYwAAGMIABDGAg7QYIJkGWdmSppuXszxMWGMAABjCAAQxgAAMYwAAGMIABDGAAAxjAAAYwgAEMYCDzDBBMEkwSTGIAAxjAAAYwgAEMYAADGMAABjCAAQxgAAMYwAAGMIABDGAg7QYIJkGWdmQ80ZB5TzQwpowpBjCAAQxgAAMYwAAGMIABDGAAAxjAAAYwgAEMYAADqRogmCSYJJjEAAYwgAEMYAADGMAABjCAAQxgAAMYwAAGMIABDGAAAxjAQNoNEEyCLO3IUk3L2Z8nLDCAAQxgAAMYwAAGMIABDGAAAxjAAAYwgAEMYAADGMBA5hkgmCSYJJjEAAYwgAEMYAADGMAABjCAAQxgAAMYwAAGMIABDGAAAxjAQNoNEEyCLO3IeKIh855oYEwZUwxgAAMYwAAGMIABDGAAAxjAAAYwgAEMYAADGMAABlI1QDBJMEkwiQEMYAADGMAABjCAAQxgAAMYwAAGMIABDGAAAxjAAAYwgIG0GyCYBFnakaWalrM/T1hgAAMYwAAGMIABDGAAAxjAAAYwgAEMYAADGMAABjCAgcwzQDBJMEkwiQEMYAADGMAABjCAAQxgAAMYwAAGMIABDGAAAxjAAAYwgIG0G0h7MNlWv0fbVi/TL2f/RJMmT9ekrGxNenCWHpm3TK9+VKwv269r6GtnI/nOvOSbMWVMMYABDGAAAxjAAAYwgAEMYAADGMAABjCAAQxgAAMYwAAGLANpCya7Gz7S7x/9iX4weXp4CweTVjgZ3mbqkVU7dbL3etpT2NGiv9xcquPnADPa/uN92MEABjCAAQxgAAMYwAAGMIABDGAAAxjAAAYwgAEMYAADGEhLMHnx8J/0nyaQzJmt59/bo/oz3brU87WuDX+tvks9OhMq1gdrnlK2CSjnrNHh7vE2ICH95adOiLr2+HhrG+3hCwwDGMAABjCAAQxgAAMYwAAGMIABDGAAAxjAAAYwgIGJZuBbvbde+ln5tzEL1ioKpfsKb8T8+3gd84Fj25S7oUpdyU4J231elTvfUf5L+cpdbm0r9dyGD1XyZZcGkj1GKvsNdOjM+aG72q9jH0yeeV+L3FBy8q8L1NA9rMGhYTuQtEJJazNTt9o/r/xNBbkzNempQp1NpfPuyL41WusGpwSTE+2LjfaO1y9m2oVNDGAAAxjAAAYwgAEMYAADGMAABjCAAQxgAAP3soFMDSaHVLklX2sre5ML/s4f0poX8/Xi5v2qbe1V78CQeru71HR8vzasXKk/7D+f3HGSzss6VPKnfP3hQMcYHzc1y2McTJ7U1iemOVO3PvE/augfskPJuMGktb7ktR6dae25qx0R/CVIMBncL6kh4xj0FwYwgAEMYAADGMAABjCAAQxgAAMYwAAGMIABDGAAA46BDA0mB2q0cfk7+iyp2UGdkPC59+rVGxQsDveq6+pYe8nAYPLy5/maPNkKJn+ujaEhDVxLMpi0wsmvx+MakwST/IdirC98jocpDGAAAxjAAAYwgAEMYAADGMAABjCAAQxgAAMYuJcNjCaY/KdOHbmpx1dJ970kfW/lLS3Yf0Odw5F+bCm/pfu2fqdTdTf1izXS9JXS9/94Sx+3/1OdX93U42uk+93X3jvzL3+xXOcNrX5b+v5L0n350syt36k+xWDQnsZ149HkpnE9+bGeW/6GSi5E2h/vmhjoqNe2Dav1a2u61xdWKn/LITWF2+cEjhuPdKl+7zt68ZXVeu7FfP169TZ9dt49/pcfulPFmilj85X7p0NqtUPRIV2s+VhrXlnp7PPSn7XxwDlPYHpCm5f/UTtOnFPJlj/abbidqssxrJjsVsWa/9APrGBy6Xa1Xhu7YPJyc6kKXn5Kj/xspibZU6vO1MO5y1VQcUaXh4IHLVQwy943a1ONg6v7jA69v1zz5/iP8cb+k1HHOK8dec66ks5nBf++ZE9ACe3QeR3fs0bPznsovHZm1s/m6NkNO3U8Fq7uUr1gn9NC7e38RsNDvTpV8ZaefWyWstzXd8R6b1CKzmv+LxP6g/7AAAYwgAEMYAADGMAABjCAAQxgAAMYwAAGMIABDIwjA6kGk//QqfJb+t6qW3rv1L/VO/xP9bbdUP7r0v2FN8IBmh1M5kuPHzBrV/5T9Xul+1ZJPys0IeY/dOrALd236qbqjYmL3+kX+dLyY9+q1wo6r/1bR0tu6fubv1On2Sfhz9Smcb148G3l5n+srxIe9xsNXzikNS+s1sYjHRqw29err/a8rV+HQ1C3+jL/z9p83EwjO6QzJW8od/V+nQl/RnDFZKvVlle2qdJde3Lg8mnt+PNKz5S0VjCZr+deKdCeVnd9Sk8gHC9QDfrbGAaTtXrr51a15DTN+aDJrpa8/YrJXoUKnnIDumxNenCWHpk3R4+Ew8VsZa/YqbMB4eSFPQudEHNDjYbbdurZnwYHjFb4+PDKUl0ID8wlla6a43yOJ2DMnmNec36+fOCS/yJuK9XLcyKfYfaf+aD72oNz9MbfDAhvmGqqMhdqR9t5la58yA1fzbEWimDS21/8HnQh8xouMIABDGAAAxjAAAYwgAEMYAADGMAABjCAAQxgYGIYcIJJq/Ix7lZ4w8lhhm8o3woOj0dVObbd1MyXbum9i864O8HkTVV4Q7Ovbup71j7tHhsXv9PPwu/7hyoKpf+90/0skxUN39DqVyPHTtiv9jSub+vAZc/nmGMF/Gw98IanYjH+e2rfz9dz20/6M6nhk9qWbyouncAx9/0T/n0uHNIflr+tkg5z/IBgcviENr+wWtsazD7uz4aP9Vy4otIJJl/cc85//IDzSthP17/R2AWTF/fpuR87weRrh6+NSTB5ds9CJ5R88Cm9ceS8rnoDyK6Q/vobp/rx/75eratRHRAOJlf8t1bNyVbWgtd1qPlS5BgD53W8wD1+1kytOjIY0KEmNMzW2uNRg+L9vL4arXVDyYdX7lSoy7Pv0KDOVvy3HjbVj22ev9nHMJ8xSy+/tlxZWQ/p5aIane1y2nO165IuD0S/h38ng5t9cIIBDGAAAxjAAAYwgAEMYAADGMAABjCAAQxgAAMYGG8G3IrJkm/V2fPvwO3jbdJ9Jph0g8QPrVknvdnM9RvKf0nKP+G8bgeT679Ti3cf+703VTHiNRM6xg9JzbH9nxvdjm9kT+O6oSq5aVyvf6PkKybd0NGawjVg2/yl1ZaAwNE6XzuYNOFljP3sfYKPnbv8Q9Xa/eYEk85njTz3RH0T/fexCybPfqiFdjD5H/pz7RgEk+cK9bgd5j2kteHS06gT7qvW2oesysLH9Ndz/r+Fg0nrGHmFgVWVw9d7deg1d2rXl0p12QvT/t2EhvGCyUEdXuscI+s3wdWbVqef3eVUcGatPRQVokY+Y1LWLK0NrKr0n1v0IPJv+gcDGMAABjCAAQxgAAMYwAAGMIABDGAAAxjAAAYwgIGJYSDFqVzvQDD5i0P/jgo9U7HkTOO6piJo1swYxzmzXy8mtcakEzquOdgVp323G0x6qyqD2jvug8kF2t5y+8FkaIuzRuSklaVRQZ6/U84WPWZPffrIh2d8gxIJJmfpL25aHnRBXj6w3Jk69cHXdXw0wWTXXj1rB6hzVNDkb5vv8wYOaZU9ret/65CvAtITTK7YGxCOxjnmiPayr6/P6R/fNUHfcH1gAAMYwAAGMIABDGAAAxjAAAYwgAEMYAADGMDA3TeQYjDpTuW6uvEf/nveQVO5plwx6Uzl+r1tkbUqU+6fFKdxdY7vhInPvVcfXiPT97nDQ856kte/kTWVa+7/1GsgZuZxG8GkPZVrvjbWuGtHBn7GuA8mx6JiMqS/2JWQ2XrhQIKEuf51Z7rXqIrHSDC5Roe9U8BGd+rx1901HUcXTIaDzYfeUij62L5/X9Le31jVnbP0l0bvF18kmJy/67z/ovK93/sefvddoPQTbjCAAQxgAAMYwAAGMIABDGAAAxjAAAYwgAEMYAADE8RAisHk9X/oVPktfW/VLX3cbq0z+Q/1dt3Q229J9xdGAsXRTeX6jYbbv9Mv8qUF5TfUee0bDQ//S51tN7T6Lzd11LteZQxfqU7jGs43zh/Smhfz9dym/apt7VVXt7Od+XK/Nr66Un/Y3+GMp7XfC6u14cBpddntG1Jva722vblX9Xb7kg0m3ZDzz2VqujqkgatOGNl64G3lvlKgkpO9Tvg50K8zNR9r7U6zruV4DSbHco1Jq7rQrkK0grwkt7yduuBBEQ4m523VKc/r4QE3r91mMHnqwznJt9E9F/96lZFgclVV0DqXhJAjxsyMHT8nyH9kMIxhDGAAAxjAAAYwgAEMYAADGMAABjCAAQxgAAMYMAZSDSat9/1Tp47c1OOrpPtekr638pYW7L+hTk9wOOpg0soaOm9o9dvS919yjv+/1t7S68eTmd51FNO4erON7vOq3PmO8l8y6zyu1HN/ekcf1nT5KiQHOuq1bcNq/dpdZ/LXq737JB9MDl89qQ/XrXTWq9xQpYt2W4Z0seZjrXnFff2FlcrfuFdHO0wV5XgNJvtr9dbPp+kHk6dpzgdNGrg2ZG+DQ8OytmvDX4e3oa+vK2gLX5QXdmqJG+I9/vLremNTEltRjW8a1HAwGRVYhj/DDPxtBpPHN7jB6UMLtSqZdm56XaW+9TAjwaQ/sDQXKD9HjJkZO34STGIAAxjAAAYwgAEMYAADGMAABjCAAQxgAAMYwAAGMHC3DIxqGtd7O/e5z1QkVlUf1rG/1aiuvl4nGhp1sunvaj5zVuda29R6vl0XOjp0sfOSOrsuq+vyFV3p6VV3b596+q6q92q/+voHdHTdf9jB5A+Wblfr7QST3aV6IbC6MPnBulPBZKjAXQszUQAa86IgmCR4TN41fUVfYQADGMAABjCAAQxgAAMYwAAGMIABDGAAAxjAAAbGiYHu86o9cT54nciYudA4aftdat+YBpNXj6/XrMlW1eTPtTF0GxWT1yNrTC7Zd2lUSf+dCibDa0w+GLRGZTK4CCb5Ak3GCfvgBAMYwAAGMIABDGAAAxjAAAYwgAEMYAADGMAABjCAgYltYGyDyf4z+jDXCian6wdLt+l0/5A9jWviqVx71HXlui+APL5hprN244q9vilakwV3p4LJ4fC0s7P0lxOjwUAwmeyYst9ofPEe3GAAAxjAAAYwgAEMYAADGMAABjCAAQxgAAMYwAAGMDA+DIxxMDmgq2e2a1HOdDucnP78Rzo9kGCNySuN2rHyIU1aUewPIBvf0sP2dK6ztPZIry+0jMZzufGkLkSVnI5NMHleOxY5a0g+8uGZGG24pNKX3BA1r1Bnh+IM7NAZhZoHo45DMBk9nvw7jqEo5/QVfYUBDGAAAxjAAAYwgAEMYAADGMAABjCAAQxgAAMYwMBEMTD2weTAoK4c+5P+06qatLb/86T+uLtSjee71Tv4ta4Nf62h3h61n65S0fqFmvmgE/xN+ulylV7wwhnU8U0POVWTWTM1f0u1zvZ5/j40qAvNpSp4aY6ysmZp7XF/4Dc2weQ3Cq8h+eBC/fXEJV21gsehQV0d8LTFqpp0zyPrsd9ph9nPDZGudp/R8T1rNP+n2Zo0Yi1KgsmJcrHQTo95AtKoBwzoG64PDGAAAxjAAAYwgAEMYAADGMAABjCAAQxgAAMYwEAiA2kJJvsHr6m74SP9/tGfOOGkG1JOmjzdDRrdMNKuiJypR1bt1JdRU7naDR/q1fGCp5Rl7+d9j/93Kwzce84/2GMVTA731WjtHP/nTcrK1pI95/3BxLm9ejlgP2vfyDZT89+v0WVfVSXBZCKk/N1vm/6gPzCAAQxgAAMYwAAGMIABDGAAAxjAAAYwgAEMYAADGJiIBtIWTA5cG5K1tdXv0bbVy/TL2T9ROJh8cJYembdMr35UrC9bBzT09XV7i9WBV9tqtGNDnh6Z406ZmpWtrJ/N0fyX39KO4+edKsaoCq4xCyat43af1N4NeXrYqni0gsafPqSXD1zyB5PWfkOXdKpis17InROpBM2aqYfn5WlVUalOdQVdJASTscad14O88BouMIABDGAAAxjAAAYwgAEMYAADGMAABjCAAQxgAAMYmJgG0h5MDg4lWGPSDSWtcBJEExMR48a4YQADGMAABjCAAQxgAAMYwAAGMIABDGAAAxjAAAYwgAEMJDJAMBlVaZmow/g7FxUGMIABDGAAAxjAAAYwgAEMYAADGMAABjCAAQxgAAMYwAAGUjdAMEkwSaUqBjCAAQxgAAMYwAAGMIABDGAAAxjAAAYwgAEMYAADGMAABtJugGASZGlHxhMDqT8xQJ/RZxjAAAYwgAEMYAADGMAABjCAAQxgAAMYwAAGMIABDGSaAYJJgkmCSQxgAAMYwAAGMIABDGAAAxjAAAYwgAEMYAADGMAABjCAAQyk3QDBJMjSjizT0nzOhydUMIABDGAAAxjAAAYwgAEMYAADGMAABjCAAQxgAAMYwEDqBggmCSYJJjGAAQxgAAMYwAAGMIABDGAAAxjAAAYwgAEMYAADGMAABjCQdgMEkyBLOzKeGEj9iQH6jD7DAAYwgAEMYAADGMAABjCAAQxgAAMYwAAGMIABDGAg0wwQTBJMEkxiAAMYwAAGMIABDGAAAxjAAAYwgAEMYAADGMAABjCAAQxgIO0GCCZBlnZkmZbmcz48oYIBDGAAAxjAAAYwgAEMYAADGMAABjCAAQxgAAMYwAAGUjdAMEkwSTCJAQxgAAMYwAAGMIABDGAAAxjAAAYwgAEMYAADGMAABjCAgbQbIJgEWdqR8cRA6k8M0Gf0GQYwgAEMYAADGMAABjCAAQxgAAMYwAAGMIABDGAAA5lmgGCSYJJgEgMYwAAGMIABDGAAAxjAAAYwgAEMYAADGMAABjCAAQxgAANpN0AwCbK0I8u0NJ/z4QkVDGAAAxjAAAYwgAEMYAADGMAABjCAAQxgAAMYwAAGMJC6AYJJgkmCSQxgAAMYwAAGMIABDGAAAxjAAAYwgAEMYAADGMAABjCAAQyk3QDBJMjSjownBlJ/YoA+o88wgAEMYAADGMAABjCAAQxgAAMYwAAGMIABDGAAAxjINAMEkwSTBJMYwAAGMIABDGAAAxjAAAYwgAEMYAADGMAABjCAAQxgAAMYSLsBgkmQpR1ZpqX5nA9PqGAAAxjAAAYwgAEMYAADGMAABjCAAQxgAAMYwAAGMICB1A0QTBJMEkxiAAMYwAAGMIABDGAAAxjAAAYwgAEMYAADGMAABjCAAQxgIO0GCCZBlnZkPDGQ+hMD9Bl9hgEMYAADGMAABjCAAQxgAAMYwAAGMIABDGAAAxjAQKYZIJgkmCSYxAAGMIABDGAAAxjAAAYwgAEMYAADGMAABjCAAQxgAAMYwEDaDRBMgiztyDItzed8eEIFAxjAAAYwgAEMYAADGMAABjCAAQxgAAMYwAAGMIABDKRugGCSYJJgEgMYwAAGMIABDGAAAxjAAAYwgAEMYAADGMAABjCAAQxgAANpN0AwCbK0I+OJgdSfGKDP6DMMYAADGMAABjCAAQxgAAMYwAAGMIABDGAAAxjAAAYyzQDBJMEkwSQGMIABDGAAAxjAAAYwgAEMYAADGMAABjCAAQxgAAMYwAAG0m6AYBJkaUeWaWk+58MTKhjAAAYwgAEMYAADGMAABjCAAQxgAAMYwAAGMIABDGAgdQMEkwSTBJMYwAAGMIABDGAAAxjAAAYwgAEMYAADGMAABjCAAQxgAAMYSLsBgkmQpR0ZTwyk/sQAfUafYQADGMAABjCAAQxgAAMYwAAGMIABDGAAAxjAAAYwkGkGCCYJJgkmMYABDGAAAxjAAAYwgAEMYAADGMAABjCAAQxgAAMYwAAGMJB2AwSTIEs7skxL8zkfnlDBAAYwgAEMYAADGMAABjCAAQxgAAMYwAAGMIABDGAAA6kbIJgkmCSYxAAGMIABDGAAAxjAAAYwgAEMYAADGMAABjCAAQxgAAMYwEDaDRBMgiztyHhiIPUnBugz+gwDGMAABjCAAQxgAAMYwAAGMIABDGAAAxjAAAYwgIFMM0AwSTBJMIkBDGAAAxjAAAYwgAEMYAADGMAABjCAAQxgAAMYwAAGMICBtBsgmARZ2pFlWprP+fCECgYwgAEMYAADGMAABjCAAQxgAAMYwAAGMIABDGAAAxhI3QDBJMEkwSQGMIABDGAAAxjAAAYwgAEMYAADGMAABjCAAQxgAAMYwAAG0m6AYBJkaUfGEwOpPzFAn9FnGMAABjCAAQxgAAMYwAAGMIABDGAAAxjAAAYwgAEMZJoBgkmCSYJJDGAAAxjAAAYwgAEMYAADGMAABjCAAQxgAAMYwAAGMIABDKTdAMEkyNKOLNPSfM6HJ1QwgAEMYAADGMAABjCAAQxgAAMYwAAGMIABDGAAAxjAQOoGe7bOSAAAAaRJREFUCCYJJgkmMYABDGAAAxjAAAYwgAEMYAADGMAABjCAAQxgAAMYwAAGMJB2AwSTIEs7Mp4YSP2JAfqMPsMABjCAAQxgAAMYwAAGMIABDGAAAxjAAAYwgAEMYCDTDBBMEkwSTGIAAxjAAAYwgAEMYAADGMAABjCAAQxgAAMYwAAGMIABDGAg7QYIJkGWdmSZluZzPjyhggEMYAADGMAABjCAAQxgAAMYwAAGMIABDGAAAxjAAAZSN0AwSTBJMIkBDGAAAxjAAAYwgAEMYAADGMAABjCAAQxgAAMYwAAGMICBtBsgmARZ2pHxxEDqTwzQZ/QZBjCAAQxgAAMYwAAGMIABDGAAAxjAAAYwgAEMYAADmWaAYJJgkmASAxjAAAYwgAEMYAADGMAABjCAAQxgAAMYwAAGMIABDGAAA2k3MObB5PDXX+uf//qXvv32W924ccPevvvuO1nbzZs3w9utW7cUaxP/owfoAXqAHqAH6AF6gB6gB+gBeoAeoAfoAXqAHqAH6AF6gB6gB+gBeoAeoAfogbveA9/dvKl//fvfYxJa/n9YMyc7q2SM4wAAAABJRU5ErkJggg==;" parent="Tib5MzPci9CGnLbOdRJG-1" vertex="1">
          <mxGeometry x="70" y="-1084" width="1830" height="154" as="geometry" />
        </mxCell>
        <mxCell id="Tib5MzPci9CGnLbOdRJG-26" value="" style="group" parent="Tib5MzPci9CGnLbOdRJG-1" vertex="1" connectable="0">
          <mxGeometry x="1070" y="-930" width="480" height="490" as="geometry" />
        </mxCell>
        <mxCell id="Tib5MzPci9CGnLbOdRJG-27" value="" style="rounded=0;whiteSpace=wrap;html=1;fontFamily=Helvetica;fillColor=none;" parent="Tib5MzPci9CGnLbOdRJG-26" vertex="1">
          <mxGeometry width="480" height="64" as="geometry" />
        </mxCell>
        <mxCell id="Tib5MzPci9CGnLbOdRJG-28" value="" style="rounded=0;whiteSpace=wrap;html=1;fillColor=none;fontFamily=Helvetica;" parent="Tib5MzPci9CGnLbOdRJG-26" vertex="1">
          <mxGeometry y="64" width="480" height="426" as="geometry" />
        </mxCell>
        <mxCell id="Tib5MzPci9CGnLbOdRJG-29" value="Center Key Contacts" style="text;strokeColor=none;fillColor=none;html=1;fontSize=24;fontStyle=0;verticalAlign=middle;align=left;fontFamily=Helvetica;fontColor=#758496;" parent="Tib5MzPci9CGnLbOdRJG-26" vertex="1">
          <mxGeometry x="53" y="12" width="277" height="40" as="geometry" />
        </mxCell>
        <mxCell id="Tib5MzPci9CGnLbOdRJG-30" value="" style="shape=image;verticalLabelPosition=bottom;verticalAlign=top;aspect=fixed;imageAspect=0;image=data:image/png,iVBORw0KGgoAAAANSUhEUgAAABYAAAAdCAYAAACuc5z4AAABZ0lEQVRIDdXUz0sCQRjG8f2DvXQYpEDQ0EAED14KJRAkpA5e8mAHwSREkKgoCbsESrsk4XElRb7hj2GRfde0doIWhoFl9rPvvjPPWhi6LEMum+HpiE4lTzKeIKJiRFQClclzcTti8k1FwbDTJhefY/JQJ22cWbAuw26XwgZUv0yVurgBtgg/nacCK9Xock5x9izLAtyjGJU/fx1drSn3RNkPvzdIBvRVhDMNHIH+QxhTrQAMbR5g6rgt9sJIQPQuG4m0xn84+47bxLXp3T3QadaotPt8fPrlyahPq1qjPl/3YuNO/Ws8eGpTz6fFKO/F0xwkl0PtC6mMpsk17bU/3hJ2uxQPhQd2SaCKcVD2fkoWjGmd/h7VcT/ujBd9sXitonasTCPifFRjAFjOVVbsq/jQVgVkuXTAui+F1wZdTOHxX8KDavg9rryBxWzIdUAwdM+2nudBuRmujps/jaHc8SIdCuchxuAv22r1h/kzptIAAAAASUVORK5CYII=;" parent="Tib5MzPci9CGnLbOdRJG-26" vertex="1">
          <mxGeometry x="20" y="17.5" width="22" height="29" as="geometry" />
        </mxCell>
        <mxCell id="Tib5MzPci9CGnLbOdRJG-31" value="Administration" style="text;html=1;strokeColor=none;fillColor=none;align=left;verticalAlign=middle;whiteSpace=wrap;rounded=0;fontFamily=Helvetica;fontSize=22;fontColor=#330000;" parent="Tib5MzPci9CGnLbOdRJG-26" vertex="1">
          <mxGeometry x="10" y="80" width="100" height="20" as="geometry" />
        </mxCell>
        <mxCell id="Tib5MzPci9CGnLbOdRJG-32" value="" style="group" parent="Tib5MzPci9CGnLbOdRJG-26" vertex="1" connectable="0">
          <mxGeometry x="30" y="107" width="423.5" height="17" as="geometry" />
        </mxCell>
        <mxCell id="Tib5MzPci9CGnLbOdRJG-33" value="Administrator" style="text;html=1;strokeColor=none;fillColor=none;align=left;verticalAlign=middle;whiteSpace=wrap;rounded=0;fontFamily=Helvetica;fontSize=19;fontColor=#758496;" parent="Tib5MzPci9CGnLbOdRJG-32" vertex="1">
          <mxGeometry width="170" height="20" as="geometry" />
        </mxCell>
        <mxCell id="Tib5MzPci9CGnLbOdRJG-34" value="Stella Zagata-Fee" style="text;html=1;strokeColor=none;fillColor=none;align=left;verticalAlign=middle;whiteSpace=wrap;rounded=0;fontFamily=Helvetica;fontSize=17;fontStyle=1" parent="Tib5MzPci9CGnLbOdRJG-32" vertex="1">
          <mxGeometry x="230" width="170" height="20" as="geometry" />
        </mxCell>
        <mxCell id="Tib5MzPci9CGnLbOdRJG-35" value="" style="shape=image;verticalLabelPosition=bottom;verticalAlign=top;aspect=fixed;imageAspect=0;image=data:image/png,iVBORw0KGgoAAAANSUhEUgAAABEAAAAOCAYAAADJ7fe0AAAA60lEQVQ4Ea3TsUoDQRDG8XsM2zxGWh/hXsEyZcoQrjHYWKRKlZDKSq6wCNjEzkIE08XKYJU0QooUSwjyk8udcB6eELmFhR2Y/c833+xGGljRbMpZj+jU3af7lCuI4lMvl/OHbBBdDv6hogC1bwkZxIF0cjqo85ADsoaiixHLwOqRdllq3XlAuia805kU7Rw9SRi/EdZ0r+pVnU9ZHVje08qKfHtSNja+Y7tndlOZWJ/eM2HHeFQq8hskG3NryMuOzYI4yeP5B9vXPP7xFOogx6SE6wXhE3vmaSG/6tOfkGpyXdwopJFn38D/8wUzf7n47vDmgAAAAABJRU5ErkJggg==;" parent="Tib5MzPci9CGnLbOdRJG-32" vertex="1">
          <mxGeometry x="406.5" y="3" width="17" height="14" as="geometry" />
        </mxCell>
        <mxCell id="Tib5MzPci9CGnLbOdRJG-36" value="" style="shape=image;verticalLabelPosition=bottom;labelBackgroundColor=#ffffff;verticalAlign=top;aspect=fixed;imageAspect=0;image=data:image/png,iVBORw0KGgoAAAANSUhEUgAAACAAAAAkCAYAAADo6zjiAAABsklEQVRYCe2Xv2vCUBDH82dk7ei/4dixo2tHR0fJIERE6OSQyUXEsWNGxalLQHCwbiIugoMiDpnCp8TkJTHG/GjUR6EBuWcC9/3c5b27i4LkS5GsTzEAB1YWNAyoaKA0QdGgakDfgoNTPJzcAPYaGh1f1BVO+KkdGK2LQeQCsBdQFREnCF/AaKAv8kNkA+yglldcwGnwucsHkQkwHian+yJqIRyx6hDsHAzpACeoR5xmicafm6dsgnSA+e+iFyDNeUmA7aQcwNvkrwMg+xUgfRMCco+hu4dkFyKXQW4p9k+S1GYUnGaZ7TiAuPMivRTfWSzJ3U2Awwb6A6i2wnJc6cHIglWsydgnmFmg90D1m5fagvcBmJsk2fDeNYANfSMUFY2ljH0x4PtGb74E2EOzfV/xALwN430YuViFAA58PEpczBRtmMUG1wBgZT4ociHu21dTxO5ZD8ABvejcF3McpDrrvgZfkSx4AMtw9+Z2lCWU8lxfhlk4A2ynz0m/CK42jQOUHL2E47w2Oqp5GfgHkL0HOEL9icfQPMY2ofv3PHB0H3saXrrXX89eHQiBnr6SDvADViyz+h+AoE8AAAAASUVORK5CYII=;" parent="Tib5MzPci9CGnLbOdRJG-32" vertex="1">
          <mxGeometry x="382.22" width="17.78" height="20" as="geometry" />
        </mxCell>
        <mxCell id="Tib5MzPci9CGnLbOdRJG-37" value="" style="group" parent="Tib5MzPci9CGnLbOdRJG-26" vertex="1" connectable="0">
          <mxGeometry x="30" y="140" width="423.5" height="17" as="geometry" />
        </mxCell>
        <mxCell id="Tib5MzPci9CGnLbOdRJG-38" value="Director of Nursing:" style="text;html=1;strokeColor=none;fillColor=none;align=left;verticalAlign=middle;whiteSpace=wrap;rounded=0;fontFamily=Helvetica;fontSize=19;fontColor=#758496;" parent="Tib5MzPci9CGnLbOdRJG-37" vertex="1">
          <mxGeometry width="170" height="20" as="geometry" />
        </mxCell>
        <mxCell id="Tib5MzPci9CGnLbOdRJG-39" value="Yanara Reda" style="text;html=1;strokeColor=none;fillColor=none;align=left;verticalAlign=middle;whiteSpace=wrap;rounded=0;fontFamily=Helvetica;fontSize=17;fontStyle=1" parent="Tib5MzPci9CGnLbOdRJG-37" vertex="1">
          <mxGeometry x="230" width="170" height="20" as="geometry" />
        </mxCell>
        <mxCell id="Tib5MzPci9CGnLbOdRJG-40" value="" style="shape=image;verticalLabelPosition=bottom;verticalAlign=top;aspect=fixed;imageAspect=0;image=data:image/png,iVBORw0KGgoAAAANSUhEUgAAABEAAAAOCAYAAADJ7fe0AAAA60lEQVQ4Ea3TsUoDQRDG8XsM2zxGWh/hXsEyZcoQrjHYWKRKlZDKSq6wCNjEzkIE08XKYJU0QooUSwjyk8udcB6eELmFhR2Y/c833+xGGljRbMpZj+jU3af7lCuI4lMvl/OHbBBdDv6hogC1bwkZxIF0cjqo85ADsoaiixHLwOqRdllq3XlAuia805kU7Rw9SRi/EdZ0r+pVnU9ZHVje08qKfHtSNja+Y7tndlOZWJ/eM2HHeFQq8hskG3NryMuOzYI4yeP5B9vXPP7xFOogx6SE6wXhE3vmaSG/6tOfkGpyXdwopJFn38D/8wUzf7n47vDmgAAAAABJRU5ErkJggg==;" parent="Tib5MzPci9CGnLbOdRJG-37" vertex="1">
          <mxGeometry x="406.5" y="3" width="17" height="14" as="geometry" />
        </mxCell>
        <mxCell id="Tib5MzPci9CGnLbOdRJG-41" value="" style="shape=image;verticalLabelPosition=bottom;labelBackgroundColor=#ffffff;verticalAlign=top;aspect=fixed;imageAspect=0;image=data:image/png,iVBORw0KGgoAAAANSUhEUgAAACAAAAAkCAYAAADo6zjiAAABsklEQVRYCe2Xv2vCUBDH82dk7ei/4dixo2tHR0fJIERE6OSQyUXEsWNGxalLQHCwbiIugoMiDpnCp8TkJTHG/GjUR6EBuWcC9/3c5b27i4LkS5GsTzEAB1YWNAyoaKA0QdGgakDfgoNTPJzcAPYaGh1f1BVO+KkdGK2LQeQCsBdQFREnCF/AaKAv8kNkA+yglldcwGnwucsHkQkwHian+yJqIRyx6hDsHAzpACeoR5xmicafm6dsgnSA+e+iFyDNeUmA7aQcwNvkrwMg+xUgfRMCco+hu4dkFyKXQW4p9k+S1GYUnGaZ7TiAuPMivRTfWSzJ3U2Awwb6A6i2wnJc6cHIglWsydgnmFmg90D1m5fagvcBmJsk2fDeNYANfSMUFY2ljH0x4PtGb74E2EOzfV/xALwN430YuViFAA58PEpczBRtmMUG1wBgZT4ociHu21dTxO5ZD8ABvejcF3McpDrrvgZfkSx4AMtw9+Z2lCWU8lxfhlk4A2ynz0m/CK42jQOUHL2E47w2Oqp5GfgHkL0HOEL9icfQPMY2ofv3PHB0H3saXrrXX89eHQiBnr6SDvADViyz+h+AoE8AAAAASUVORK5CYII=;" parent="Tib5MzPci9CGnLbOdRJG-37" vertex="1">
          <mxGeometry x="382.22" width="17.78" height="20" as="geometry" />
        </mxCell>
        <mxCell id="Tib5MzPci9CGnLbOdRJG-42" value="Medical Director" style="text;html=1;strokeColor=none;fillColor=none;align=left;verticalAlign=middle;whiteSpace=wrap;rounded=0;fontFamily=Helvetica;fontSize=22;fontColor=#330000;" parent="Tib5MzPci9CGnLbOdRJG-26" vertex="1">
          <mxGeometry x="10" y="170" width="180" height="20" as="geometry" />
        </mxCell>
        <mxCell id="Tib5MzPci9CGnLbOdRJG-43" value="" style="group" parent="Tib5MzPci9CGnLbOdRJG-26" vertex="1" connectable="0">
          <mxGeometry x="30" y="197" width="423.5" height="17" as="geometry" />
        </mxCell>
        <mxCell id="Tib5MzPci9CGnLbOdRJG-44" value="Co Medical Director" style="text;html=1;strokeColor=none;fillColor=none;align=left;verticalAlign=middle;whiteSpace=wrap;rounded=0;fontFamily=Helvetica;fontSize=19;fontColor=#758496;" parent="Tib5MzPci9CGnLbOdRJG-43" vertex="1">
          <mxGeometry width="170" height="20" as="geometry" />
        </mxCell>
        <mxCell id="Tib5MzPci9CGnLbOdRJG-45" value="Paul Stoopack, MD" style="text;html=1;strokeColor=none;fillColor=none;align=left;verticalAlign=middle;whiteSpace=wrap;rounded=0;fontFamily=Helvetica;fontSize=17;fontStyle=1" parent="Tib5MzPci9CGnLbOdRJG-43" vertex="1">
          <mxGeometry x="230" width="170" height="20" as="geometry" />
        </mxCell>
        <mxCell id="Tib5MzPci9CGnLbOdRJG-46" value="" style="shape=image;verticalLabelPosition=bottom;verticalAlign=top;aspect=fixed;imageAspect=0;image=data:image/png,iVBORw0KGgoAAAANSUhEUgAAABEAAAAOCAYAAADJ7fe0AAAA60lEQVQ4Ea3TsUoDQRDG8XsM2zxGWh/hXsEyZcoQrjHYWKRKlZDKSq6wCNjEzkIE08XKYJU0QooUSwjyk8udcB6eELmFhR2Y/c833+xGGljRbMpZj+jU3af7lCuI4lMvl/OHbBBdDv6hogC1bwkZxIF0cjqo85ADsoaiixHLwOqRdllq3XlAuia805kU7Rw9SRi/EdZ0r+pVnU9ZHVje08qKfHtSNja+Y7tndlOZWJ/eM2HHeFQq8hskG3NryMuOzYI4yeP5B9vXPP7xFOogx6SE6wXhE3vmaSG/6tOfkGpyXdwopJFn38D/8wUzf7n47vDmgAAAAABJRU5ErkJggg==;" parent="Tib5MzPci9CGnLbOdRJG-43" vertex="1">
          <mxGeometry x="406.5" y="3" width="17" height="14" as="geometry" />
        </mxCell>
        <mxCell id="Tib5MzPci9CGnLbOdRJG-47" value="" style="shape=image;verticalLabelPosition=bottom;labelBackgroundColor=#ffffff;verticalAlign=top;aspect=fixed;imageAspect=0;image=data:image/png,iVBORw0KGgoAAAANSUhEUgAAACAAAAAkCAYAAADo6zjiAAABsklEQVRYCe2Xv2vCUBDH82dk7ei/4dixo2tHR0fJIERE6OSQyUXEsWNGxalLQHCwbiIugoMiDpnCp8TkJTHG/GjUR6EBuWcC9/3c5b27i4LkS5GsTzEAB1YWNAyoaKA0QdGgakDfgoNTPJzcAPYaGh1f1BVO+KkdGK2LQeQCsBdQFREnCF/AaKAv8kNkA+yglldcwGnwucsHkQkwHian+yJqIRyx6hDsHAzpACeoR5xmicafm6dsgnSA+e+iFyDNeUmA7aQcwNvkrwMg+xUgfRMCco+hu4dkFyKXQW4p9k+S1GYUnGaZ7TiAuPMivRTfWSzJ3U2Awwb6A6i2wnJc6cHIglWsydgnmFmg90D1m5fagvcBmJsk2fDeNYANfSMUFY2ljH0x4PtGb74E2EOzfV/xALwN430YuViFAA58PEpczBRtmMUG1wBgZT4ociHu21dTxO5ZD8ABvejcF3McpDrrvgZfkSx4AMtw9+Z2lCWU8lxfhlk4A2ynz0m/CK42jQOUHL2E47w2Oqp5GfgHkL0HOEL9icfQPMY2ofv3PHB0H3saXrrXX89eHQiBnr6SDvADViyz+h+AoE8AAAAASUVORK5CYII=;" parent="Tib5MzPci9CGnLbOdRJG-43" vertex="1">
          <mxGeometry x="382.22" width="17.78" height="20" as="geometry" />
        </mxCell>
        <mxCell id="Tib5MzPci9CGnLbOdRJG-48" value="" style="group" parent="Tib5MzPci9CGnLbOdRJG-26" vertex="1" connectable="0">
          <mxGeometry x="30" y="230" width="423.5" height="17" as="geometry" />
        </mxCell>
        <mxCell id="Tib5MzPci9CGnLbOdRJG-49" value="Co Medical Director" style="text;html=1;strokeColor=none;fillColor=none;align=left;verticalAlign=middle;whiteSpace=wrap;rounded=0;fontFamily=Helvetica;fontSize=19;fontColor=#758496;" parent="Tib5MzPci9CGnLbOdRJG-48" vertex="1">
          <mxGeometry width="170" height="20" as="geometry" />
        </mxCell>
        <mxCell id="Tib5MzPci9CGnLbOdRJG-50" value="Wayne Siegel" style="text;html=1;strokeColor=none;fillColor=none;align=left;verticalAlign=middle;whiteSpace=wrap;rounded=0;fontFamily=Helvetica;fontSize=17;fontStyle=1" parent="Tib5MzPci9CGnLbOdRJG-48" vertex="1">
          <mxGeometry x="230" width="170" height="20" as="geometry" />
        </mxCell>
        <mxCell id="Tib5MzPci9CGnLbOdRJG-51" value="" style="shape=image;verticalLabelPosition=bottom;verticalAlign=top;aspect=fixed;imageAspect=0;image=data:image/png,iVBORw0KGgoAAAANSUhEUgAAABEAAAAOCAYAAADJ7fe0AAAA60lEQVQ4Ea3TsUoDQRDG8XsM2zxGWh/hXsEyZcoQrjHYWKRKlZDKSq6wCNjEzkIE08XKYJU0QooUSwjyk8udcB6eELmFhR2Y/c833+xGGljRbMpZj+jU3af7lCuI4lMvl/OHbBBdDv6hogC1bwkZxIF0cjqo85ADsoaiixHLwOqRdllq3XlAuia805kU7Rw9SRi/EdZ0r+pVnU9ZHVje08qKfHtSNja+Y7tndlOZWJ/eM2HHeFQq8hskG3NryMuOzYI4yeP5B9vXPP7xFOogx6SE6wXhE3vmaSG/6tOfkGpyXdwopJFn38D/8wUzf7n47vDmgAAAAABJRU5ErkJggg==;" parent="Tib5MzPci9CGnLbOdRJG-48" vertex="1">
          <mxGeometry x="406.5" y="3" width="17" height="14" as="geometry" />
        </mxCell>
        <mxCell id="Tib5MzPci9CGnLbOdRJG-52" value="" style="shape=image;verticalLabelPosition=bottom;labelBackgroundColor=#ffffff;verticalAlign=top;aspect=fixed;imageAspect=0;image=data:image/png,iVBORw0KGgoAAAANSUhEUgAAACAAAAAkCAYAAADo6zjiAAABsklEQVRYCe2Xv2vCUBDH82dk7ei/4dixo2tHR0fJIERE6OSQyUXEsWNGxalLQHCwbiIugoMiDpnCp8TkJTHG/GjUR6EBuWcC9/3c5b27i4LkS5GsTzEAB1YWNAyoaKA0QdGgakDfgoNTPJzcAPYaGh1f1BVO+KkdGK2LQeQCsBdQFREnCF/AaKAv8kNkA+yglldcwGnwucsHkQkwHian+yJqIRyx6hDsHAzpACeoR5xmicafm6dsgnSA+e+iFyDNeUmA7aQcwNvkrwMg+xUgfRMCco+hu4dkFyKXQW4p9k+S1GYUnGaZ7TiAuPMivRTfWSzJ3U2Awwb6A6i2wnJc6cHIglWsydgnmFmg90D1m5fagvcBmJsk2fDeNYANfSMUFY2ljH0x4PtGb74E2EOzfV/xALwN430YuViFAA58PEpczBRtmMUG1wBgZT4ociHu21dTxO5ZD8ABvejcF3McpDrrvgZfkSx4AMtw9+Z2lCWU8lxfhlk4A2ynz0m/CK42jQOUHL2E47w2Oqp5GfgHkL0HOEL9icfQPMY2ofv3PHB0H3saXrrXX89eHQiBnr6SDvADViyz+h+AoE8AAAAASUVORK5CYII=;" parent="Tib5MzPci9CGnLbOdRJG-48" vertex="1">
          <mxGeometry x="382.22" width="17.78" height="20" as="geometry" />
        </mxCell>
        <mxCell id="Tib5MzPci9CGnLbOdRJG-53" value="" style="group" parent="Tib5MzPci9CGnLbOdRJG-26" vertex="1" connectable="0">
          <mxGeometry x="30" y="270" width="423.5" height="17" as="geometry" />
        </mxCell>
        <mxCell id="Tib5MzPci9CGnLbOdRJG-54" value="Co Medical Director" style="text;html=1;strokeColor=none;fillColor=none;align=left;verticalAlign=middle;whiteSpace=wrap;rounded=0;fontFamily=Helvetica;fontSize=19;fontColor=#758496;" parent="Tib5MzPci9CGnLbOdRJG-53" vertex="1">
          <mxGeometry width="170" height="20" as="geometry" />
        </mxCell>
        <mxCell id="Tib5MzPci9CGnLbOdRJG-55" value="Peter Caride, MD" style="text;html=1;strokeColor=none;fillColor=none;align=left;verticalAlign=middle;whiteSpace=wrap;rounded=0;fontFamily=Helvetica;fontSize=17;fontStyle=1" parent="Tib5MzPci9CGnLbOdRJG-53" vertex="1">
          <mxGeometry x="230" width="170" height="20" as="geometry" />
        </mxCell>
        <mxCell id="Tib5MzPci9CGnLbOdRJG-56" value="" style="shape=image;verticalLabelPosition=bottom;verticalAlign=top;aspect=fixed;imageAspect=0;image=data:image/png,iVBORw0KGgoAAAANSUhEUgAAABEAAAAOCAYAAADJ7fe0AAAA60lEQVQ4Ea3TsUoDQRDG8XsM2zxGWh/hXsEyZcoQrjHYWKRKlZDKSq6wCNjEzkIE08XKYJU0QooUSwjyk8udcB6eELmFhR2Y/c833+xGGljRbMpZj+jU3af7lCuI4lMvl/OHbBBdDv6hogC1bwkZxIF0cjqo85ADsoaiixHLwOqRdllq3XlAuia805kU7Rw9SRi/EdZ0r+pVnU9ZHVje08qKfHtSNja+Y7tndlOZWJ/eM2HHeFQq8hskG3NryMuOzYI4yeP5B9vXPP7xFOogx6SE6wXhE3vmaSG/6tOfkGpyXdwopJFn38D/8wUzf7n47vDmgAAAAABJRU5ErkJggg==;" parent="Tib5MzPci9CGnLbOdRJG-53" vertex="1">
          <mxGeometry x="406.5" y="3" width="17" height="14" as="geometry" />
        </mxCell>
        <mxCell id="Tib5MzPci9CGnLbOdRJG-57" value="" style="shape=image;verticalLabelPosition=bottom;labelBackgroundColor=#ffffff;verticalAlign=top;aspect=fixed;imageAspect=0;image=data:image/png,iVBORw0KGgoAAAANSUhEUgAAACAAAAAkCAYAAADo6zjiAAABsklEQVRYCe2Xv2vCUBDH82dk7ei/4dixo2tHR0fJIERE6OSQyUXEsWNGxalLQHCwbiIugoMiDpnCp8TkJTHG/GjUR6EBuWcC9/3c5b27i4LkS5GsTzEAB1YWNAyoaKA0QdGgakDfgoNTPJzcAPYaGh1f1BVO+KkdGK2LQeQCsBdQFREnCF/AaKAv8kNkA+yglldcwGnwucsHkQkwHian+yJqIRyx6hDsHAzpACeoR5xmicafm6dsgnSA+e+iFyDNeUmA7aQcwNvkrwMg+xUgfRMCco+hu4dkFyKXQW4p9k+S1GYUnGaZ7TiAuPMivRTfWSzJ3U2Awwb6A6i2wnJc6cHIglWsydgnmFmg90D1m5fagvcBmJsk2fDeNYANfSMUFY2ljH0x4PtGb74E2EOzfV/xALwN430YuViFAA58PEpczBRtmMUG1wBgZT4ociHu21dTxO5ZD8ABvejcF3McpDrrvgZfkSx4AMtw9+Z2lCWU8lxfhlk4A2ynz0m/CK42jQOUHL2E47w2Oqp5GfgHkL0HOEL9icfQPMY2ofv3PHB0H3saXrrXX89eHQiBnr6SDvADViyz+h+AoE8AAAAASUVORK5CYII=;" parent="Tib5MzPci9CGnLbOdRJG-53" vertex="1">
          <mxGeometry x="382.22" width="17.78" height="20" as="geometry" />
        </mxCell>
        <mxCell id="Tib5MzPci9CGnLbOdRJG-58" value="Board Members" style="text;html=1;strokeColor=none;fillColor=none;align=left;verticalAlign=middle;whiteSpace=wrap;rounded=0;fontFamily=Helvetica;fontSize=22;fontColor=#330000;" parent="Tib5MzPci9CGnLbOdRJG-26" vertex="1">
          <mxGeometry x="10" y="300" width="190" height="20" as="geometry" />
        </mxCell>
        <mxCell id="Tib5MzPci9CGnLbOdRJG-59" value="" style="group" parent="Tib5MzPci9CGnLbOdRJG-26" vertex="1" connectable="0">
          <mxGeometry x="30" y="327" width="423.5" height="17" as="geometry" />
        </mxCell>
        <mxCell id="Tib5MzPci9CGnLbOdRJG-60" value="Co Treasurer:" style="text;html=1;strokeColor=none;fillColor=none;align=left;verticalAlign=middle;whiteSpace=wrap;rounded=0;fontFamily=Helvetica;fontSize=19;fontColor=#758496;" parent="Tib5MzPci9CGnLbOdRJG-59" vertex="1">
          <mxGeometry width="170" height="20" as="geometry" />
        </mxCell>
        <mxCell id="Tib5MzPci9CGnLbOdRJG-61" value="Sharon Hohlfeld" style="text;html=1;strokeColor=none;fillColor=none;align=left;verticalAlign=middle;whiteSpace=wrap;rounded=0;fontFamily=Helvetica;fontSize=17;fontStyle=1" parent="Tib5MzPci9CGnLbOdRJG-59" vertex="1">
          <mxGeometry x="230" width="170" height="20" as="geometry" />
        </mxCell>
        <mxCell id="Tib5MzPci9CGnLbOdRJG-62" value="" style="shape=image;verticalLabelPosition=bottom;verticalAlign=top;aspect=fixed;imageAspect=0;image=data:image/png,iVBORw0KGgoAAAANSUhEUgAAABEAAAAOCAYAAADJ7fe0AAAA60lEQVQ4Ea3TsUoDQRDG8XsM2zxGWh/hXsEyZcoQrjHYWKRKlZDKSq6wCNjEzkIE08XKYJU0QooUSwjyk8udcB6eELmFhR2Y/c833+xGGljRbMpZj+jU3af7lCuI4lMvl/OHbBBdDv6hogC1bwkZxIF0cjqo85ADsoaiixHLwOqRdllq3XlAuia805kU7Rw9SRi/EdZ0r+pVnU9ZHVje08qKfHtSNja+Y7tndlOZWJ/eM2HHeFQq8hskG3NryMuOzYI4yeP5B9vXPP7xFOogx6SE6wXhE3vmaSG/6tOfkGpyXdwopJFn38D/8wUzf7n47vDmgAAAAABJRU5ErkJggg==;" parent="Tib5MzPci9CGnLbOdRJG-59" vertex="1">
          <mxGeometry x="406.5" y="3" width="17" height="14" as="geometry" />
        </mxCell>
        <mxCell id="Tib5MzPci9CGnLbOdRJG-63" value="" style="shape=image;verticalLabelPosition=bottom;labelBackgroundColor=#ffffff;verticalAlign=top;aspect=fixed;imageAspect=0;image=data:image/png,iVBORw0KGgoAAAANSUhEUgAAACAAAAAkCAYAAADo6zjiAAABsklEQVRYCe2Xv2vCUBDH82dk7ei/4dixo2tHR0fJIERE6OSQyUXEsWNGxalLQHCwbiIugoMiDpnCp8TkJTHG/GjUR6EBuWcC9/3c5b27i4LkS5GsTzEAB1YWNAyoaKA0QdGgakDfgoNTPJzcAPYaGh1f1BVO+KkdGK2LQeQCsBdQFREnCF/AaKAv8kNkA+yglldcwGnwucsHkQkwHian+yJqIRyx6hDsHAzpACeoR5xmicafm6dsgnSA+e+iFyDNeUmA7aQcwNvkrwMg+xUgfRMCco+hu4dkFyKXQW4p9k+S1GYUnGaZ7TiAuPMivRTfWSzJ3U2Awwb6A6i2wnJc6cHIglWsydgnmFmg90D1m5fagvcBmJsk2fDeNYANfSMUFY2ljH0x4PtGb74E2EOzfV/xALwN430YuViFAA58PEpczBRtmMUG1wBgZT4ociHu21dTxO5ZD8ABvejcF3McpDrrvgZfkSx4AMtw9+Z2lCWU8lxfhlk4A2ynz0m/CK42jQOUHL2E47w2Oqp5GfgHkL0HOEL9icfQPMY2ofv3PHB0H3saXrrXX89eHQiBnr6SDvADViyz+h+AoE8AAAAASUVORK5CYII=;" parent="Tib5MzPci9CGnLbOdRJG-59" vertex="1">
          <mxGeometry x="382.22" width="17.78" height="20" as="geometry" />
        </mxCell>
        <mxCell id="Tib5MzPci9CGnLbOdRJG-64" value="" style="group" parent="Tib5MzPci9CGnLbOdRJG-26" vertex="1" connectable="0">
          <mxGeometry x="30" y="360" width="423.5" height="17" as="geometry" />
        </mxCell>
        <mxCell id="Tib5MzPci9CGnLbOdRJG-65" value="Treasurer:" style="text;html=1;strokeColor=none;fillColor=none;align=left;verticalAlign=middle;whiteSpace=wrap;rounded=0;fontFamily=Helvetica;fontSize=19;fontColor=#758496;" parent="Tib5MzPci9CGnLbOdRJG-64" vertex="1">
          <mxGeometry width="170" height="20" as="geometry" />
        </mxCell>
        <mxCell id="Tib5MzPci9CGnLbOdRJG-66" value="Tara Hamburger" style="text;html=1;strokeColor=none;fillColor=none;align=left;verticalAlign=middle;whiteSpace=wrap;rounded=0;fontFamily=Helvetica;fontSize=17;fontStyle=1" parent="Tib5MzPci9CGnLbOdRJG-64" vertex="1">
          <mxGeometry x="230" width="170" height="20" as="geometry" />
        </mxCell>
        <mxCell id="Tib5MzPci9CGnLbOdRJG-67" value="" style="shape=image;verticalLabelPosition=bottom;verticalAlign=top;aspect=fixed;imageAspect=0;image=data:image/png,iVBORw0KGgoAAAANSUhEUgAAABEAAAAOCAYAAADJ7fe0AAAA60lEQVQ4Ea3TsUoDQRDG8XsM2zxGWh/hXsEyZcoQrjHYWKRKlZDKSq6wCNjEzkIE08XKYJU0QooUSwjyk8udcB6eELmFhR2Y/c833+xGGljRbMpZj+jU3af7lCuI4lMvl/OHbBBdDv6hogC1bwkZxIF0cjqo85ADsoaiixHLwOqRdllq3XlAuia805kU7Rw9SRi/EdZ0r+pVnU9ZHVje08qKfHtSNja+Y7tndlOZWJ/eM2HHeFQq8hskG3NryMuOzYI4yeP5B9vXPP7xFOogx6SE6wXhE3vmaSG/6tOfkGpyXdwopJFn38D/8wUzf7n47vDmgAAAAABJRU5ErkJggg==;" parent="Tib5MzPci9CGnLbOdRJG-64" vertex="1">
          <mxGeometry x="406.5" y="3" width="17" height="14" as="geometry" />
        </mxCell>
        <mxCell id="Tib5MzPci9CGnLbOdRJG-68" value="" style="shape=image;verticalLabelPosition=bottom;labelBackgroundColor=#ffffff;verticalAlign=top;aspect=fixed;imageAspect=0;image=data:image/png,iVBORw0KGgoAAAANSUhEUgAAACAAAAAkCAYAAADo6zjiAAABsklEQVRYCe2Xv2vCUBDH82dk7ei/4dixo2tHR0fJIERE6OSQyUXEsWNGxalLQHCwbiIugoMiDpnCp8TkJTHG/GjUR6EBuWcC9/3c5b27i4LkS5GsTzEAB1YWNAyoaKA0QdGgakDfgoNTPJzcAPYaGh1f1BVO+KkdGK2LQeQCsBdQFREnCF/AaKAv8kNkA+yglldcwGnwucsHkQkwHian+yJqIRyx6hDsHAzpACeoR5xmicafm6dsgnSA+e+iFyDNeUmA7aQcwNvkrwMg+xUgfRMCco+hu4dkFyKXQW4p9k+S1GYUnGaZ7TiAuPMivRTfWSzJ3U2Awwb6A6i2wnJc6cHIglWsydgnmFmg90D1m5fagvcBmJsk2fDeNYANfSMUFY2ljH0x4PtGb74E2EOzfV/xALwN430YuViFAA58PEpczBRtmMUG1wBgZT4ociHu21dTxO5ZD8ABvejcF3McpDrrvgZfkSx4AMtw9+Z2lCWU8lxfhlk4A2ynz0m/CK42jQOUHL2E47w2Oqp5GfgHkL0HOEL9icfQPMY2ofv3PHB0H3saXrrXX89eHQiBnr6SDvADViyz+h+AoE8AAAAASUVORK5CYII=;" parent="Tib5MzPci9CGnLbOdRJG-64" vertex="1">
          <mxGeometry x="382.22" width="17.78" height="20" as="geometry" />
        </mxCell>
        <mxCell id="Tib5MzPci9CGnLbOdRJG-69" value="" style="group" parent="Tib5MzPci9CGnLbOdRJG-1" vertex="1" connectable="0">
          <mxGeometry x="600" y="-930" width="485" height="490" as="geometry" />
        </mxCell>
        <mxCell id="Tib5MzPci9CGnLbOdRJG-70" value="" style="rounded=0;whiteSpace=wrap;html=1;fontFamily=Helvetica;fillColor=none;" parent="Tib5MzPci9CGnLbOdRJG-69" vertex="1">
          <mxGeometry width="470" height="64" as="geometry" />
        </mxCell>
        <mxCell id="Tib5MzPci9CGnLbOdRJG-71" value="" style="rounded=0;whiteSpace=wrap;html=1;fillColor=none;fontFamily=Helvetica;" parent="Tib5MzPci9CGnLbOdRJG-69" vertex="1">
          <mxGeometry y="64" width="470" height="426" as="geometry" />
        </mxCell>
        <mxCell id="Tib5MzPci9CGnLbOdRJG-72" value="" style="shape=image;verticalLabelPosition=bottom;verticalAlign=top;aspect=fixed;imageAspect=0;image=data:image/png,iVBORw0KGgoAAAANSUhEUgAAACEAAAAXCAYAAACFxybfAAACTElEQVRIDdWW0WvaQBzH/YN9yUOQhYZViSVSutIM0jEfovQhUIst4oOQPhQRGUipMGV0tApKKxtSECFCQ/mOy12SSxpdhDBcQHJeLnef+/5+v+8lgx24MjvAgP8Ewh6iUpCRFb1fHqr1jFcA9o8mlA9eP3cv1NC3k2u8WQl7iPI+N7lYxGnvxZ193juD6IPxY1h730wMsh4iCpAroXK3BOBgaukQNgF4zxKCZGaWxklNdmGiDyDUn9NRH68ArDBq6JHxMrJ7JUh7MWqIMhTrN4Ahyh4Yu9N+GrJEEGqbKLBC3yy9BzhuYUTi/3SNj5GFSB6lBKGh9YtspvYOQDi5weyNZGg0eQNV0oX4eRlKRNG4xZwAEIbvNUi5YOGgklJTQoYXjkFdh6RoOGrew63A2TecWxO3/frUgRaqJAqVkhIysiQxH0heBNfioQWV7V780sHUIZJMUD/Jh8KWHgRLOOHgK8qmiaOD8EKu/AUTXWIhb0sMLj75IKlD8LGObfulDMx7ppsn/x7CVawIrU1tneTJeTexTxjo2sDoivhAjFnF1H+sEtw4qRpUj2dW0tUEsG+h+f5Bc4yZVRFqtQZNJRlNIRbDa5Q/x5gTt9DfQMT6hGUyc0zVQKWqu6VOwxSC8Go8D6Xx6J6Q9PEam04IIl48MggH9w0tdN6EINiojbdZxwgZ1SYFxEONjt3iOF9/ikawFnfrXdGHOmY27jicmpGJYv4mhiDv2uMbnCrUIwTlDK3xEtO24ZaicNjEYIsPGZ5lKwj+xTTbOwHxB846o1NlRbbAAAAAAElFTkSuQmCC;" parent="Tib5MzPci9CGnLbOdRJG-69" vertex="1">
          <mxGeometry x="20" y="20.5" width="33" height="23" as="geometry" />
        </mxCell>
        <mxCell id="Tib5MzPci9CGnLbOdRJG-73" value="&lt;span style=&quot;font-weight: normal&quot;&gt;Services&lt;/span&gt;" style="text;strokeColor=none;fillColor=none;html=1;fontSize=24;fontStyle=1;verticalAlign=middle;align=center;fontFamily=Helvetica;fontColor=#758496;" parent="Tib5MzPci9CGnLbOdRJG-69" vertex="1">
          <mxGeometry x="53" y="12" width="107" height="40" as="geometry" />
        </mxCell>
        <mxCell id="Tib5MzPci9CGnLbOdRJG-74" value="Service Exp Date:" style="text;html=1;strokeColor=none;fillColor=none;align=left;verticalAlign=middle;whiteSpace=wrap;rounded=0;fontFamily=Helvetica;fontSize=19;fontColor=#758496;" parent="Tib5MzPci9CGnLbOdRJG-69" vertex="1">
          <mxGeometry x="30" y="470" width="160" height="20" as="geometry" />
        </mxCell>
        <mxCell id="Tib5MzPci9CGnLbOdRJG-75" value="9/30/2027" style="text;html=1;strokeColor=none;fillColor=none;align=center;verticalAlign=middle;whiteSpace=wrap;rounded=0;fontFamily=Helvetica;fontSize=18;fontStyle=1" parent="Tib5MzPci9CGnLbOdRJG-69" vertex="1">
          <mxGeometry x="190" y="470" width="90" height="20" as="geometry" />
        </mxCell>
        <mxCell id="Tib5MzPci9CGnLbOdRJG-76" value="" style="group" parent="Tib5MzPci9CGnLbOdRJG-69" vertex="1" connectable="0">
          <mxGeometry x="20" y="80" width="200" height="20" as="geometry" />
        </mxCell>
        <mxCell id="Tib5MzPci9CGnLbOdRJG-77" value="Human Resources" style="text;html=1;strokeColor=none;fillColor=none;align=left;verticalAlign=middle;whiteSpace=wrap;rounded=0;fontFamily=Helvetica;fontSize=17;" parent="Tib5MzPci9CGnLbOdRJG-76" vertex="1">
          <mxGeometry x="30" width="170" height="20" as="geometry" />
        </mxCell>
        <mxCell id="Tib5MzPci9CGnLbOdRJG-78" value="" style="shape=image;verticalLabelPosition=bottom;verticalAlign=top;aspect=fixed;imageAspect=0;image=data:image/png,iVBORw0KGgoAAAANSUhEUgAAABMAAAAUCAYAAABvVQZ0AAABqklEQVQ4Ea2UP2vCQBjG7+N0y+Q3qNNNTk6ubpLJD1AXcSgIHcQPUBSjSBQcAg7iEDoFh1YElxKpg7agaekFCk+53KVJzkShbSCQe+99f3neP3cEFx528HB883A8+Bc8AZLmsVuaaIyKyHXyuEq8FHR0i/5ymxamwPYPaA1pBOgWURhUUZvWURmUQLsRPDdsw94nmZEy10BZqggc3fS02Ev8hzr6bgQUsI0pQRQV+znaPfPl2lVZBh39jXAkwBZjk6dGUbbTa5HFdG0dWicPzTSxA0DYoi4M4ymOWVGq/d0D++LGV1hjIaS28EFmE17UAlorNSJjLWtLLQeMu6zauOa1nsxBmvyj18ZTRmzCHGsST80N1D2i1eOC7kCCDk7m4i8ykn0mEGKRAN1j7YU+PkR2uoRZjtzxsJ7r0IwbWLJDwUYCZECdGsfiykJYqOzDQdOQg2nUMeNDeQEExJSd1Mxz0PgBllCQg6yZp4pEOrGapXYzDgzmKAukdDNzziQwWxHXpczZ2RPg+2DpR1T0RT0BgfX/zqYoY7xrf7s1JA//dp+FQAC/vWm/AUVO97xVB2fNAAAAAElFTkSuQmCC;" parent="Tib5MzPci9CGnLbOdRJG-76" vertex="1">
          <mxGeometry width="19" height="20" as="geometry" />
        </mxCell>
        <mxCell id="Tib5MzPci9CGnLbOdRJG-79" value="" style="group" parent="Tib5MzPci9CGnLbOdRJG-69" vertex="1" connectable="0">
          <mxGeometry x="20" y="160" width="380" height="20" as="geometry" />
        </mxCell>
        <mxCell id="Tib5MzPci9CGnLbOdRJG-80" value="Finance" style="text;html=1;strokeColor=none;fillColor=none;align=left;verticalAlign=middle;whiteSpace=wrap;rounded=0;fontFamily=Helvetica;fontSize=17;" parent="Tib5MzPci9CGnLbOdRJG-79" vertex="1">
          <mxGeometry x="30" width="170" height="20" as="geometry" />
        </mxCell>
        <mxCell id="Tib5MzPci9CGnLbOdRJG-81" value="" style="shape=image;verticalLabelPosition=bottom;verticalAlign=top;aspect=fixed;imageAspect=0;image=data:image/png,iVBORw0KGgoAAAANSUhEUgAAABMAAAAUCAYAAABvVQZ0AAABqklEQVQ4Ea2UP2vCQBjG7+N0y+Q3qNNNTk6ubpLJD1AXcSgIHcQPUBSjSBQcAg7iEDoFh1YElxKpg7agaekFCk+53KVJzkShbSCQe+99f3neP3cEFx528HB883A8+Bc8AZLmsVuaaIyKyHXyuEq8FHR0i/5ymxamwPYPaA1pBOgWURhUUZvWURmUQLsRPDdsw94nmZEy10BZqggc3fS02Ev8hzr6bgQUsI0pQRQV+znaPfPl2lVZBh39jXAkwBZjk6dGUbbTa5HFdG0dWicPzTSxA0DYoi4M4ymOWVGq/d0D++LGV1hjIaS28EFmE17UAlorNSJjLWtLLQeMu6zauOa1nsxBmvyj18ZTRmzCHGsST80N1D2i1eOC7kCCDk7m4i8ykn0mEGKRAN1j7YU+PkR2uoRZjtzxsJ7r0IwbWLJDwUYCZECdGsfiykJYqOzDQdOQg2nUMeNDeQEExJSd1Mxz0PgBllCQg6yZp4pEOrGapXYzDgzmKAukdDNzziQwWxHXpczZ2RPg+2DpR1T0RT0BgfX/zqYoY7xrf7s1JA//dp+FQAC/vWm/AUVO97xVB2fNAAAAAElFTkSuQmCC;" parent="Tib5MzPci9CGnLbOdRJG-79" vertex="1">
          <mxGeometry width="19" height="20" as="geometry" />
        </mxCell>
        <mxCell id="Tib5MzPci9CGnLbOdRJG-82" value="Eff 9/1/2020&amp;nbsp; &amp;nbsp; &amp;nbsp;Exp: 10/31/2027" style="text;html=1;strokeColor=none;fillColor=none;align=left;verticalAlign=middle;whiteSpace=wrap;rounded=0;fontFamily=Helvetica;fontSize=15;fontColor=#758496;" parent="Tib5MzPci9CGnLbOdRJG-79" vertex="1">
          <mxGeometry x="120" width="260" height="20" as="geometry" />
        </mxCell>
        <mxCell id="Tib5MzPci9CGnLbOdRJG-83" value="" style="group" parent="Tib5MzPci9CGnLbOdRJG-69" vertex="1" connectable="0">
          <mxGeometry x="20" y="390" width="220" height="20" as="geometry" />
        </mxCell>
        <mxCell id="Tib5MzPci9CGnLbOdRJG-84" value="Information Technology" style="text;html=1;strokeColor=none;fillColor=none;align=left;verticalAlign=middle;whiteSpace=wrap;rounded=0;fontFamily=Helvetica;fontSize=17;" parent="Tib5MzPci9CGnLbOdRJG-83" vertex="1">
          <mxGeometry x="30" width="190" height="20" as="geometry" />
        </mxCell>
        <mxCell id="Tib5MzPci9CGnLbOdRJG-85" value="" style="shape=image;verticalLabelPosition=bottom;verticalAlign=top;aspect=fixed;imageAspect=0;image=data:image/png,iVBORw0KGgoAAAANSUhEUgAAABMAAAAUCAYAAABvVQZ0AAABqklEQVQ4Ea2UP2vCQBjG7+N0y+Q3qNNNTk6ubpLJD1AXcSgIHcQPUBSjSBQcAg7iEDoFh1YElxKpg7agaekFCk+53KVJzkShbSCQe+99f3neP3cEFx528HB883A8+Bc8AZLmsVuaaIyKyHXyuEq8FHR0i/5ymxamwPYPaA1pBOgWURhUUZvWURmUQLsRPDdsw94nmZEy10BZqggc3fS02Ev8hzr6bgQUsI0pQRQV+znaPfPl2lVZBh39jXAkwBZjk6dGUbbTa5HFdG0dWicPzTSxA0DYoi4M4ymOWVGq/d0D++LGV1hjIaS28EFmE17UAlorNSJjLWtLLQeMu6zauOa1nsxBmvyj18ZTRmzCHGsST80N1D2i1eOC7kCCDk7m4i8ykn0mEGKRAN1j7YU+PkR2uoRZjtzxsJ7r0IwbWLJDwUYCZECdGsfiykJYqOzDQdOQg2nUMeNDeQEExJSd1Mxz0PgBllCQg6yZp4pEOrGapXYzDgzmKAukdDNzziQwWxHXpczZ2RPg+2DpR1T0RT0BgfX/zqYoY7xrf7s1JA//dp+FQAC/vWm/AUVO97xVB2fNAAAAAElFTkSuQmCC;" parent="Tib5MzPci9CGnLbOdRJG-83" vertex="1">
          <mxGeometry width="19" height="20" as="geometry" />
        </mxCell>
        <mxCell id="Tib5MzPci9CGnLbOdRJG-86" value="" style="group" parent="Tib5MzPci9CGnLbOdRJG-69" vertex="1" connectable="0">
          <mxGeometry x="20" y="430" width="220" height="21" as="geometry" />
        </mxCell>
        <mxCell id="Tib5MzPci9CGnLbOdRJG-87" value="" style="shape=image;verticalLabelPosition=bottom;verticalAlign=top;aspect=fixed;imageAspect=0;image=data:image/png,iVBORw0KGgoAAAANSUhEUgAAABQAAAAVCAYAAABG1c6oAAABiUlEQVQ4Ea2VMWvCQBiG/VOdnTIFhA7ipL9AEIRs7rp0sUv9DZ0iCC5OLjplapaahp6StDatraGWA8NbPu+SXKrFFi4Qcrm899z3vffdpYQ/XHwbY7eJsdtyJGf0pd++x44NZtWwuDB+3CY86wqBE2J/YvARMInmWDbNHGLU4DUssJsu/EYdnqFM0BzgJSpSC8A9u4VflgNIzPjJKHigTFpuIWA5NAMmgS1hJvzh40lQPky03oeWyISggeiTwBBhm9IkWHjWeBX8MWwJaNtGDOAA5LOu6OxM8JmpY2zG9pFH5HEwvsdXpnvFU0cEw2acgBzrHvl2iZWbqRCP5MzVLtbS+CSaglVJa8IfhZk4cQfwqBp6UwI6WNJCVAZ4yyRAPtjAgqDuRMLke2F177CqGFiUr1HCs40HSecKkJoFaFqPSsS5PM2ypQD7Tv5dae3TdA7AesEWRYaoT1aowN4UeiLU7qH+VQY01yFZq3mnEFLzXhYFoPW0SWtK63mYQump7cRWoWn7P/+Ub7tXqg4pdsJpAAAAAElFTkSuQmCC;" parent="Tib5MzPci9CGnLbOdRJG-86" vertex="1">
          <mxGeometry width="20" height="21" as="geometry" />
        </mxCell>
        <mxCell id="Tib5MzPci9CGnLbOdRJG-88" value="Benefit Verification" style="text;html=1;strokeColor=none;fillColor=none;align=left;verticalAlign=middle;whiteSpace=wrap;rounded=0;fontFamily=Helvetica;fontSize=17;" parent="Tib5MzPci9CGnLbOdRJG-86" vertex="1">
          <mxGeometry x="30" width="190" height="20" as="geometry" />
        </mxCell>
        <mxCell id="Tib5MzPci9CGnLbOdRJG-89" value="Eff 9/1/2020&amp;nbsp; &amp;nbsp; &amp;nbsp;Exp:" style="text;html=1;strokeColor=none;fillColor=none;align=left;verticalAlign=middle;whiteSpace=wrap;rounded=0;fontFamily=Helvetica;fontSize=15;fontColor=#758496;" parent="Tib5MzPci9CGnLbOdRJG-69" vertex="1">
          <mxGeometry x="210" y="80" width="170" height="20" as="geometry" />
        </mxCell>
        <mxCell id="Tib5MzPci9CGnLbOdRJG-90" value="" style="shape=image;verticalLabelPosition=bottom;labelBackgroundColor=#ffffff;verticalAlign=top;aspect=fixed;imageAspect=0;image=data:image/png,iVBORw0KGgoAAAANSUhEUgAAACoAAAAiCAYAAAApkEs2AAAC2UlEQVRYCd1Xz2vaYBjuf+Jf0FvBizk5KHoQPKwXyxAPhsGop3pQPBR3GJWe9FDMYWQnB6UtJayMwdgOVnr4AgNBqJcitEhKGQqFCMIz8quJMTVfzCfFCeGL4U3e53veX8+3gSC/6SPImYBKfhexTQ4R7eJ2wZcEnMuPQb4U2HaD9o3RtQieM8FZIF1rLC+CPNB+MZgdFdDBRdlm0AVOZ9X5jCvj8i4YCBprX6DqHwFpJxCa+5SArkrjnt7GB+g9WpnF4Z5j1NxI9us9PQoKy8VAeyKSNAx62WyL6FIAoDVZCHRwUjAq2wuI77MCzhnm6kKg5Gi5sFvpUJdp+fK3+z+Ark3osS7FBKxLewKwqoavDm9Brgja2iXfQnlaXFALi8l6lfkIHUrg3e3tvQTFcuixUgHV3mMqSlYJVN/kkjJv8EtCe2jSNCQQizlsuRmN5lD8TKBMDTvl6seMEqNm1HQTeFHlhilqEuBLZX+Bkyqjkk8YE9EhblYLdHqDZircdEsLNzo53kCnEyiyhGapgPSzWE4gW2rhUqvQ8cRmdjrBSKvgby1UMgYT/Jmh9kffD0JoBXOD0U/4OQbmgT50UHsbD+XAmvH9Lx65qOdmHNkGgWJqVvWOoP7uBZ/RHMS+C6jaP8VeNFyoNEGSPDbCpdE+6kmobM9+c6vawZyufurgo8t3siihPzaCZzP69zcqLkNLBQVfE+CPCUZ6BXdRd1V47drOHOcdOZzdkJVCmo0JdIJ29QXqXU7oQDtDGwLoiX1KMIB6NeClABqMJA/Jc2iZhl652A9VPG6WV1ZM3QbLsHOwcot5ewp75HAzGsmcYqBVAOuGzxzo5g7qsjEUmI5Q9kA5RFINEFNjMhMlrHPUSoX0kdVLnd0SgFeXodKjPdFf1SzZrmKZA9QaAprVfcQ/mOJ4aaCmMN57w7b6LWaNNa4D1YtMO+Ks4ijiCtyr/LVn/au4p3f6D4rT3QdRveliAAAAAElFTkSuQmCC;" parent="Tib5MzPci9CGnLbOdRJG-69" vertex="1">
          <mxGeometry x="53" y="110" width="24.71" height="20" as="geometry" />
        </mxCell>
        <mxCell id="Tib5MzPci9CGnLbOdRJG-91" value="Candace Quigley" style="text;html=1;strokeColor=none;fillColor=none;align=left;verticalAlign=middle;whiteSpace=wrap;rounded=0;fontFamily=Helvetica;fontSize=17;" parent="Tib5MzPci9CGnLbOdRJG-69" vertex="1">
          <mxGeometry x="90" y="110" width="170" height="20" as="geometry" />
        </mxCell>
        <mxCell id="Tib5MzPci9CGnLbOdRJG-92" value="" style="shape=image;verticalLabelPosition=bottom;labelBackgroundColor=#ffffff;verticalAlign=top;aspect=fixed;imageAspect=0;image=data:image/png,iVBORw0KGgoAAAANSUhEUgAAACAAAAAkCAYAAADo6zjiAAABsklEQVRYCe2Xv2vCUBDH82dk7ei/4dixo2tHR0fJIERE6OSQyUXEsWNGxalLQHCwbiIugoMiDpnCp8TkJTHG/GjUR6EBuWcC9/3c5b27i4LkS5GsTzEAB1YWNAyoaKA0QdGgakDfgoNTPJzcAPYaGh1f1BVO+KkdGK2LQeQCsBdQFREnCF/AaKAv8kNkA+yglldcwGnwucsHkQkwHian+yJqIRyx6hDsHAzpACeoR5xmicafm6dsgnSA+e+iFyDNeUmA7aQcwNvkrwMg+xUgfRMCco+hu4dkFyKXQW4p9k+S1GYUnGaZ7TiAuPMivRTfWSzJ3U2Awwb6A6i2wnJc6cHIglWsydgnmFmg90D1m5fagvcBmJsk2fDeNYANfSMUFY2ljH0x4PtGb74E2EOzfV/xALwN430YuViFAA58PEpczBRtmMUG1wBgZT4ociHu21dTxO5ZD8ABvejcF3McpDrrvgZfkSx4AMtw9+Z2lCWU8lxfhlk4A2ynz0m/CK42jQOUHL2E47w2Oqp5GfgHkL0HOEL9icfQPMY2ofv3PHB0H3saXrrXX89eHQiBnr6SDvADViyz+h+AoE8AAAAASUVORK5CYII=;" parent="Tib5MzPci9CGnLbOdRJG-69" vertex="1">
          <mxGeometry x="228" y="110" width="17.78" height="20" as="geometry" />
        </mxCell>
        <mxCell id="Tib5MzPci9CGnLbOdRJG-93" value="" style="shape=image;verticalLabelPosition=bottom;verticalAlign=top;aspect=fixed;imageAspect=0;image=data:image/png,iVBORw0KGgoAAAANSUhEUgAAABEAAAAOCAYAAADJ7fe0AAAA60lEQVQ4Ea3TsUoDQRDG8XsM2zxGWh/hXsEyZcoQrjHYWKRKlZDKSq6wCNjEzkIE08XKYJU0QooUSwjyk8udcB6eELmFhR2Y/c833+xGGljRbMpZj+jU3af7lCuI4lMvl/OHbBBdDv6hogC1bwkZxIF0cjqo85ADsoaiixHLwOqRdllq3XlAuia805kU7Rw9SRi/EdZ0r+pVnU9ZHVje08qKfHtSNja+Y7tndlOZWJ/eM2HHeFQq8hskG3NryMuOzYI4yeP5B9vXPP7xFOogx6SE6wXhE3vmaSG/6tOfkGpyXdwopJFn38D/8wUzf7n47vDmgAAAAABJRU5ErkJggg==;" parent="Tib5MzPci9CGnLbOdRJG-69" vertex="1">
          <mxGeometry x="252.27999999999997" y="113" width="17" height="14" as="geometry" />
        </mxCell>
        <mxCell id="Tib5MzPci9CGnLbOdRJG-94" value="" style="shape=image;verticalLabelPosition=bottom;labelBackgroundColor=#ffffff;verticalAlign=top;aspect=fixed;imageAspect=0;image=data:image/png,iVBORw0KGgoAAAANSUhEUgAAACoAAAAiCAYAAAApkEs2AAAC2UlEQVRYCd1Xz2vaYBjuf+Jf0FvBizk5KHoQPKwXyxAPhsGop3pQPBR3GJWe9FDMYWQnB6UtJayMwdgOVnr4AgNBqJcitEhKGQqFCMIz8quJMTVfzCfFCeGL4U3e53veX8+3gSC/6SPImYBKfhexTQ4R7eJ2wZcEnMuPQb4U2HaD9o3RtQieM8FZIF1rLC+CPNB+MZgdFdDBRdlm0AVOZ9X5jCvj8i4YCBprX6DqHwFpJxCa+5SArkrjnt7GB+g9WpnF4Z5j1NxI9us9PQoKy8VAeyKSNAx62WyL6FIAoDVZCHRwUjAq2wuI77MCzhnm6kKg5Gi5sFvpUJdp+fK3+z+Ark3osS7FBKxLewKwqoavDm9Brgja2iXfQnlaXFALi8l6lfkIHUrg3e3tvQTFcuixUgHV3mMqSlYJVN/kkjJv8EtCe2jSNCQQizlsuRmN5lD8TKBMDTvl6seMEqNm1HQTeFHlhilqEuBLZX+Bkyqjkk8YE9EhblYLdHqDZircdEsLNzo53kCnEyiyhGapgPSzWE4gW2rhUqvQ8cRmdjrBSKvgby1UMgYT/Jmh9kffD0JoBXOD0U/4OQbmgT50UHsbD+XAmvH9Lx65qOdmHNkGgWJqVvWOoP7uBZ/RHMS+C6jaP8VeNFyoNEGSPDbCpdE+6kmobM9+c6vawZyufurgo8t3siihPzaCZzP69zcqLkNLBQVfE+CPCUZ6BXdRd1V47drOHOcdOZzdkJVCmo0JdIJ29QXqXU7oQDtDGwLoiX1KMIB6NeClABqMJA/Jc2iZhl652A9VPG6WV1ZM3QbLsHOwcot5ewp75HAzGsmcYqBVAOuGzxzo5g7qsjEUmI5Q9kA5RFINEFNjMhMlrHPUSoX0kdVLnd0SgFeXodKjPdFf1SzZrmKZA9QaAprVfcQ/mOJ4aaCmMN57w7b6LWaNNa4D1YtMO+Ks4ijiCtyr/LVn/au4p3f6D4rT3QdRveliAAAAAElFTkSuQmCC;" parent="Tib5MzPci9CGnLbOdRJG-69" vertex="1">
          <mxGeometry x="53.72000000000003" y="190" width="24.71" height="20" as="geometry" />
        </mxCell>
        <mxCell id="Tib5MzPci9CGnLbOdRJG-95" value="Colleen Reinert" style="text;html=1;strokeColor=none;fillColor=none;align=left;verticalAlign=middle;whiteSpace=wrap;rounded=0;fontFamily=Helvetica;fontSize=17;" parent="Tib5MzPci9CGnLbOdRJG-69" vertex="1">
          <mxGeometry x="90.72000000000003" y="190" width="170" height="20" as="geometry" />
        </mxCell>
        <mxCell id="Tib5MzPci9CGnLbOdRJG-96" value="" style="shape=image;verticalLabelPosition=bottom;labelBackgroundColor=#ffffff;verticalAlign=top;aspect=fixed;imageAspect=0;image=data:image/png,iVBORw0KGgoAAAANSUhEUgAAACAAAAAkCAYAAADo6zjiAAABsklEQVRYCe2Xv2vCUBDH82dk7ei/4dixo2tHR0fJIERE6OSQyUXEsWNGxalLQHCwbiIugoMiDpnCp8TkJTHG/GjUR6EBuWcC9/3c5b27i4LkS5GsTzEAB1YWNAyoaKA0QdGgakDfgoNTPJzcAPYaGh1f1BVO+KkdGK2LQeQCsBdQFREnCF/AaKAv8kNkA+yglldcwGnwucsHkQkwHian+yJqIRyx6hDsHAzpACeoR5xmicafm6dsgnSA+e+iFyDNeUmA7aQcwNvkrwMg+xUgfRMCco+hu4dkFyKXQW4p9k+S1GYUnGaZ7TiAuPMivRTfWSzJ3U2Awwb6A6i2wnJc6cHIglWsydgnmFmg90D1m5fagvcBmJsk2fDeNYANfSMUFY2ljH0x4PtGb74E2EOzfV/xALwN430YuViFAA58PEpczBRtmMUG1wBgZT4ociHu21dTxO5ZD8ABvejcF3McpDrrvgZfkSx4AMtw9+Z2lCWU8lxfhlk4A2ynz0m/CK42jQOUHL2E47w2Oqp5GfgHkL0HOEL9icfQPMY2ofv3PHB0H3saXrrXX89eHQiBnr6SDvADViyz+h+AoE8AAAAASUVORK5CYII=;" parent="Tib5MzPci9CGnLbOdRJG-69" vertex="1">
          <mxGeometry x="228.72000000000003" y="190" width="17.78" height="20" as="geometry" />
        </mxCell>
        <mxCell id="Tib5MzPci9CGnLbOdRJG-97" value="" style="shape=image;verticalLabelPosition=bottom;verticalAlign=top;aspect=fixed;imageAspect=0;image=data:image/png,iVBORw0KGgoAAAANSUhEUgAAABEAAAAOCAYAAADJ7fe0AAAA60lEQVQ4Ea3TsUoDQRDG8XsM2zxGWh/hXsEyZcoQrjHYWKRKlZDKSq6wCNjEzkIE08XKYJU0QooUSwjyk8udcB6eELmFhR2Y/c833+xGGljRbMpZj+jU3af7lCuI4lMvl/OHbBBdDv6hogC1bwkZxIF0cjqo85ADsoaiixHLwOqRdllq3XlAuia805kU7Rw9SRi/EdZ0r+pVnU9ZHVje08qKfHtSNja+Y7tndlOZWJ/eM2HHeFQq8hskG3NryMuOzYI4yeP5B9vXPP7xFOogx6SE6wXhE3vmaSG/6tOfkGpyXdwopJFn38D/8wUzf7n47vDmgAAAAABJRU5ErkJggg==;" parent="Tib5MzPci9CGnLbOdRJG-69" vertex="1">
          <mxGeometry x="253" y="193" width="17" height="14" as="geometry" />
        </mxCell>
        <mxCell id="Tib5MzPci9CGnLbOdRJG-98" value="" style="group" parent="Tib5MzPci9CGnLbOdRJG-69" vertex="1" connectable="0">
          <mxGeometry x="20" y="230" width="200" height="20" as="geometry" />
        </mxCell>
        <mxCell id="Tib5MzPci9CGnLbOdRJG-99" value="Payor Contracting" style="text;html=1;strokeColor=none;fillColor=none;align=left;verticalAlign=middle;whiteSpace=wrap;rounded=0;fontFamily=Helvetica;fontSize=17;" parent="Tib5MzPci9CGnLbOdRJG-98" vertex="1">
          <mxGeometry x="30" width="170" height="20" as="geometry" />
        </mxCell>
        <mxCell id="Tib5MzPci9CGnLbOdRJG-100" value="" style="shape=image;verticalLabelPosition=bottom;verticalAlign=top;aspect=fixed;imageAspect=0;image=data:image/png,iVBORw0KGgoAAAANSUhEUgAAABMAAAAUCAYAAABvVQZ0AAABqklEQVQ4Ea2UP2vCQBjG7+N0y+Q3qNNNTk6ubpLJD1AXcSgIHcQPUBSjSBQcAg7iEDoFh1YElxKpg7agaekFCk+53KVJzkShbSCQe+99f3neP3cEFx528HB883A8+Bc8AZLmsVuaaIyKyHXyuEq8FHR0i/5ymxamwPYPaA1pBOgWURhUUZvWURmUQLsRPDdsw94nmZEy10BZqggc3fS02Ev8hzr6bgQUsI0pQRQV+znaPfPl2lVZBh39jXAkwBZjk6dGUbbTa5HFdG0dWicPzTSxA0DYoi4M4ymOWVGq/d0D++LGV1hjIaS28EFmE17UAlorNSJjLWtLLQeMu6zauOa1nsxBmvyj18ZTRmzCHGsST80N1D2i1eOC7kCCDk7m4i8ykn0mEGKRAN1j7YU+PkR2uoRZjtzxsJ7r0IwbWLJDwUYCZECdGsfiykJYqOzDQdOQg2nUMeNDeQEExJSd1Mxz0PgBllCQg6yZp4pEOrGapXYzDgzmKAukdDNzziQwWxHXpczZ2RPg+2DpR1T0RT0BgfX/zqYoY7xrf7s1JA//dp+FQAC/vWm/AUVO97xVB2fNAAAAAElFTkSuQmCC;" parent="Tib5MzPci9CGnLbOdRJG-98" vertex="1">
          <mxGeometry width="19" height="20" as="geometry" />
        </mxCell>
        <mxCell id="Tib5MzPci9CGnLbOdRJG-101" value="Eff 9/1/2020&amp;nbsp; &amp;nbsp; &amp;nbsp;Exp:" style="text;html=1;strokeColor=none;fillColor=none;align=left;verticalAlign=middle;whiteSpace=wrap;rounded=0;fontFamily=Helvetica;fontSize=15;fontColor=#758496;" parent="Tib5MzPci9CGnLbOdRJG-69" vertex="1">
          <mxGeometry x="210" y="230" width="170" height="20" as="geometry" />
        </mxCell>
        <mxCell id="Tib5MzPci9CGnLbOdRJG-102" value="" style="group" parent="Tib5MzPci9CGnLbOdRJG-69" vertex="1" connectable="0">
          <mxGeometry x="20" y="270" width="200" height="20" as="geometry" />
        </mxCell>
        <mxCell id="Tib5MzPci9CGnLbOdRJG-103" value="Billing" style="text;html=1;strokeColor=none;fillColor=none;align=left;verticalAlign=middle;whiteSpace=wrap;rounded=0;fontFamily=Helvetica;fontSize=17;" parent="Tib5MzPci9CGnLbOdRJG-102" vertex="1">
          <mxGeometry x="30" width="170" height="20" as="geometry" />
        </mxCell>
        <mxCell id="Tib5MzPci9CGnLbOdRJG-104" value="" style="shape=image;verticalLabelPosition=bottom;verticalAlign=top;aspect=fixed;imageAspect=0;image=data:image/png,iVBORw0KGgoAAAANSUhEUgAAABMAAAAUCAYAAABvVQZ0AAABqklEQVQ4Ea2UP2vCQBjG7+N0y+Q3qNNNTk6ubpLJD1AXcSgIHcQPUBSjSBQcAg7iEDoFh1YElxKpg7agaekFCk+53KVJzkShbSCQe+99f3neP3cEFx528HB883A8+Bc8AZLmsVuaaIyKyHXyuEq8FHR0i/5ymxamwPYPaA1pBOgWURhUUZvWURmUQLsRPDdsw94nmZEy10BZqggc3fS02Ev8hzr6bgQUsI0pQRQV+znaPfPl2lVZBh39jXAkwBZjk6dGUbbTa5HFdG0dWicPzTSxA0DYoi4M4ymOWVGq/d0D++LGV1hjIaS28EFmE17UAlorNSJjLWtLLQeMu6zauOa1nsxBmvyj18ZTRmzCHGsST80N1D2i1eOC7kCCDk7m4i8ykn0mEGKRAN1j7YU+PkR2uoRZjtzxsJ7r0IwbWLJDwUYCZECdGsfiykJYqOzDQdOQg2nUMeNDeQEExJSd1Mxz0PgBllCQg6yZp4pEOrGapXYzDgzmKAukdDNzziQwWxHXpczZ2RPg+2DpR1T0RT0BgfX/zqYoY7xrf7s1JA//dp+FQAC/vWm/AUVO97xVB2fNAAAAAElFTkSuQmCC;" parent="Tib5MzPci9CGnLbOdRJG-102" vertex="1">
          <mxGeometry width="19" height="20" as="geometry" />
        </mxCell>
        <mxCell id="Tib5MzPci9CGnLbOdRJG-105" value="Eff 9/1/2020&amp;nbsp; &amp;nbsp; &amp;nbsp;Exp:10/31/2027" style="text;html=1;strokeColor=none;fillColor=none;align=left;verticalAlign=middle;whiteSpace=wrap;rounded=0;fontFamily=Helvetica;fontSize=15;fontColor=#758496;" parent="Tib5MzPci9CGnLbOdRJG-69" vertex="1">
          <mxGeometry x="120" y="270" width="260" height="20" as="geometry" />
        </mxCell>
        <mxCell id="Tib5MzPci9CGnLbOdRJG-106" value="" style="group" parent="Tib5MzPci9CGnLbOdRJG-69" vertex="1" connectable="0">
          <mxGeometry x="20" y="320" width="200" height="20" as="geometry" />
        </mxCell>
        <mxCell id="Tib5MzPci9CGnLbOdRJG-107" value="Operations" style="text;html=1;strokeColor=none;fillColor=none;align=left;verticalAlign=middle;whiteSpace=wrap;rounded=0;fontFamily=Helvetica;fontSize=17;" parent="Tib5MzPci9CGnLbOdRJG-106" vertex="1">
          <mxGeometry x="30" width="170" height="20" as="geometry" />
        </mxCell>
        <mxCell id="Tib5MzPci9CGnLbOdRJG-108" value="" style="shape=image;verticalLabelPosition=bottom;verticalAlign=top;aspect=fixed;imageAspect=0;image=data:image/png,iVBORw0KGgoAAAANSUhEUgAAABMAAAAUCAYAAABvVQZ0AAABqklEQVQ4Ea2UP2vCQBjG7+N0y+Q3qNNNTk6ubpLJD1AXcSgIHcQPUBSjSBQcAg7iEDoFh1YElxKpg7agaekFCk+53KVJzkShbSCQe+99f3neP3cEFx528HB883A8+Bc8AZLmsVuaaIyKyHXyuEq8FHR0i/5ymxamwPYPaA1pBOgWURhUUZvWURmUQLsRPDdsw94nmZEy10BZqggc3fS02Ev8hzr6bgQUsI0pQRQV+znaPfPl2lVZBh39jXAkwBZjk6dGUbbTa5HFdG0dWicPzTSxA0DYoi4M4ymOWVGq/d0D++LGV1hjIaS28EFmE17UAlorNSJjLWtLLQeMu6zauOa1nsxBmvyj18ZTRmzCHGsST80N1D2i1eOC7kCCDk7m4i8ykn0mEGKRAN1j7YU+PkR2uoRZjtzxsJ7r0IwbWLJDwUYCZECdGsfiykJYqOzDQdOQg2nUMeNDeQEExJSd1Mxz0PgBllCQg6yZp4pEOrGapXYzDgzmKAukdDNzziQwWxHXpczZ2RPg+2DpR1T0RT0BgfX/zqYoY7xrf7s1JA//dp+FQAC/vWm/AUVO97xVB2fNAAAAAElFTkSuQmCC;" parent="Tib5MzPci9CGnLbOdRJG-106" vertex="1">
          <mxGeometry width="19" height="20" as="geometry" />
        </mxCell>
        <mxCell id="Tib5MzPci9CGnLbOdRJG-109" value="Eff 10/16/2020&amp;nbsp; &amp;nbsp; &amp;nbsp;Exp:10/31/2027" style="text;html=1;strokeColor=none;fillColor=none;align=left;verticalAlign=middle;whiteSpace=wrap;rounded=0;fontFamily=Helvetica;fontSize=15;fontColor=#758496;" parent="Tib5MzPci9CGnLbOdRJG-69" vertex="1">
          <mxGeometry x="140" y="320" width="260" height="20" as="geometry" />
        </mxCell>
        <mxCell id="Tib5MzPci9CGnLbOdRJG-110" value="" style="shape=image;verticalLabelPosition=bottom;labelBackgroundColor=#ffffff;verticalAlign=top;aspect=fixed;imageAspect=0;image=data:image/png,iVBORw0KGgoAAAANSUhEUgAAACoAAAAiCAYAAAApkEs2AAAC2UlEQVRYCd1Xz2vaYBjuf+Jf0FvBizk5KHoQPKwXyxAPhsGop3pQPBR3GJWe9FDMYWQnB6UtJayMwdgOVnr4AgNBqJcitEhKGQqFCMIz8quJMTVfzCfFCeGL4U3e53veX8+3gSC/6SPImYBKfhexTQ4R7eJ2wZcEnMuPQb4U2HaD9o3RtQieM8FZIF1rLC+CPNB+MZgdFdDBRdlm0AVOZ9X5jCvj8i4YCBprX6DqHwFpJxCa+5SArkrjnt7GB+g9WpnF4Z5j1NxI9us9PQoKy8VAeyKSNAx62WyL6FIAoDVZCHRwUjAq2wuI77MCzhnm6kKg5Gi5sFvpUJdp+fK3+z+Ark3osS7FBKxLewKwqoavDm9Brgja2iXfQnlaXFALi8l6lfkIHUrg3e3tvQTFcuixUgHV3mMqSlYJVN/kkjJv8EtCe2jSNCQQizlsuRmN5lD8TKBMDTvl6seMEqNm1HQTeFHlhilqEuBLZX+Bkyqjkk8YE9EhblYLdHqDZircdEsLNzo53kCnEyiyhGapgPSzWE4gW2rhUqvQ8cRmdjrBSKvgby1UMgYT/Jmh9kffD0JoBXOD0U/4OQbmgT50UHsbD+XAmvH9Lx65qOdmHNkGgWJqVvWOoP7uBZ/RHMS+C6jaP8VeNFyoNEGSPDbCpdE+6kmobM9+c6vawZyufurgo8t3siihPzaCZzP69zcqLkNLBQVfE+CPCUZ6BXdRd1V47drOHOcdOZzdkJVCmo0JdIJ29QXqXU7oQDtDGwLoiX1KMIB6NeClABqMJA/Jc2iZhl652A9VPG6WV1ZM3QbLsHOwcot5ewp75HAzGsmcYqBVAOuGzxzo5g7qsjEUmI5Q9kA5RFINEFNjMhMlrHPUSoX0kdVLnd0SgFeXodKjPdFf1SzZrmKZA9QaAprVfcQ/mOJ4aaCmMN57w7b6LWaNNa4D1YtMO+Ks4ijiCtyr/LVn/au4p3f6D4rT3QdRveliAAAAAElFTkSuQmCC;" parent="Tib5MzPci9CGnLbOdRJG-69" vertex="1">
          <mxGeometry x="53" y="350" width="24.71" height="20" as="geometry" />
        </mxCell>
        <mxCell id="Tib5MzPci9CGnLbOdRJG-111" value="Andrew Castaldi" style="text;html=1;strokeColor=none;fillColor=none;align=left;verticalAlign=middle;whiteSpace=wrap;rounded=0;fontFamily=Helvetica;fontSize=17;" parent="Tib5MzPci9CGnLbOdRJG-69" vertex="1">
          <mxGeometry x="90" y="350" width="170" height="20" as="geometry" />
        </mxCell>
        <mxCell id="Tib5MzPci9CGnLbOdRJG-112" value="" style="shape=image;verticalLabelPosition=bottom;labelBackgroundColor=#ffffff;verticalAlign=top;aspect=fixed;imageAspect=0;image=data:image/png,iVBORw0KGgoAAAANSUhEUgAAACAAAAAkCAYAAADo6zjiAAABsklEQVRYCe2Xv2vCUBDH82dk7ei/4dixo2tHR0fJIERE6OSQyUXEsWNGxalLQHCwbiIugoMiDpnCp8TkJTHG/GjUR6EBuWcC9/3c5b27i4LkS5GsTzEAB1YWNAyoaKA0QdGgakDfgoNTPJzcAPYaGh1f1BVO+KkdGK2LQeQCsBdQFREnCF/AaKAv8kNkA+yglldcwGnwucsHkQkwHian+yJqIRyx6hDsHAzpACeoR5xmicafm6dsgnSA+e+iFyDNeUmA7aQcwNvkrwMg+xUgfRMCco+hu4dkFyKXQW4p9k+S1GYUnGaZ7TiAuPMivRTfWSzJ3U2Awwb6A6i2wnJc6cHIglWsydgnmFmg90D1m5fagvcBmJsk2fDeNYANfSMUFY2ljH0x4PtGb74E2EOzfV/xALwN430YuViFAA58PEpczBRtmMUG1wBgZT4ociHu21dTxO5ZD8ABvejcF3McpDrrvgZfkSx4AMtw9+Z2lCWU8lxfhlk4A2ynz0m/CK42jQOUHL2E47w2Oqp5GfgHkL0HOEL9icfQPMY2ofv3PHB0H3saXrrXX89eHQiBnr6SDvADViyz+h+AoE8AAAAASUVORK5CYII=;" parent="Tib5MzPci9CGnLbOdRJG-69" vertex="1">
          <mxGeometry x="228" y="350" width="17.78" height="20" as="geometry" />
        </mxCell>
        <mxCell id="Tib5MzPci9CGnLbOdRJG-113" value="" style="shape=image;verticalLabelPosition=bottom;verticalAlign=top;aspect=fixed;imageAspect=0;image=data:image/png,iVBORw0KGgoAAAANSUhEUgAAABEAAAAOCAYAAADJ7fe0AAAA60lEQVQ4Ea3TsUoDQRDG8XsM2zxGWh/hXsEyZcoQrjHYWKRKlZDKSq6wCNjEzkIE08XKYJU0QooUSwjyk8udcB6eELmFhR2Y/c833+xGGljRbMpZj+jU3af7lCuI4lMvl/OHbBBdDv6hogC1bwkZxIF0cjqo85ADsoaiixHLwOqRdllq3XlAuia805kU7Rw9SRi/EdZ0r+pVnU9ZHVje08qKfHtSNja+Y7tndlOZWJ/eM2HHeFQq8hskG3NryMuOzYI4yeP5B9vXPP7xFOogx6SE6wXhE3vmaSG/6tOfkGpyXdwopJFn38D/8wUzf7n47vDmgAAAAABJRU5ErkJggg==;" parent="Tib5MzPci9CGnLbOdRJG-69" vertex="1">
          <mxGeometry x="252.27999999999997" y="353" width="17" height="14" as="geometry" />
        </mxCell>
        <mxCell id="Tib5MzPci9CGnLbOdRJG-114" value="Eff 10/16/2020 Exp:10/31/2027" style="text;html=1;strokeColor=none;fillColor=none;align=left;verticalAlign=middle;whiteSpace=wrap;rounded=0;fontFamily=Helvetica;fontSize=15;fontColor=#758496;" parent="Tib5MzPci9CGnLbOdRJG-69" vertex="1">
          <mxGeometry x="240" y="390" width="245" height="20" as="geometry" />
        </mxCell>
        <mxCell id="Tib5MzPci9CGnLbOdRJG-115" value="Eff:&amp;nbsp; Exp:" style="text;html=1;strokeColor=none;fillColor=none;align=left;verticalAlign=middle;whiteSpace=wrap;rounded=0;fontFamily=Helvetica;fontSize=15;fontColor=#758496;" parent="Tib5MzPci9CGnLbOdRJG-69" vertex="1">
          <mxGeometry x="210" y="441" width="245" height="20" as="geometry" />
        </mxCell>
      </root>
    </mxGraphModel>
  </diagram>
  <diagram id="_LqP_CL0L8WvEUJ8Hcno" name="Page-2">
    <mxGraphModel dx="1422" dy="1894" grid="1" gridSize="10" guides="1" tooltips="1" connect="1" arrows="1" fold="1" page="1" pageScale="1" pageWidth="850" pageHeight="1100" math="0" shadow="0">
      <root>
        <mxCell id="L7CRdUDuIkSmKt0sv8hs-0" />
        <mxCell id="L7CRdUDuIkSmKt0sv8hs-1" parent="L7CRdUDuIkSmKt0sv8hs-0" />
        <mxCell id="L7CRdUDuIkSmKt0sv8hs-2" value="" style="shape=image;verticalLabelPosition=bottom;labelBackgroundColor=#ffffff;verticalAlign=top;aspect=fixed;imageAspect=0;image=data:image/png,iVBORw0KGgoAAAANSUhEUgAAAK4AAAAqCAYAAAAqLWAgAAAFHElEQVR4Ae2dsU8jRxSH/UeksHQV5ZWXjjYlJeW1lJSUFkIoIHISOlEQFEVuTopFRXEFUoocSgMU6C6hwFGKWNFFwRy5wzmhi4UI/qLx+sH6zRqvd5FnIc/Syvvejnd+881vZ9eD2S11Oh3cYi8jcJ8IlMy496m7TKsQKH33c4fPv+7w6BmUKuGWR1/9S+PtsS0FZfDH8btgffPnyV80Tz9w/ukf8S2lz5Y7lCpuCWdaqftaVcAVd/AU5WVabnri74/nNN/dmLcUmdaMK4jMLEKi/70IXFrOvKcfusLMuP390z0dqlSwsAhmkcYXRYu7bHAvM670TO+9KB3k5JgW1TkxJmZcxcbMooD0wqJwER1mXNVPAkalg4SmxccuTMy4io2AUekgoWnxsQsTM65iI2BUOkhoWnzswsSMq9gIGJUOEpoWH7swMeMqNgJGpYOEpsXHLkzMuIqNgFHpIKFp8bELEzOuYiNgVDpIaFp87MLEjKvYCBiVDhKaFh+7MMln3A2onQBtmLuDH+n4MlNkzmH7JUwt9n4ktAAzW9C6SvHZhCICJmHT0FTzJ5jbgIkei8erUPt96McGFsijpW+nJ/B0HpaO+rIjBVm1LA3yxRo0R1IQFRYdmY37dBeal4AzSCjjXsDSIkxvQf191LD2GVTX4clmV9bIaATMqB9s/gDlFageQesCuITGAUxWoHY66t6i8lm19NV2BbX16KAOZdw89fa15S7+5PvqDF7twtxvAY0LtM5104DDqKP2EjYNS2U2Szt5lK89h+mdYbUmb8+sJba7vU2Y3ITZSrgRt1DGld/QhjZurI+uV9uvofQlvLnOpF+5C7PEa6s+g9n9eCb9el4trX0or0HjCtwpO4+BsmrJW6+mJToyXyoU2bi1NXiypZucLhYw6UrfUuoS3mxDeRn22reUu2VTLi3uunah9x2EsMat/AirG/B4HiaWYfZl8tnpFhTXm4TJgzNuw11rhjIL0NyJ/SfJSqAvZ21YWu4fYfOOfGKYawelXHH1TqzB9tvosq51DEvPofwttFLuI15MdDwo4zZ2oDx/M8rEG5x2XcCkLe+Vu+h10DnUD2DKfZv/xSuVKpFVi1zXxgf6UMatHyaMrscwVYFqhv+SEiYPxriNfZjMaVrnJgGTylkpCjW2ofRijDMcpzA9aAqqlx/rl9YBjLIeSNI/D8K4rcPItNUcc6bCV8BInPp9wLzx2I17dTPiuxkXWSoVqBxEceo2xQpm5uKmTPXrI8z830fc9lFk2tVfNZ1scdYOcqfnL76JruXarrPcPO5RNPE/93q8WpJqyzrCyb4ycTmDmXmY+x4an6I9tY9hfR3KOc9CmUfcurRIvdfdVNSQU9Wg7WpXqUI3gzBof1nmTzN1kFN6BfVdmFmBcq/97i9n64epmpFYKLOWhL0FMa7T8R6qL2ByIeqn8mJBZhUGmSZLPoH32FN3aZa84k2LT1CYZB5xsxhz2Gd8mePPCJjx1+zXaFoGMzHjKjZmFgWkFxaFi+gw46p+EjAqHSQ0LT52YWLGVWwEjEoHCU2Lj12YmHEVGwGj0kFC0+JjFyZmXMVGwKh0kNC0+NiFiRlXsREwKh0kNC0+dmFixlVsBIxKBwlNi49dmJhxFRsBo9JBQtPiY7fbjPpMuhkzSzKYInDp3pVcbuxst9Lv76gidJAoMi1CArp3I4/fSt8eXmIPTHEHyLClcA8vscdF3RzVtnZ/CNhzzu5PX5nSGIH/AJmI7Llq/aObAAAAAElFTkSuQmCC;" vertex="1" parent="L7CRdUDuIkSmKt0sv8hs-1">
          <mxGeometry x="90" y="-906" width="174" height="42" as="geometry" />
        </mxCell>
        <mxCell id="L7CRdUDuIkSmKt0sv8hs-3" value="" style="shape=table;html=1;whiteSpace=wrap;startSize=0;container=1;collapsible=0;childLayout=tableLayout;" vertex="1" parent="L7CRdUDuIkSmKt0sv8hs-1">
          <mxGeometry x="90" y="-850" width="1210" height="160" as="geometry" />
        </mxCell>
        <mxCell id="L7CRdUDuIkSmKt0sv8hs-4" value="" style="shape=partialRectangle;html=1;whiteSpace=wrap;collapsible=0;dropTarget=0;pointerEvents=0;fillColor=none;top=0;left=0;bottom=0;right=0;points=[[0,0.5],[1,0.5]];portConstraint=eastwest;" vertex="1" parent="L7CRdUDuIkSmKt0sv8hs-3">
          <mxGeometry width="1210" height="40" as="geometry" />
        </mxCell>
        <mxCell id="L7CRdUDuIkSmKt0sv8hs-5" value="Acronym" style="shape=partialRectangle;html=1;whiteSpace=wrap;connectable=0;top=0;left=0;bottom=0;right=0;overflow=hidden;align=left;fillColor=#6C757D;fontColor=#FFFFFF;fontStyle=1;fontSize=18;" vertex="1" parent="L7CRdUDuIkSmKt0sv8hs-4">
          <mxGeometry width="100" height="40" as="geometry" />
        </mxCell>
        <mxCell id="L7CRdUDuIkSmKt0sv8hs-6" value="Name" style="shape=partialRectangle;html=1;whiteSpace=wrap;connectable=0;top=0;left=0;bottom=0;right=0;overflow=hidden;align=left;fontColor=#FFFFFF;fillColor=#6C757D;fontStyle=1;fontSize=18;" vertex="1" parent="L7CRdUDuIkSmKt0sv8hs-4">
          <mxGeometry x="100" width="480" height="40" as="geometry" />
        </mxCell>
        <mxCell id="L7CRdUDuIkSmKt0sv8hs-7" value="Market" style="shape=partialRectangle;html=1;whiteSpace=wrap;connectable=0;top=0;left=0;bottom=0;right=0;overflow=hidden;align=left;fontColor=#FFFFFF;fillColor=#6C757D;fontSize=18;" vertex="1" parent="L7CRdUDuIkSmKt0sv8hs-4">
          <mxGeometry x="580" width="270" height="40" as="geometry" />
        </mxCell>
        <mxCell id="L7CRdUDuIkSmKt0sv8hs-8" value="Center View/Edit" style="shape=partialRectangle;html=1;whiteSpace=wrap;connectable=0;top=0;left=0;bottom=0;right=0;overflow=hidden;align=left;fontColor=#FFFFFF;fillColor=#6C757D;fontSize=18;" vertex="1" parent="L7CRdUDuIkSmKt0sv8hs-4">
          <mxGeometry x="850" width="180" height="40" as="geometry" />
        </mxCell>
        <mxCell id="L7CRdUDuIkSmKt0sv8hs-9" value="Ownership View/Edit" style="shape=partialRectangle;html=1;whiteSpace=wrap;connectable=0;top=0;left=0;bottom=0;right=0;overflow=hidden;fillColor=#6C757D;fontColor=#FFFFFF;fontSize=18;align=left;" vertex="1" parent="L7CRdUDuIkSmKt0sv8hs-4">
          <mxGeometry x="1030" width="180" height="40" as="geometry" />
        </mxCell>
        <mxCell id="L7CRdUDuIkSmKt0sv8hs-10" style="shape=partialRectangle;html=1;whiteSpace=wrap;collapsible=0;dropTarget=0;pointerEvents=0;fillColor=none;top=0;left=0;bottom=0;right=0;points=[[0,0.5],[1,0.5]];portConstraint=eastwest;" vertex="1" parent="L7CRdUDuIkSmKt0sv8hs-3">
          <mxGeometry y="40" width="1210" height="40" as="geometry" />
        </mxCell>
        <mxCell id="L7CRdUDuIkSmKt0sv8hs-11" value="ACE" style="shape=partialRectangle;html=1;whiteSpace=wrap;connectable=0;fillColor=none;top=0;left=0;bottom=0;right=0;overflow=hidden;align=left;fontSize=16;verticalAlign=top;" vertex="1" parent="L7CRdUDuIkSmKt0sv8hs-10">
          <mxGeometry width="100" height="40" as="geometry" />
        </mxCell>
        <mxCell id="L7CRdUDuIkSmKt0sv8hs-12" value="AMBULATORY CENTER FOR ENDOSCOPY, LLC&amp;nbsp; &amp;nbsp; &amp;nbsp;&lt;font color=&quot;#0000ff&quot;&gt;Hierarchy&lt;br&gt;&lt;/font&gt;" style="shape=partialRectangle;html=1;whiteSpace=wrap;connectable=0;fillColor=none;top=0;left=0;bottom=0;right=0;overflow=hidden;align=left;fontSize=16;verticalAlign=top;" vertex="1" parent="L7CRdUDuIkSmKt0sv8hs-10">
          <mxGeometry x="100" width="480" height="40" as="geometry" />
        </mxCell>
        <mxCell id="L7CRdUDuIkSmKt0sv8hs-13" value="New York/North NJ" style="shape=partialRectangle;html=1;whiteSpace=wrap;connectable=0;fillColor=none;top=0;left=0;bottom=0;right=0;overflow=hidden;align=left;fontSize=16;verticalAlign=top;" vertex="1" parent="L7CRdUDuIkSmKt0sv8hs-10">
          <mxGeometry x="580" width="270" height="40" as="geometry" />
        </mxCell>
        <mxCell id="L7CRdUDuIkSmKt0sv8hs-14" value="" style="shape=partialRectangle;html=1;whiteSpace=wrap;connectable=0;fillColor=none;top=0;left=0;bottom=0;right=0;overflow=hidden;align=left;fontSize=16;" vertex="1" parent="L7CRdUDuIkSmKt0sv8hs-10">
          <mxGeometry x="850" width="180" height="40" as="geometry" />
        </mxCell>
        <mxCell id="L7CRdUDuIkSmKt0sv8hs-15" value="" style="shape=partialRectangle;html=1;whiteSpace=wrap;connectable=0;fillColor=none;top=0;left=0;bottom=0;right=0;overflow=hidden;fontSize=16;align=left;" vertex="1" parent="L7CRdUDuIkSmKt0sv8hs-10">
          <mxGeometry x="1030" width="180" height="40" as="geometry" />
        </mxCell>
        <mxCell id="L7CRdUDuIkSmKt0sv8hs-16" value="" style="shape=partialRectangle;html=1;whiteSpace=wrap;collapsible=0;dropTarget=0;pointerEvents=0;fillColor=none;top=0;left=0;bottom=0;right=0;points=[[0,0.5],[1,0.5]];portConstraint=eastwest;" vertex="1" parent="L7CRdUDuIkSmKt0sv8hs-3">
          <mxGeometry y="80" width="1210" height="40" as="geometry" />
        </mxCell>
        <mxCell id="L7CRdUDuIkSmKt0sv8hs-17" value="AEC" style="shape=partialRectangle;html=1;whiteSpace=wrap;connectable=0;fillColor=none;top=0;left=0;bottom=0;right=0;overflow=hidden;align=left;fontSize=16;" vertex="1" parent="L7CRdUDuIkSmKt0sv8hs-16">
          <mxGeometry width="100" height="40" as="geometry" />
        </mxCell>
        <mxCell id="L7CRdUDuIkSmKt0sv8hs-18" value="ADVANCED ENDOSCOPY CENTER, LLC" style="shape=partialRectangle;html=1;whiteSpace=wrap;connectable=0;fillColor=none;top=0;left=0;bottom=0;right=0;overflow=hidden;fontSize=16;align=left;" vertex="1" parent="L7CRdUDuIkSmKt0sv8hs-16">
          <mxGeometry x="100" width="480" height="40" as="geometry" />
        </mxCell>
        <mxCell id="L7CRdUDuIkSmKt0sv8hs-19" value="New York/North NJ" style="shape=partialRectangle;html=1;whiteSpace=wrap;connectable=0;fillColor=none;top=0;left=0;bottom=0;right=0;overflow=hidden;fontSize=16;align=left;" vertex="1" parent="L7CRdUDuIkSmKt0sv8hs-16">
          <mxGeometry x="580" width="270" height="40" as="geometry" />
        </mxCell>
        <mxCell id="L7CRdUDuIkSmKt0sv8hs-20" value="" style="shape=partialRectangle;html=1;whiteSpace=wrap;connectable=0;fillColor=none;top=0;left=0;bottom=0;right=0;overflow=hidden;fontSize=16;align=left;" vertex="1" parent="L7CRdUDuIkSmKt0sv8hs-16">
          <mxGeometry x="850" width="180" height="40" as="geometry" />
        </mxCell>
        <mxCell id="L7CRdUDuIkSmKt0sv8hs-21" style="shape=partialRectangle;html=1;whiteSpace=wrap;connectable=0;fillColor=none;top=0;left=0;bottom=0;right=0;overflow=hidden;fontSize=16;align=left;" vertex="1" parent="L7CRdUDuIkSmKt0sv8hs-16">
          <mxGeometry x="1030" width="180" height="40" as="geometry" />
        </mxCell>
        <mxCell id="L7CRdUDuIkSmKt0sv8hs-22" value="" style="shape=partialRectangle;html=1;whiteSpace=wrap;collapsible=0;dropTarget=0;pointerEvents=0;fillColor=none;top=0;left=0;bottom=0;right=0;points=[[0,0.5],[1,0.5]];portConstraint=eastwest;" vertex="1" parent="L7CRdUDuIkSmKt0sv8hs-3">
          <mxGeometry y="120" width="1210" height="40" as="geometry" />
        </mxCell>
        <mxCell id="L7CRdUDuIkSmKt0sv8hs-23" value="AGEC" style="shape=partialRectangle;html=1;whiteSpace=wrap;connectable=0;fillColor=none;top=0;left=0;bottom=0;right=0;overflow=hidden;fontSize=16;align=left;" vertex="1" parent="L7CRdUDuIkSmKt0sv8hs-22">
          <mxGeometry width="100" height="40" as="geometry" />
        </mxCell>
        <mxCell id="L7CRdUDuIkSmKt0sv8hs-24" value="AUGUSTA ENDOSCOPY Center, LLC" style="shape=partialRectangle;html=1;whiteSpace=wrap;connectable=0;fillColor=none;top=0;left=0;bottom=0;right=0;overflow=hidden;fontSize=16;align=left;" vertex="1" parent="L7CRdUDuIkSmKt0sv8hs-22">
          <mxGeometry x="100" width="480" height="40" as="geometry" />
        </mxCell>
        <mxCell id="L7CRdUDuIkSmKt0sv8hs-25" value="Center/South" style="shape=partialRectangle;html=1;whiteSpace=wrap;connectable=0;fillColor=none;top=0;left=0;bottom=0;right=0;overflow=hidden;fontSize=16;align=left;" vertex="1" parent="L7CRdUDuIkSmKt0sv8hs-22">
          <mxGeometry x="580" width="270" height="40" as="geometry" />
        </mxCell>
        <mxCell id="L7CRdUDuIkSmKt0sv8hs-26" value="" style="shape=partialRectangle;html=1;whiteSpace=wrap;connectable=0;fillColor=none;top=0;left=0;bottom=0;right=0;overflow=hidden;fontSize=16;align=left;" vertex="1" parent="L7CRdUDuIkSmKt0sv8hs-22">
          <mxGeometry x="850" width="180" height="40" as="geometry" />
        </mxCell>
        <mxCell id="L7CRdUDuIkSmKt0sv8hs-27" style="shape=partialRectangle;html=1;whiteSpace=wrap;connectable=0;fillColor=none;top=0;left=0;bottom=0;right=0;overflow=hidden;fontSize=16;align=left;" vertex="1" parent="L7CRdUDuIkSmKt0sv8hs-22">
          <mxGeometry x="1030" width="180" height="40" as="geometry" />
        </mxCell>
        <mxCell id="L7CRdUDuIkSmKt0sv8hs-28" value="" style="shape=image;verticalLabelPosition=bottom;labelBackgroundColor=#ffffff;verticalAlign=top;aspect=fixed;imageAspect=0;image=data:image/png,iVBORw0KGgoAAAANSUhEUgAAByYAAACaCAYAAADsDi8jAAAgAElEQVR4Ae3d+1dV193v8fwX/bE/nh/PD7VpJV6QPHWcDsdpR56cavM0ieai8YLStDExTUkeGzWtpprEWGMeYkyJwUtEiUEkEsBLwUC2AaWiAqIgykVAiOklRj9nrMvce63N2jdkK2zfHWMNcLP22nPN+Vo7HeuzvnPeNykrW9a2dEaFls74XEtnVI7Yls2oUuCWU61lUVteTrX822Hl5bDRBxjAAAYwgAEMYAADGMAABjCAAQxgAAMYwAAGMIABDGAAAxi4lw3cZ4LJ3GwrmDTbyIAyMJi0AkuCSYJXgmcMYAADGMAABjCAAQxgAAMYwAAGMIABDGAAAxjAAAYwgAEMJDAQDiaXZB+SteWGw0krpPRXTwaHk1RN3svJNufOkx0YwAAGMIABDGAAAxjAAAYwgAEMYAADGMAABjCAAQxgAAPJGIgEk9M/0xJrswNKUzlp/fRXTxJOAisZWOyDEwxgAAMYwAAGMIABDGAAAxjAAAYwgAEMYAADGMAABjCAAa+BcDC5ePpBJ5gcbTjJlK6U5yYoz/XC43e+iDCAAQxgAAMYwAAGMIABDGAAAxjAAAYwgAEMYAADGMDAvWUgHEwuml4mJ5wsdwNKZ2rXWOtOBlZOEk4SThJOYgADGMAABjCAAQxgAAMYwAAGMIABDGAAAxjAAAYwgAEMYCDAQDiYXDitVCPCSXfdSSectKZ0TWJa17jh5L2V+pLyM94YwAAGMIABDGAAAxjAAAYwgAEMYAADGMAABjCAAQxgAAMYcAxEgsmpn8oJJw9okT2tq1s5mXI4Wa1lnnAyL6da/g184MMABjCAAQxgAAMYwAAGMIABDGAAAxjAAAYwgAEMYAADGMDAvWYgHEwumPKJnokTTuZmH3IrJqOrJis1YlpXTzBphZT+YNL6N9DoAwxgAAMYwAAGMIABDGAAAxjAAAYwgAEMYAADGMAABjCAAQzcSwbCweT8KftkhZMLp+4fWTnpVk3mZlfECCerosJJqibvJUScK1+aGMAABjCAAQxgAAMYwAAGMIABDGAAAxjAAAYwgAEMYAADiQyEg8mnH9gjO5ycaoWTn2rRdGtK1zItnm5N6VquJdmHZFVN5mabtSajKyejwsm4VZMMTKKB4e8YwQAGMIABDGAAAxjAAAYwgAEMYAADGMAABjCAAQxgAAMYyCQD4WDyqQc+1tNTit1wcn84nFxswsnsz9xgciyqJkGUSYg4FzxjAAMYwAAGMIABDGAAAxjAAAYwgAEMYAADGMAABjCAAQwkMhAOJp/I2iUrnJw/Za8WTC2x15tcNK00UjXpCSaTntKVqknW02Q9UQxgAAMYwAAGMIABDGAAAxjAAAYwgAEMYAADGMAABjCAAQzkHFY4mJw3uUhPPrBbT03ZowVT9umZqZ/omamlWjTNms71oBZP/0xLfOHkyCldl82Ims51Rry1JkmNE6XG/B0jGMAABjCAAQxgAAMYwAAGMIABDGAAAxjAAAYwgAEMYAADmWLAE0x+pCcm7/RUTVrB5KdaOO2AG0we1GI7mLSmdK2wt6UzTDhZqaUznG1EOOmpmszLqVZkA1GmIOI8sIwBDGAAAxjAAAYwgAEMYAADGMAABjCAAQxgAAMYwAAGMJDIQDiYfPzHH+qJyTv0VNZue61JZzrX/Vo4rVSLTTgZFUzmZptg0vqZOJhc5gsmrZCSAaIPMIABDGAAAxjAAAYwgAEMYAADGMAABjCAAQxgAAMYwAAGMHAvGPAEk4WaN/kjPZm1S08/sEfzp1rTuVrBpFs1Oc2qmCyPms61QlRNcqHcCxcK54hzDGAAAxjAAAYwgAEMYAADGMAABjCAAQxgAAMYwAAGMHB7BjzB5F81d/JHeiJrpxNMPrBPC6Z+4gkmy9xgsly52YfC07nmpjidK1WTtzdggKf/MIABDGAAAxjAAAYwgAEMYAADGMAABjCAAQxgAAMYwAAGJqKBcDD56I8+0NzJ2+1g8skHdmv+A3tlT+c6zZnOddG0Mi2eblVMWpsVTEbCyeiqyXjrTBJMcqFMxAuFNuMWAxjAAAYwgAEMYAADGMAABjCAAQxgAAMYwAAGMIABDNyeAU8wuU32OpNZRbKCyacfKNaCKfv0TDiYPKDF0w8mFUxa6036w8lqWYGk2fJ8a03e3gkAgP7DAAYwgAEMYAADGMAABjCAAQxgAAMYwAAGMIABDGAAAxjAwPg3EAkm77eCSWudSSuYdNaZtINJd53JRdMOaJEVTNpVk59FVU1+7q41WSkrlBwZTFaFQ8mRFZPVAsr4h8IYMUYYwAAGMIABDGAAAxjAAAYwgAEMYAADGMAABjCAAQxgAAO3YyAcTP7q/vfdYPKjcDA536qYnPqJnpn2qSLBpFU1GR1MVrjBpBVQEkzezoDwXi5oDGAAAxjAAAYwgAEMYAADGMAABjCAAQxgAAMYwAAGMICBTDTgCyYf+9FfNW/yR3oiy6qY/Fjzp+x1gsmpJpi01pk0weRno15n0j+V6wSomHy3Wy0Ng2osOpVadeeKDjU2DKqltlPbcriA7AvI7UurP4O25i/61VjWqZJXQ8rPmD47raraQbWErqh4dioOalVc6vRT3bupvI99M/HLmnPCNQYwgAEMYAADGMAABjCAAQxgAAMYwAAGMIABDEx0A55gcqucYHK7nsjaqSfdYHKBVTFpT+daqkXT3WByulUxaaomK5SbHVQxGbXOZMw1JidOMNnyRZeKUgiWCosHnPDtrgaTtVr3aqsqtrdp03gI+kwweaxHdWXdvi10bEDNoUhg2VzZqV1L0/AlM/eUigo6VfpaGo4d2MduMNkwqNC2E8mH2wvbFXIDXILJOzVW4+BzZoe0bWOHKjY3Jm8l0N04OBfaxRhiAAMYwAAGMIABDGAAAxjAAAYwgAEMYAADGMCAx0AkmPyhFUx+oLmT3WAyy6qYLNaCqSUBwWS5J5g8ZAeTudlmnclY07lWx1lncpzfQDdhmhUsbQ0lB2h2q2pMyHY3g8mVnWoaT1Wbbl827T4dox+tILVNR6vdULe+WyVjHE6WlN/pKsRIMGmF24WeCzDekw1bivrCVaUEk+P8OyLJMY033uZv23b32+Me+xq5d/rC9Ak/GXMMYAADGMAABjCAAQxgAAMYwAAGMIABDGBghIHZTSrd3xcpePqiTzUFTRk0G2Nmjnk4mPyvHxbYweTjdjC5Q09m7fYHk1NNxaRVNRkUTAZVTVZp2YwqLftFvd5c/pXeXt4Q2Z5v0NvPN2iTvTVq0/PRW4PWpVCdOALkGAYFeZ5gsuVIh7Ykcex1W3vCodJdncp1wgWT5kI7oZJyN5ysvKj1SfR5sgbuajDZMKiajbUxQllz7tbPZh39IlI9SjDp7ZvM/p1gMrPHN9nvKfbDAQYwgAEMYAADGMAABjCAAQxgAAMYwAAG4hk4rapjkXvo3qXjmnbGKoyKdzz+dqe8+YLJR+/fpscnf6h5WU4w+fQDTsXkAmsq16mfauH0A1psT+dariXudK652aZiMnYwuXVnn86e6NfZr/p17quBkVvDgM41uCGUZ+3BcVMxZIJJuwJyQEcTTgHqhkr1A2q+29WKEzaYPKy8cNVpMn2e/JfGXQsmTQVtRbvWJQhaTbDdXH+nqzuT78c79SV1r30OwSQG7zXznC/mMYABDGAAAxjAAAYwgAEMYAADGMAABlI1YO6hewPJyO89Kl04Fn1aq3XPNmrT0rokio3G4vPujWN4gsn/kR1M/tgbTO7Rgqn7ZK0zObpg0lln0h9Mxggnvxr/wWRdUYcaraAxQbCUv/GKXS3ZWNShujjBZP5vW1RR3h8pMw4NqKm8Q7t+W6vY4UStNr3ZobpqZ7pH+0ILDaj5WLeqNjdplRt4mfdHLkT/kwP+Cjz3mMc8YxDqV+P+iyocMY1qoyqOWMfq0cGFh7XqlXbVhd/nvBb3CyThVK7+C69on9Om5n1nAy78OhUUXFFjrefcap1S7VU5bU7fN3SrxO4T82/PvtbYmC16ut3ZjdpV1K0mNxi09rP6uOLNRuWnHPa6U7nWdqqi1PrMREHrKaePQ1dU4U7r6R8vt49G0cZN253pYUPbQsqL9f4NsdfBtMa7xmfPctKugrmHFTfwjfVZVn+OGCu/gRHXScOgmqqv6OBrI9vpO7+5TSot815f/QrtbtEmtxJ7/YYOj91Btbh28mOExqNuR6xz9/WzZ7pfY9L30zj2903cay3GefAe+hADGMAABjCAAQxgAAMYwAAGMIABDGAAAxiY6AZKyjz39333Up3X6zbHHuNE+YmdG9iZgXvftrwtIJ+Iffxk+tbcTw9nFOYcEtynTubYgfvY2cz4uM8cEEwWal5WkZ7M2qWnH4gXTAZN52rWmazU0hlWKOkEk5GpXD3Tufqmcg2a0nX8TeVa925IpRUW6j5VrIiFzuxjJfJuGBYdeuUcVv6r7tqPFrbaPtWVdauurEdNVlVdfbeq9gevM7fNrDsYGlBjufWebtWVR+ZQbi5r1Ws5h7Vpc5fztwo3wAz1K2R/hvOeg6+Z9p9Qcal3ny5VFHWprtJ9LWCNR+eC6VdVgXsO9QNqquxRU/0VNwQ0xw74mWIwmbe52wkPj3WqwBe0eKZ6tQLdSrcv3LUpm3Z3KmRfyOZCa9ZB9/wb3SlSm6vd91ivF7dpkzn+bE8JuBXQuv0cssvCB1S3+0qK63ZGgsltr3U5VbSlrbHnuXb3aS5uDgfUI4LJ0bYx3P/tTpm7x5Fzfk5wWvPmyOlm17/b7bTdDml7/PaOdarKvjYGFb+tEbfm8xqLOqNC5Iib9RvdvrbCyMpuHS3q0FFznTQMqO7dqHAy+vzqXfe+a6RNBeZcjrnnYbxbx9w8ch3Z225Hwn5uVEmx49H0S4tpm+32YtJrkwb+R8fY5ueY/x8I+jtyvdIX9AUGMIABDGAAAxjAAAYwgAEMYAADGMDAnTJwO8FkdBvtoDIgx8nLSV/FpJ2zRAWe+QsaVFjYo+aGAQXdo49ud0r/tu+dm7zk7joNB5OP/NCqmHxfj/24UPMmF+kJN5icP8VTMTnNTOV6UEsC15n0B5NOOOmuM2mtNZlTHd7ycqoV2e5uJyQcPDfsaNzeqPw3r9jhjBUaBb5vhVtVaQdPMYLJ2S2qsSvxBlRXYFWMec5/dqOKSyOVi77pbGe7xwv1qDS6ktGqytrdo7qtUaFKguq+9dvctTCPdWpb1Jqeq15zg8eodTXDSb4VthQ1h6s0A/vDe27W7+HgKMk5nmO0f4tb+ddyrFOFcz39l3NYVrsbzbSp4YrJyD6m/SMCNLuttdrl9n9zeXu4us45t1pt2uSMf+SJichxY5+/G0yGrmhXjlsN2RCrlLxWxXZVpRN+myc3/G29jTa6/d9iTTNccdGudIy0u1abCl0PRzoiQa3VL8Z1Q7+qXosqW5/brCq7itZ9EuVdb5942mp9XpSx9Ru6nDDeFyK771960Q2X+1X1alRQan2mHRRHPSRgzi80qObyNv/apOHjDaolNPLaW18QOXffOrLh942iHan2c87hcBjtu/ajryP+Hfz9S7/QLxjAAAYwgAEMYAADGMAABjCAAQxgAAMYuCcMjOVUrrGDSe+97rH9PSiYNDmEXSBXNsZVmva983EXTL4bN5h8xlpjclqpFtnrTB7U4sBgMsY6k7+o15vLrWpJT8Xk8ga9PaJqslGbnjfb+KuYdIKCeMGSCWFMWBIcTJrpJltiVc3NPqujblWfL5yIEdJFgqWACyPue9y1MGNWgJqQrF9VKyPHNsFeS+VFf/CTzBf+aINJX8DYoho7eDT9HGmb6Ytw4Op7n7Ofab8/7HOP8bwbLIeuqDgqRDNfCmZ62ZbAJyhGtiUvx0zT6Vz0ZqrfwHDbBICujcBg8nbaaIK7WMHo7PaoSlPnfHbZYemgGotOBf9HLRzeRVVMhtvarZIYc3qbc2yJGqvCYiegj/WZph9914g5v8Dxq3UrnmNNx2xc+b+cb6sdKfazZcz0h++8krm22CfYJv1Cv2AAAxjAAAYwgAEMYAADGMAABjCAAQxgIAMNeGY+tAtfnMIZq6ioaWeShVGui9jBpHNvP3Kv1sp8BnR0U4uqKvvVXO/cw27a36r1c5tV4X2trH1EoY7JL6yfCYPJ0hbPmNWpsNCz9Jw102Nxq1tY5eY4UQVm9mfZszO6OUpAMOlfqs+atbBTu6KL4tJw7XgqJr3B5Ed6Imunnn7gY82fslcLppboman7Rx1MhteYPGGtLzlx15g0+EwSPyIwWeiGOhXtWmcPVlAwGQlHat4MCrGc10z4ZT7TAeuttDyVXKVivGDSTCcbXR3nheYGPaGCSMWaCfbsdQq9+ybzu3s8/3nF7oe8oPYn0+6FptrOHzKFL/iGqADNbXu+qZrzXfRR7VvrTsc6ymAyL8cNhAPCMycEi6xBaUIqb4h6W200wV1Fu79SNzx2/hDVcWde61PF81F9EX5fSAcrR1ZMJtXWV8y0xt6xSuYz3evLey4Jzs/0Z9POJs+Xujkn85neIN68Fu/cU29HdFjt9LPTjnAbd6f2H0/vMfjdjCk/sYABDGAAAxjAAAYwgAEMYAADGMAABjCAgYw1MLtJpfsjS921fNGnmoKmGPe+YztILZh0luMr/a2TmeT/1skimuv7IrMNLm1XKDSoxsLGgPvQTjuCg8k6bdlozTLonb2v1ilmsY6/8ZTWza7T+tXtqqv1zBpoFzxFcgVnvN3A0uRV9r1zzz14O3sZUKjwtNZZRVpzT6l4X79aggLOcA4Quw9TMRYJJie9q1/ZU7n+VXMnO8HkU4mCyemfaUn2Z8rNPqTc7Ap7WzrDP53rshlV2rqzV2dP9DtbBgSTeaai8Ysu37pvW9z1H2s2mhAvKJg0QYc3/Bg5mLHCCWttyvA0pdbaitXWunttKvpdKPhiCwr2DCIT4kQ9TTBisVXrCQNPSGKCSW9YljQ69zO9x4v7XrPGpDc8Ne2Omn/Zfxy376Oq8Kx94rU/Vr/7jh2vT03f+n6aMY9c9KaiM+Sdend2q1MJ6rnwTXu8fW1ei9uHsdqYsO9GtjUvJ3ZfevslqF+Tamvg8c1nRp5yCXI5YkrdBOdn2uPtz8g5mHP3XpvpaQfB5MjvvMg48Df6AgMYwAAGMIABDGAAAxjAAAYwgAEMYAADGLhzBuz7xoGFSM4948i9eOd+ceTfVhubnGXHvAU0JoeIk2GY++kj73sPqO7dhkje4y7x58sSrPzBroY097JDzmyB3lk67UI6T1hp3zs3GUWtk5N497eOaWcU5pjp6/+oYHKrHvvx2AeTyzJqKldnMEwIWfeuWdPRrYLzhErhQMcHOij8GDnAJkDxA3f3m3tKRQWdqinvU5O9VqUb3tReUXF0mW2sgMpCZkKcioueKXTNVLr+n28tMGFr/GAv4Zel+5mB5+UL85xzNZWjzfvORp4sMO2Oc1GH+36cBpPOBT4o73SwphI3EmxHpvX0BmlxbZg+jDXuCfvO+DRfUNY4mHDO+9pIs+aLNOW2Bh7ffGaPDoand/abDE/7/KwnlE9wfqbvvG2MmDXn7v3iTU87CCZH+omMA3+jLzCAAQxgAAMYwAAGMIABDGAAAxjAAAYwgIFYBk5oV1G3muzl3gZlVUnWlXU7W7mnevJYtyo2nIjkCubeecDPVIPJ6PvL1r3x6MzDvl8eJ8Ow/x6QzRRu7lJjvVVt6S6rZt/r71fVK9H94dy7Nm1xlj7rUam7pJqdYXnzKvveubnHb+6FBxcGmWOmy6AnmNyiX93vCSYn75SpmJzvncp12gEtnu6uMemuM5moYtKqmgxvOdVa5m55OdXyb9EdO07+7YYdPlhm2lZ3YNe5+/hTazfU8AWTkSkvU5/KNbg/8hecVsn+ftnJuheadYHFCqisvyUzJWrARRoUQCUNNKgvAz7DPt7CNtXZXy6eVN/a10yl6q2ijD7GKKdyXbetx+nHtE7l6oyjWbvQCSLdL4KoKtygIO222uj2f0vML0TzhWS+oKy2mjVP401nGnHt/dJK71SuAddDgvML6s+IXXPu3mDSvBbv3FNvB8FkQJ9FX8P8O6n/0xTxS5/SFxjAAAYwgAEMYAADGMAABjCAAQxgAAOZbuCESsqddR1HVhoGhWxW9WHicPKuBZMx7tNv2t4XKWpKMpg0S8g5SxA6hXS+vMq+d27u+zv3vYOXPEu/oeSCySmeNSYDgsklCaZyjVkxubxBbz/foE3hzVsR1eDMazsebk7HCNMi6wGeUsWRQbWMWDMwKJg8LFNt2RJdJmvO1UwVGzWFavwvVROgGFgunnjBZE6LM3Vog7v4qfn8BD/vTDDp+YKpaNd6b5vMlKdx2m2mSm1JsWIyz56LOWgszcVYK1PF6a12HNXYmHDbOr+NV+xANHrd0sAg7XbamCC4Cw7M3LmoGwYV3b7weS81a3pGrd35fIcaramCR1wbpj8jVaHRY7Wr1PkPSczP9Jowvyc4v8D+NO/NMdeQN5g8rHS0I7ifnT4xbfQ9CBFuY6Tfwn3P3wjwMIABDGAAAxjAAAYwgAEMYAADGMAABjCAgXvAgFMVGBRAxnktzr1pc491vAWTdnHSF10qssbUncrVO9Oi3W7fVK7OfWN7VkbrfVbeEH3evmDSncq1ol3r7oKbcDD5y0lb9KsfbtWjZipXb8VkYDB5UEvcislEwWTGrTFpBsoERMf61RwYIgYHk3meSsC6gsbIXMH2cU9ol7XAqLvuoy+cWNqumrJ2bfNMq2ounDwTDIWuaJdpn/XTRdvS0Keq30emYzXv22Il79ZnHevSruhpYHMOa9WKVlUVt2uL55jpDSZrte7VNtVYQa/VrvpulQS0y4Q3Lcc6VTjXH9bk//6iQuEpbqOC2hxPEFbWqlWe83L6JBReg7K5vF2brEVfPfus39ClJndsbjuYzDGBX7+ajlnhXbdK3DJr85nmPL1ViHk5t9HGBMFdzMDMBNwN/ZEFfE2/zG7SwYrIUyr+ttZqV6nzt+aKiyoI6k9Tch8dIpvrq6FfR4NK7q3FeHd3qXSFZ4wSnF9wf5r3BweT4bB6DNsRs59zDivfnMORzhH9ZVzw04wZP7GAAQxgAAMYwAAGMIABDGAAAxjAAAYwgIF7xYApIjH5SbI/481eafXduAkm555Qwesddr7RXNriZke1Tvvqe3TwVWtZs1qt+12rjh4bVHN5W2BRV3P9oJqLm33ZhrO0XyQvybdn1BxQ4+5WbbEyltkhvbW6XXVHrqg46j7+WPsKCCY/0NzJ2zVv8g499cBuzZ9SrPluMPnMtFItCldMBgeTuTM+11J7q9TSGZVaNqNSGRtMegKilobI3L2RQYoRTOYc1vp3u+0w075was0cyD3OvMihPtWVO+GkN5h8a6s7zWjDoJqP9QTMmxxUlhwJhlpCA2qq7FZdZbcqwvMRn1BJWSRUaqp252Iu61ZjrRsOhvp08HeRL/exCCZbvO038z9X96s5HFINqrmyY0ToGO7b2adVZcJLc17WcardEKysWyE7QIxcaOH3hgMva41Hp+8b97VGLtKlbaozwWaoX43lTp+ErPDQqhos63bCSd8UvZH+CX+OCe7ClXgBbQkHfgFfFOYLsSGqCtE67mjbaEKvGCXisQOzWm3b6YbYXn9mzu56y5XTP/5g0vpCO+0s/muNR2hgZH8WdaouxlgFXyfWOEfC+/Bc21a/JDi/UQWTMa/X0bcjdj9b/dWiGuOvvl8hy3J5hwrCnuJZ428jrz/6hD7BAAYwgAEMYAADGMAABjCAAQxgAAMYwEAmGDDZRLKBpNlvxD3rqHutdy2YNEVQ3p/WPeHdLVFFU3UqLOxWk7lvbOUWxa1R+zjGnZk+A2bJtO+d+zOKVa+0q+5YJB+y8pKagqaAgq6xvX6igsn39OiPg4LJfXpm6idygslSLZpeZq8z6a+YPKTc7ArlZo8MJv1TuX6lt60pXM0WnsbVmtJ1Yk3lal/IdrnsoIKnZY0dTFrvXfVKm6rKPWGcFbCVd2jXb90EPKAK035PWV8EoBv2NFVf0cG10dWXLpbZjdq12w097f37PMGktU+tNq29qJroYNAK7Xa3qSCqItFc/Iku5sAvOhMceS80z+/NX/QrtL9TJXbynwD77EYVFV6JBKjWccIXjtv30VV47hfOiAuu1BNMWvvMbVLJbs+Fbodx3ap4s1H5Jkwci2AyJ6TSCivQC/iiiBdMjraNpv9TDib9TswXeov1Bbi/3TYS14Vl0FqQ2HxxevszJ/5Y5f/2rA7ujzJf36/Gsk6VvFIXCZStPklwfqMNJi3LY9mOuMGk/VktqqqMhK8tRwgmA79P3OuZvyX4rqSf/N8T9Af9gQEMYAADGMAABjCAAQxgAAMYwAAGJqQBcw86fH/aky3Ee21UWcaENOLO0lhxd6ZoTfY+bYrB5KdaZFVNusHkYt9UrnGCyRlVWma2nGotc7e8nGr5N26uJjtw7IeVzDHgBpPR0xBPyC9+XGaOS8aSscQABjCAAQxgAAMYwAAGMIABDGAAAxjAwHgysO7NLmfWySQDSTusrO3Srqgl1MbTOY1lW5zpWftVtXJ8u00YTD5tT+VqKiYJJscSCcca3xcH43OHxsdUoB7p0CbCyAn5pBLXyh26Vrg+uD4wgAEMYAADGMAABjCAAQxgAAMYwAAGMICBaAMrWlVV1qfmhgE1bj/trk05fu9ZeoLJd/SrH76nR3/kn8qVYHL8Dh5hAGMzMQw0q6TgtNYFLZg7+7Qq3LVCQ1tD/Acl+j8o/BsTGMAABjCAAQxgAAMYwAAGMIABDGAAAxjAAAYwEM/AijYdLb6oohVRS5/Fe89d/BvB5F3s/IkRKhH+MU63aeB3HWp0S+ubj/Worqzb2cr71Byy1tccVHN5m9ZzLfIfVwxgAAMYwAAGMIABDGAAAxjAAAYwgAEMYAADGMBARh62tH0AACAASURBVBvwBZP/lYaKyaUzKiPrS1rrTLLGZEaDIsS7zRAvQ79wV604q4PFPWr6YsAOIs1CxM21faopaNKqDD1vrgeuBwxgAAMYwAAGMIABDGAAAxjAAAYwgAEMYAADGMBAxEAagskKLZ3xuaxA0mzLrEDSbASTBJOEUBjAAAYwgAEMYAADGMAABjCAAQxgAAMYwAAGMIABDGAAA/ecgfjBZNZupb7GZIJgckZ1nKrJSGJKekxfYAADGMAABjCAAQxgAAMYwAAGMIABDGAAAxjAAAYwgAEMYCBzDBBMksbfc2k8X2CZ8wXGWDKWGMAABjCAAQxgAAMYwAAGMIABDGAAAxjAAAYwgIGJYyAwmHx88nbNm7xDT1ExSWhHcIsBDGAAAxjAAAYwgAEMYAADGMAABjCAAQxgAAMYwAAGMICBMTBAMDkGnUgSP3GSeMaKscIABjCAAQxgAAMYwAAGMIABDGAAAxjAAAYwgAEMYAADd8cAwSTBJAk/BjCAAQxgAAMYwAAGMIABDGAAAxjAAAYwgAEMYAADGMAABtJugGASZGlHxlMHd+epA/qdfscABjCAAQxgAAMYwAAGMIABDGAAAxjAAAYwgAEMYGA8GSCYJJgkmMQABjCAAQxgAAMYwAAGMIABDGAAAxjAAAYwgAEMYAADGMBA2g0QTIIs7cjGUxJPW3gyBAMYwAAGMIABDGAAAxjAAAYwgAEMYAADGMAABjCAAQzcHQMEkwSTBJMYwAAGMIABDGAAAxjAAAYwgAEMYAADGMAABjCAAQxgAAMYSLsBgkmQpR0ZTx3cnacO6Hf6HQMYwAAGMIABDGAAAxjAAAYwgAEMYAADGMAABjCAgfFkgGCSYJJgEgMYwAAGMIABDGAAAxjAAAYwgAEMYAADGMAABjCAAQxgAANpN3DfrP/3qKztl5Pe0X/98D09+qMP9Pjk7Zo3eYeeytqtp6cUa/6UfXpm6id6ZtqnWjStVIuml2nx9INaPL1cS7I/05LsQ8q1twrlZldo6YzPtXRGZXhbNqNKka1ay3IiW15OtSIbqfV4Sq1pCx4xgAEMYAADGMAABjCAAQxgAAMYwAAGMIABDGAAAxjAAAbGygAVk6TfaU+/xworx+GLDwMYwAAGMIABDGAAAxjAAAYwgAEMYAADGMAABjCAAQxMXAMEkwSTBJMYwAAGMIABDGAAAxjAAAYwgAEMYAADGMAABjCAAQxgAAMYSLsBgkmQpR0ZTy5M3CcXGDvGDgMYwAAGMIABDGAAAxjAAAYwgAEMYAADGMAABjCAgbEyQDBJMEkwiQEMYAADGMAABjCAAQxgAAMYwAAGMIABDGAAAxjAAAYwgIG0GyCYBFnakY1Vis5xeCIDAxjAAAYwgAEMYAADGMAABjCAAQxgAAMYwAAGMIABDExcAwSTBJMEkxjAAAYwgAEMYAADGMAABjCAAQxgAAMYwAAGMIABDGAAAxhIuwGCSZClHRlPLkzcJxcYO8YOAxjAAAYwgAEMYAADGMAABjCAAQxgAAMYwAAGMICBsTIQDib3fXJAn5YdUnlFlT6vPqbDfzuuY8e/VG39V6o/cVKhxiZ9dapZDU1ndPLvZ9XU3KK/n23V6bNtaj53Xs0t7TrTekFn2y7a27nzHWqxtvZOe2u9cElma7vYpaDtfMdlsdEHGMAABjCAAQxgAAMYwAAGMIABDGAAAxjAAAYwgAEMYAADGMg8A+Fgsqr6sI79rUZ19fU60dCok01/V/OZszrX2qbW8+260NGhi52X1Nl1WV2Xr+hKT6+6e/vU03dVvVf71dc/oKvWNjCo/sFrGrg2ZG+DQ8OytmvDX4e3oa+vK2gbvv6N2OgDDGAAAxjAAAYwgAEMYAADGMAABjCAAQxgAAMYwAAGMIABDGSeAYJJwlDCYAxgAAMYwAAGMIABDGAAAxjAAAYwgAEMYAADGMAABjCAAQyk3QDBJMjSjownGjLviQbGlDHFAAYwgAEMYAADGMAABjCAAQxgAAMYwAAGMIABDGAgVQMEkwSTBJMYwAAGMIABDGAAAxjAAAYwgAEMYAADGMAABjCAAQxgAAMYSLsBgkmQpR1Zqmk5+/OEBQYwgAEMYAADGMAABjCAAQxgAAMYwAAGMIABDGAAAxjIPAMEkwSTBJMYwAAGMIABDGAAAxjAAAYwgAEMYAADGMAABjCAAQxgAAMYSLsBgkmQpR0ZTzRk3hMNjCljigEMYAADGMAABjCAAQxgAAMYwAAGMIABDGAAAxjAQKoGCCYJJgkmMYABDGAAAxjAAAYwgAEMYAADGMAABjCAAQxgAAMYwAAGMJB2AwSTIEs7slTTcvbnCQsMYAADGMAABjCAAQxgAAMYwAAGMIABDGAAAxjAAAYwkHkGCCYJJgkmMYABDGAAAxjAAAYwgAEMYAADGMAABjCAAQxgAAMYwAAGMJB2AwSTIEs7Mp5oyLwnGhhTxhQDGMAABjCAAQxgAAMYwAAGMIABDGAAAxjAAAYwgIFUDRBMEkwSTGIAAxjAAAYwgAEMYAADGMAABjCAAQxgAAMYwAAGMIABDGAg7QYIJkGWdmSppuXszxMWGMAABjCAAQxgAAMYwAAGMIABDGAAAxjAAAYwgAEMYCDzDBBMEkwSTGIAAxjAAAYwgAEMYAADGMAABjCAAQxgAAMYwAAGMIABDGAg7QYIJkGWdmQ80ZB5TzQwpowpBjCAAQxgAAMYwAAGMIABDGAAAxjAAAYwgAEMYAADqRogmCSYJJjEAAYwgAEMYAADGMAABjCAAQxgAAMYwAAGMIABDGAAAxjAQNoNEEyCLO3IUk3L2Z8nLDCAAQxgAAMYwAAGMIABDGAAAxjAAAYwgAEMYAADGMBA5hkgmCSYJJjEAAYwgAEMYAADGMAABjCAAQxgAAMYwAAGMIABDGAAAxjAQNoNEEyCLO3IeKIh855oYEwZUwxgAAMYwAAGMIABDGAAAxjAAAYwgAEMYAADGMAABlI1QDBJMEkwiQEMYAADGMAABjCAAQxgAAMYwAAGMIABDGAAAxjAAAYwgIG0GyCYBFnakaWalrM/T1hgAAMYwAAGMIABDGAAAxjAAAYwgAEMYAADGMAABjCAgcwzQDBJMEkwiQEMYAADGMAABjCAAQxgAAMYwAAGMIABDGAAAxjAAAYwgIG0G0h7MNlWv0fbVi/TL2f/RJMmT9ekrGxNenCWHpm3TK9+VKwv269r6GtnI/nOvOSbMWVMMYABDGAAAxjAAAYwgAEMYAADGMAABjCAAQxgAAMYwAAGLANpCya7Gz7S7x/9iX4weXp4CweTVjgZ3mbqkVU7dbL3etpT2NGiv9xcquPnADPa/uN92MEABjCAAQxgAAMYwAAGMIABDGAAAxjAAAYwgAEMYAADGEhLMHnx8J/0nyaQzJmt59/bo/oz3brU87WuDX+tvks9OhMq1gdrnlK2CSjnrNHh7vE2ICH95adOiLr2+HhrG+3hCwwDGMAABjCAAQxgAAMYwAAGMIABDGAAAxjAAAYwgIGJZuBbvbde+ln5tzEL1ioKpfsKb8T8+3gd84Fj25S7oUpdyU4J231elTvfUf5L+cpdbm0r9dyGD1XyZZcGkj1GKvsNdOjM+aG72q9jH0yeeV+L3FBy8q8L1NA9rMGhYTuQtEJJazNTt9o/r/xNBbkzNempQp1NpfPuyL41WusGpwSTE+2LjfaO1y9m2oVNDGAAAxjAAAYwgAEMYAADGMAABjCAAQxgAAP3soFMDSaHVLklX2sre5ML/s4f0poX8/Xi5v2qbe1V78CQeru71HR8vzasXKk/7D+f3HGSzss6VPKnfP3hQMcYHzc1y2McTJ7U1iemOVO3PvE/augfskPJuMGktb7ktR6dae25qx0R/CVIMBncL6kh4xj0FwYwgAEMYAADGMAABjCAAQxgAAMYwAAGMIABDGAAA46BDA0mB2q0cfk7+iyp2UGdkPC59+rVGxQsDveq6+pYe8nAYPLy5/maPNkKJn+ujaEhDVxLMpi0wsmvx+MakwST/IdirC98jocpDGAAAxjAAAYwgAEMYAADGMAABjCAAQxgAAMYuJcNjCaY/KdOHbmpx1dJ970kfW/lLS3Yf0Odw5F+bCm/pfu2fqdTdTf1izXS9JXS9/94Sx+3/1OdX93U42uk+93X3jvzL3+xXOcNrX5b+v5L0n350syt36k+xWDQnsZ149HkpnE9+bGeW/6GSi5E2h/vmhjoqNe2Dav1a2u61xdWKn/LITWF2+cEjhuPdKl+7zt68ZXVeu7FfP169TZ9dt49/pcfulPFmilj85X7p0NqtUPRIV2s+VhrXlnp7PPSn7XxwDlPYHpCm5f/UTtOnFPJlj/abbidqssxrJjsVsWa/9APrGBy6Xa1Xhu7YPJyc6kKXn5Kj/xspibZU6vO1MO5y1VQcUaXh4IHLVQwy943a1ONg6v7jA69v1zz5/iP8cb+k1HHOK8dec66ks5nBf++ZE9ACe3QeR3fs0bPznsovHZm1s/m6NkNO3U8Fq7uUr1gn9NC7e38RsNDvTpV8ZaefWyWstzXd8R6b1CKzmv+LxP6g/7AAAYwgAEMYAADGMAABjCAAQxgAAMYwAAGMIABDIwjA6kGk//QqfJb+t6qW3rv1L/VO/xP9bbdUP7r0v2FN8IBmh1M5kuPHzBrV/5T9Xul+1ZJPys0IeY/dOrALd236qbqjYmL3+kX+dLyY9+q1wo6r/1bR0tu6fubv1On2Sfhz9Smcb148G3l5n+srxIe9xsNXzikNS+s1sYjHRqw29err/a8rV+HQ1C3+jL/z9p83EwjO6QzJW8od/V+nQl/RnDFZKvVlle2qdJde3Lg8mnt+PNKz5S0VjCZr+deKdCeVnd9Sk8gHC9QDfrbGAaTtXrr51a15DTN+aDJrpa8/YrJXoUKnnIDumxNenCWHpk3R4+Ew8VsZa/YqbMB4eSFPQudEHNDjYbbdurZnwYHjFb4+PDKUl0ID8wlla6a43yOJ2DMnmNec36+fOCS/yJuK9XLcyKfYfaf+aD72oNz9MbfDAhvmGqqMhdqR9t5la58yA1fzbEWimDS21/8HnQh8xouMIABDGAAAxjAAAYwgAEMYAADGMAABjCAAQxgYGIYcIJJq/Ix7lZ4w8lhhm8o3woOj0dVObbd1MyXbum9i864O8HkTVV4Q7Ovbup71j7tHhsXv9PPwu/7hyoKpf+90/0skxUN39DqVyPHTtiv9jSub+vAZc/nmGMF/Gw98IanYjH+e2rfz9dz20/6M6nhk9qWbyouncAx9/0T/n0uHNIflr+tkg5z/IBgcviENr+wWtsazD7uz4aP9Vy4otIJJl/cc85//IDzSthP17/R2AWTF/fpuR87weRrh6+NSTB5ds9CJ5R88Cm9ceS8rnoDyK6Q/vobp/rx/75eratRHRAOJlf8t1bNyVbWgtd1qPlS5BgD53W8wD1+1kytOjIY0KEmNMzW2uNRg+L9vL4arXVDyYdX7lSoy7Pv0KDOVvy3HjbVj22ev9nHMJ8xSy+/tlxZWQ/p5aIane1y2nO165IuD0S/h38ng5t9cIIBDGAAAxjAAAYwgAEMYAADGMAABjCAAQxgAAMYGG8G3IrJkm/V2fPvwO3jbdJ9Jph0g8QPrVknvdnM9RvKf0nKP+G8bgeT679Ti3cf+703VTHiNRM6xg9JzbH9nxvdjm9kT+O6oSq5aVyvf6PkKybd0NGawjVg2/yl1ZaAwNE6XzuYNOFljP3sfYKPnbv8Q9Xa/eYEk85njTz3RH0T/fexCybPfqiFdjD5H/pz7RgEk+cK9bgd5j2kteHS06gT7qvW2oesysLH9Ndz/r+Fg0nrGHmFgVWVw9d7deg1d2rXl0p12QvT/t2EhvGCyUEdXuscI+s3wdWbVqef3eVUcGatPRQVokY+Y1LWLK0NrKr0n1v0IPJv+gcDGMAABjCAAQxgAAMYwAAGMIABDGAAAxjAAAYwgIGJYSDFqVzvQDD5i0P/jgo9U7HkTOO6piJo1swYxzmzXy8mtcakEzquOdgVp323G0x6qyqD2jvug8kF2t5y+8FkaIuzRuSklaVRQZ6/U84WPWZPffrIh2d8gxIJJmfpL25aHnRBXj6w3Jk69cHXdXw0wWTXXj1rB6hzVNDkb5vv8wYOaZU9ret/65CvAtITTK7YGxCOxjnmiPayr6/P6R/fNUHfcH1gAAMYwAAGMIABDGAAAxjAAAYwgAEMYAADGMDA3TeQYjDpTuW6uvEf/nveQVO5plwx6Uzl+r1tkbUqU+6fFKdxdY7vhInPvVcfXiPT97nDQ856kte/kTWVa+7/1GsgZuZxG8GkPZVrvjbWuGtHBn7GuA8mx6JiMqS/2JWQ2XrhQIKEuf51Z7rXqIrHSDC5Roe9U8BGd+rx1901HUcXTIaDzYfeUij62L5/X9Le31jVnbP0l0bvF18kmJy/67z/ovK93/sefvddoPQTbjCAAQxgAAMYwAAGMIABDGAAAxjAAAYwgAEMYAADE8RAisHk9X/oVPktfW/VLX3cbq0z+Q/1dt3Q229J9xdGAsXRTeX6jYbbv9Mv8qUF5TfUee0bDQ//S51tN7T6Lzd11LteZQxfqU7jGs43zh/Smhfz9dym/apt7VVXt7Od+XK/Nr66Un/Y3+GMp7XfC6u14cBpddntG1Jva722vblX9Xb7kg0m3ZDzz2VqujqkgatOGNl64G3lvlKgkpO9Tvg50K8zNR9r7U6zruV4DSbHco1Jq7rQrkK0grwkt7yduuBBEQ4m523VKc/r4QE3r91mMHnqwznJt9E9F/96lZFgclVV0DqXhJAjxsyMHT8nyH9kMIxhDGAAAxjAAAYwgAEMYAADGMAABjCAAQxgAAMYMAZSDSat9/1Tp47c1OOrpPtekr638pYW7L+hTk9wOOpg0soaOm9o9dvS919yjv+/1t7S68eTmd51FNO4erON7vOq3PmO8l8y6zyu1HN/ekcf1nT5KiQHOuq1bcNq/dpdZ/LXq737JB9MDl89qQ/XrXTWq9xQpYt2W4Z0seZjrXnFff2FlcrfuFdHO0wV5XgNJvtr9dbPp+kHk6dpzgdNGrg2ZG+DQ8OytmvDX4e3oa+vK2gLX5QXdmqJG+I9/vLremNTEltRjW8a1HAwGRVYhj/DDPxtBpPHN7jB6UMLtSqZdm56XaW+9TAjwaQ/sDQXKD9HjJkZO34STGIAAxjAAAYwgAEMYAADGMAABjCAAQxgAAMYwAAGMHC3DIxqGtd7O/e5z1QkVlUf1rG/1aiuvl4nGhp1sunvaj5zVuda29R6vl0XOjp0sfOSOrsuq+vyFV3p6VV3b596+q6q92q/+voHdHTdf9jB5A+Wblfr7QST3aV6IbC6MPnBulPBZKjAXQszUQAa86IgmCR4TN41fUVfYQADGMAABjCAAQxgAAMYwAAGMIABDGAAAxjAAAbGiYHu86o9cT54nciYudA4aftdat+YBpNXj6/XrMlW1eTPtTF0GxWT1yNrTC7Zd2lUSf+dCibDa0w+GLRGZTK4CCb5Ak3GCfvgBAMYwAAGMIABDGAAAxjAAAYwgAEMYAADGMAABjCAgYltYGyDyf4z+jDXCian6wdLt+l0/5A9jWviqVx71HXlui+APL5hprN244q9vilakwV3p4LJ4fC0s7P0lxOjwUAwmeyYst9ofPEe3GAAAxjAAAYwgAEMYAADGMAABjCAAQxgAAMYwAAGMDA+DIxxMDmgq2e2a1HOdDucnP78Rzo9kGCNySuN2rHyIU1aUewPIBvf0sP2dK6ztPZIry+0jMZzufGkLkSVnI5NMHleOxY5a0g+8uGZGG24pNKX3BA1r1Bnh+IM7NAZhZoHo45DMBk9nvw7jqEo5/QVfYUBDGAAAxjAAAYwgAEMYAADGMAABjCAAQxgAAMYwMBEMTD2weTAoK4c+5P+06qatLb/86T+uLtSjee71Tv4ta4Nf62h3h61n65S0fqFmvmgE/xN+ulylV7wwhnU8U0POVWTWTM1f0u1zvZ5/j40qAvNpSp4aY6ysmZp7XF/4Dc2weQ3Cq8h+eBC/fXEJV21gsehQV0d8LTFqpp0zyPrsd9ph9nPDZGudp/R8T1rNP+n2Zo0Yi1KgsmJcrHQTo95AtKoBwzoG64PDGAAAxjAAAYwgAEMYAADGMAABjCAAQxgAAMYwEAiA2kJJvsHr6m74SP9/tGfOOGkG1JOmjzdDRrdMNKuiJypR1bt1JdRU7naDR/q1fGCp5Rl7+d9j/93Kwzce84/2GMVTA731WjtHP/nTcrK1pI95/3BxLm9ejlgP2vfyDZT89+v0WVfVSXBZCKk/N1vm/6gPzCAAQxgAAMYwAAGMIABDGAAAxjAAAYwgAEMYAADGJiIBtIWTA5cG5K1tdXv0bbVy/TL2T9ROJh8cJYembdMr35UrC9bBzT09XV7i9WBV9tqtGNDnh6Z406ZmpWtrJ/N0fyX39KO4+edKsaoCq4xCyat43af1N4NeXrYqni0gsafPqSXD1zyB5PWfkOXdKpis17InROpBM2aqYfn5WlVUalOdQVdJASTscad14O88BouMIABDGAAAxjAAAYwgAEMYAADGMAABjCAAQxgAAMYmJgG0h5MDg4lWGPSDSWtcBJEExMR48a4YQADGMAABjCAAQxgAAMYwAAGMIABDGAAAxjAAAYwgAEMJDJAMBlVaZmow/g7FxUGMIABDGAAAxjAAAYwgAEMYAADGMAABjCAAQxgAAMYwAAGUjdAMEkwSaUqBjCAAQxgAAMYwAAGMIABDGAAAxjAAAYwgAEMYAADGMAABtJugGASZGlHxhMDqT8xQJ/RZxjAAAYwgAEMYAADGMAABjCAAQxgAAMYwAAGMIABDGSaAYJJgkmCSQxgAAMYwAAGMIABDGAAAxjAAAYwgAEMYAADGMAABjCAAQyk3QDBJMjSjizT0nzOhydUMIABDGAAAxjAAAYwgAEMYAADGMAABjCAAQxgAAMYwEDqBggmCSYJJjGAAQxgAAMYwAAGMIABDGAAAxjAAAYwgAEMYAADGMAABjCQdgMEkyBLOzKeGEj9iQH6jD7DAAYwgAEMYAADGMAABjCAAQxgAAMYwAAGMIABDGAg0wwQTBJMEkxiAAMYwAAGMIABDGAAAxjAAAYwgAEMYAADGMAABjCAAQxgIO0GCCZBlnZkmZbmcz48oYIBDGAAAxjAAAYwgAEMYAADGMAABjCAAQxgAAMYwAAGUjdAMEkwSTCJAQxgAAMYwAAGMIABDGAAAxjAAAYwgAEMYAADGMAABjCAgbQbIJgEWdqR8cRA6k8M0Gf0GQYwgAEMYAADGMAABjCAAQxgAAMYwAAGMIABDGAAA5lmgGCSYJJgEgMYwAAGMIABDGAAAxjAAAYwgAEMYAADGMAABjCAAQxgAANpN0AwCbK0I8u0NJ/z4QkVDGAAAxjAAAYwgAEMYAADGMAABjCAAQxgAAMYwAAGMJC6AYJJgkmCSQxgAAMYwAAGMIABDGAAAxjAAAYwgAEMYAADGMAABjCAAQyk3QDBJMjSjownBlJ/YoA+o88wgAEMYAADGMAABjCAAQxgAAMYwAAGMIABDGAAAxjINAMEkwSTBJMYwAAGMIABDGAAAxjAAAYwgAEMYAADGMAABjCAAQxgAAMYSLsBgkmQpR1ZpqX5nA9PqGAAAxjAAAYwgAEMYAADGMAABjCAAQxgAAMYwAAGMICB1A0QTBJMEkxiAAMYwAAGMIABDGAAAxjAAAYwgAEMYAADGMAABjCAAQxgIO0GCCZBlnZkPDGQ+hMD9Bl9hgEMYAADGMAABjCAAQxgAAMYwAAGMIABDGAAAxjAQKYZIJgkmCSYxAAGMIABDGAAAxjAAAYwgAEMYAADGMAABjCAAQxgAAMYwEDaDRBMgiztyDItzed8eEIFAxjAAAYwgAEMYAADGMAABjCAAQxgAAMYwAAGMIABDKRugGCSYJJgEgMYwAAGMIABDGAAAxjAAAYwgAEMYAADGMAABjCAAQxgAANpN0AwCbK0I+OJgdSfGKDP6DMMYAADGMAABjCAAQxgAAMYwAAGMIABDGAAAxjAAAYyzQDBJMEkwSQGMIABDGAAAxjAAAYwgAEMYAADGMAABjCAAQxgAAMYwAAG0m6AYBJkaUeWaWk+58MTKhjAAAYwgAEMYAADGMAABjCAAQxgAAMYwAAGMIABDGAgdQMEkwSTBJMYwAAGMIABDGAAAxjAAAYwgAEMYAADGMAABjCAAQxgAAMYSLsBgkmQpR0ZTwyk/sQAfUafYQADGMAABjCAAQxgAAMYwAAGMIABDGAAAxjAAAYwkGkGCCYJJgkmMYABDGAAAxjAAAYwgAEMYAADGMAABjCAAQxgAAMYwAAGMJB2AwSTIEs7skxL8zkfnlDBAAYwgAEMYAADGMAABjCAAQxgAAMYwAAGMIABDGAAA6kbIJgkmCSYxAAGMIABDGAAAxjAAAYwgAEMYAADGMAABjCAAQxgAAMYwEDaDRBMgiztyHhiIPUnBugz+gwDGMAABjCAAQxgAAMYwAAGMIABDGAAAxjAAAYwgIFMM0AwSTBJMIkBDGAAAxjAAAYwgAEMYAADGMAABjCAAQxgAAMYwAAGMICBtBsgmARZ2pFlWprP+fCECgYwgAEMYAADGMAABjCAAQxgAAMYwAAGMIABDGAAAxhI3QDBJMEkwSQGMIABDGAAAxjAAAYwgAEMYAADGMAABjCAAQxgAAMYwAAG0m6AYBJkaUfGEwOpPzFAn9FnGMAABjCAAQxgAAMYwAAGMIABDGAAAxjAAAYwgAEMZJoBgkmCSYJJDGAAAxjAAAYwgAEMYAADGMAABjCAAQxgAAMYwAAGMIABDKTdAMEkyNKOLNPSfM6HJ1QwgAEMYAADGMAABjCAAQxgAAMYwAAGMIABDGAAAxjAQOoGe7bOSAAAAaRJREFUCCYJJgkmMYABDGAAAxjAAAYwgAEMYAADGMAABjCAAQxgAAMYwAAGMJB2AwSTIEs7Mp4YSP2JAfqMPsMABjCAAQxgAAMYwAAGMIABDGAAAxjAAAYwgAEMYCDTDBBMEkwSTGIAAxjAAAYwgAEMYAADGMAABjCAAQxgAAMYwAAGMIABDGAg7QYIJkGWdmSZluZzPjyhggEMYAADGMAABjCAAQxgAAMYwAAGMIABDGAAAxjAAAZSN0AwSTBJMIkBDGAAAxjAAAYwgAEMYAADGMAABjCAAQxgAAMYwAAGMICBtBsgmARZ2pHxxEDqTwzQZ/QZBjCAAQxgAAMYwAAGMIABDGAAAxjAAAYwgAEMYAADmWaAYJJgkmASAxjAAAYwgAEMYAADGMAABjCAAQxgAAMYwAAGMIABDGAAA2k3MObB5PDXX+uf//qXvv32W924ccPevvvuO1nbzZs3w9utW7cUaxP/owfoAXqAHqAH6AF6gB6gB+gBeoAeoAfoAXqAHqAH6AF6gB6gB+gBeoAeoAfogbveA9/dvKl//fvfYxJa/n9YMyc7q2SM4wAAAABJRU5ErkJggg==;" vertex="1" parent="L7CRdUDuIkSmKt0sv8hs-1">
          <mxGeometry x="71" y="-1100" width="1830" height="154" as="geometry" />
        </mxCell>
        <mxCell id="L7CRdUDuIkSmKt0sv8hs-29" value="" style="shape=image;verticalLabelPosition=bottom;labelBackgroundColor=#ffffff;verticalAlign=top;aspect=fixed;imageAspect=0;image=data:image/png,iVBORw0KGgoAAAANSUhEUgAAAEcAAAFiCAYAAACkpsUuAAAOUElEQVR4Ae2d72sU1xrH+9cIraCNps1NrMYuBApaqnCxlZqCtyBYGiIWoRD6wnhp5Lq9WExb86J6ab3UWtBcGisNueYaqRqMkrBoS9KoS0yTNBtiCDEkGr6XZ3bO7slk5sx4nN05mXmE6ZmZ7G7n+cz3+TFnn5l9Ydtf94AXdwYvVNZsBS/uDBiOQhwMh+G4u41fOGHlsHJYOaFnXXar53GrjdW1qN20G3tqT6Ih1YXG1JVYLGQL2US2kY1uwdlXOVuq344VFOfJJUhkoxacd7d8FQulOKHI22SjFpyG1+PjSjIQeZ1s1IIjf0ic1xmOIpkwHIajV2qwclg5rJzQay8D3SqDq71TuNykd7bDLC3MgLN/AK31BCOD69kl0L/FO1k0HhrGQGYO4/f8l5HeEbQp4ocONAPgDGPwEYBHMxgUYLJjeUMvzVmggv1nDtfjB6cX7dcWsGgTWBRgyNB/TCL3eAmLQZZH0+iIHxxyp1609y3g8T1bMSEbqeNS9B4D3Cr6wOsFzzg4zccnkVtYwvilTOip2QuC134j4LSdn8Kdsxk0t01hZoGCzxOMnM+g8fQ0ZoLEG3rN7Awuh+yOBsDJ4r4FZAmLMhgytCPx2eoK8q4kKUYooH4Ilzsn0BdkOT+EY+J9IY0GKCcfkJuPj6LvbPRxRo4/xsCRD8qUdTPg1A+h794TLM7OY1BWT/0Avm75Fd8EWQ4PoDkkdxInxwg431yzInG+Rn48g05h5A+zdt0cZIjl5cMVtP53vmj91BS+E3BOzxQuK4ov8FqLKZzG1C380DGNkcwkOgyYqjDKrcTBmDYaEXNMgyKOh+GI+OYyMhwXKKwcBRSGw3CebyKNY45CQQwnbDgfJqB5iWzUUs7uTa2Rz++KjFKqkWzUglO14S3EWT1kG9moBWd9ZTVeeflNvFNzIlaQCArZRLaRjVpwNlRttt784rqNWLN2PdasXYc1L63yhWxYux5kE4EhG7XgUAMzLRVVm1FR9Roqqjah4tVVvpANli2bLdu0m7QtojYgASpOY6VH9zrZ7dvBTi96p/5v+PHiJYyO/oHJXC4WC9lCNpFtbi4VCA69OU5QnCeXbPMC5Kscouv8wLhtk41u6vGFE2fViJNMNmrBER8Q95HhKJIJw2E4eqUGK4eVw8oJvfZitzLfre7i3IE616KLzl7NgTMYVBhRqnrLEOV0o0Vxo3tlzVH0MJz88yW2HziCwwe2SUpKDBy1CxGYUz1ZPOg55QC0/MEc5XC1CNxK7UJB4ZTD1YyDQwe00q2WqyZ/0KV3NSPhuB3Uyn0MRwrKTvXEHs4RdE3kMDnRKaXyoPsYjq0cN2Cxh+N0lWfZZjgcczjmFK6N5CLQLZYE3cdulTy3SqeeJfB6vDYVS+XoTVmWas5G9bkrq/IAjQSqD4zT3xhOIVGsVDTDYTgrVRHE/Vk5rBxWjhlf6nHzkuJ7JG57U8DhhkkFHEpxBIgUFCcXI1vIJq9OUrLbt2HSLf8nZR/DUXgNw3leOBxzPAhytvIAQ4GX6xwFnDilb6+rc7LRLQP7BmSvD4zbfobDUxY8ZWHGlEXcYouXPRxzOOZwzIlLzLmJk7s8vgN3Kz53ncBthfy9Ysbz7o8o5shtKEEglb5pwA2kAXCc/TjObYLHcOyOUoYjtdayWzkyiRxznEpxbrNbSY3aDIfdyi095vexWznijFzCM5yAcDhbOUDJymE4AeC4ZSkBLrEVshOAm6oYjn3veKLhdEOrvb8M7fzO0iOiq3I5rZu7znAUk2gMh+HouS4rh5XDynFU4XpA5HTObhW2W3HzktuXa/Y+bntTwOGGSQUcClTcausDyC2ax32fb8Nk3AGo7GM4Co9hOM8LhwOyB0FO5R5gKFhxEaiAw5cPCjjylWuc191Sum+2ijMQ2TaGE/aUhUw3zuusHFaO3pQpK4eVs2qUk8WNs0dw6INdqEvVoaV7rPCtwWjXJ6ipqcPODw6i5ew1jCrOajkSQQRuJbeY1KHpx2wBzuD5BtQUis9oenJk6BHC+ST/oGinOiY6cdgClGg4XsYLZUl/n8jidtcF/NTTjwf05G0n0BJtR6gcyfhlxjnhjKHr0+JPrdR8erFssWgVwMnDqv+2H5lv95T19qII4djdo8tUk8PkHxcdMed3tH8sKefjC3jgfE+JtiOAk0X7x9RBWofDPxczlYgjoz9TOt+KShlC4en+HkDjAyeH0V+OYicBSO1FuusuRq2fNxhD5qcjeNt6VvIOpH8p1j+TOWccKk9QjkA5ecMy/94n1TSiFzmvqP1n7zoyUsLgkBs9uPk9Wj7agVqrrqnDzo+O4NzNla6WOOWIGEOG5/uSD6I96+Eu2Qs4RAB3/BM3ShRfisdTPIbI3Kp4MMU6pv5f/Q53KrogHWg5axw6PgPg5DB59wz2W4G4Du9/0YnMQ/vsPexH1+d787EptQ9n7hbPahFu6faZASeXw2jPUTtTycHZXk/tQrrHLRaVDow5yhFxZKgbZ9IN2PmGDeWNHWhMn0HPb6WF4KVCY5TjdYBR7mc4QrUuI8NxgSLUynAYjl5AZ+Wwclg5rpceIrjqjFpuxc1L1jSCSynPbW/uUITMuGFSoRyCxK22PoCEkpI0+vYEJgmG01aGo/CYQHA45ngQ5GzlAYZ8kNv7FXC4QlbA0blOWY3vcWYq2vYNyKvRUJ1jZjg8n8PzOWbM5+j472p8D8ccjjmrOeYMdeJk055CE1N90wl0DekZFKb7Ru9Wv4n2E8fsY2ofzkXUQCAARwyn2LjkdiDlblYSUMTodkxlrJBFy5tDNeLSJYJHbgowNDIcc7MVu5W6cuWA7JOWOZX7AFL4vhwky7keXUB+eBPn0vtQZ7fY1jcdQfrzo9bSIgrC1DbsT3+P26L1tswAo4HzsBstz/TjX0fREwGgSODc+GKbaw3hdjBi3/YvrqkDewlUJf7f8ljiIvAaTuzwKPpE8ec2lvm+h4iKQHF70LMC8rontHSBXlaMWC+xchiOIj6M4cbXe+3piaDqqcP7X5f/CQVCLfJYYuWUzg3CroFkKGKd4diZTwCRR4bDcPzdW1aMWGflsHJYOYqSguGUHw43L7ld/Nn7uO1NAYcbJhVwKOdzq60PIFEYJWn0LQKTBMNpK8NReEwgOBxzPAhytvIAQz7IdY4CDlfICjhhT0ea+nnOTEXbvgHZVGPCPi6Go/imlOEwHP+JLTeXZOWwclg5zzUlaq5bcU+gh7S5m9QDTI77kBWxgNv7GY5btPffx26lUE4OkxyQvQKyvZ9TuQ8gRRnv756l+ezorq2s9n569rH97PX+NtRbE2x7cKo/h0l67rr1POSEt/cf/pl+42EMPelt2J7utn5Lhn4co3DmdiW4vX/7yXzrfk+6DjXpbiuA3zi5/BaA5Lb3v9eG27l+nHpvKyrldXkeO7nt/QfRfusM9lsw9uHcLft3HmQ4NQlu72881FCIMfJ6Ie4kAw6396urYgNrGrdaqqja4j0a/L2VffIYjkLFDIfh6F17sXJYOayc0MsHLbfi5qVl1zXFIohoctubAg43TCrgkHq41dYHkFvAivs+32uruANQ2RcMTnUtNsZ0qayuLcwtOUH5wiEotZt2Y0/tSTSkutCYuhKLhWwhm8g2stEJhrZ94WypfjtWUJwnlyCRjVpw3t3yVSyU4oQib5ONWnAaXo+PK8lA5HWyUQuO/CFxXmc4imTCcBiOXqnBymHlsHJCr73YrVabWzUfn8DIn0sQ/xb/nEXf8d7QleFXo5mnnC+n8VhQWTY+weCXerHDD4LX3w2DM4C+h8uILN94OIFWhRt4Gam73zA4YxhfjsOxNYfrDMfBpLCZaDjsVuqs8wwBuePqHHJj8xi/el/9mZquaFjMyWcjdSq/hdaDvWg+OIzBKdvfpqbRfrAXx5oyOKYJwi1oGwnH7UDFvva+J3kiTwuBaNn2477h0FRkDpymEdzJ2oYDWPxzDuP37MUqCOfRVz+CkQUJyuy89ZrcrLRvYRaXQ1KPGXCaxjAuGy3ZKq/mOn/FsdMzdpG4gIEmuyhsmsSM9cInuH86vEraADi9uDokI/Bez10dShqcEYw444crn0S6lV9VXCSV+18GCQvIweFgYQ7XmxKVygdw+U4xSxV14rH2dAmLC0sY+c8VJLIIFDVN1KMB2aq8czTPApzhKApGhsNw9FyXlcPKYeWENlUhMpqWW32YgOYlslELzu5NraGfJXG2TBnJRi04VRveQpzVQ7aRjVpw1ldW45WX38Q7NSdiBYmgkE1kG9moBWdD1WbrzS+u24g1a9djzdp1WPPSKl/IhrXrQTYRGLJRC47oXK+o2oyKqtdQUbUJFa+u8oVssGzZXOjM14Jjval6Czb8JZ5LZfUWV9WQ3b4d7Nzer7idiNv7FXC4vV8Bh9v7FXBMqWJLfRxa2arUB2XK5zMcns/h+ZzQZwrYrdit2K2S5FbDuEM9f4+m0a6QfinTvqExpxetn03Z3VoLuPPZAJojAGQcnOa/j2JE7vETzRazc2W/OcQsOId8egOt/hy94KrjfkbB6cgUbyMSglkxDo2WzcUMgjOMQTd3ctJ5Gl4rrZ+aDIITtP2tfDeHrEI48xg4VJ64Yw6cNq879Jx+tYT73yQMzne9AVrYbU6LmdLcJeOMQWYoJ2B7f0FDT+fRJ1r7S1gcGgBnGIOPCmYHXynDZYURcKxrqOBY8q+cnUZHCVVDLmYAnPIEV2c8CbJtKJws7ss3l5ex8JOhGQrnCtrOz+Ix3U3zdAnjlzKhz9XIELzWjYXjdcDl3M9wFEGd4TAcvYzIymHlsHJCT/fsVmG7VZwbtEUdRTZqKYfb+xWdXdzer4DD7f0KONzer4DD7f0KOFYUj+mT+60H03s8nJ7s/j+CprUCS+IcnwAAAABJRU5ErkJggg==;" vertex="1" parent="L7CRdUDuIkSmKt0sv8hs-1">
          <mxGeometry y="-1020" width="71" height="354" as="geometry" />
        </mxCell>
        <mxCell id="L7CRdUDuIkSmKt0sv8hs-32" value="" style="rounded=0;whiteSpace=wrap;html=1;fillColor=#f5f5f5;fontColor=#333333;strokeColor=none;" vertex="1" parent="L7CRdUDuIkSmKt0sv8hs-1">
          <mxGeometry x="80" y="-1030" width="170" height="60" as="geometry" />
        </mxCell>
        <mxCell id="L7CRdUDuIkSmKt0sv8hs-33" value="Centers" style="text;html=1;strokeColor=none;fillColor=none;align=center;verticalAlign=middle;whiteSpace=wrap;rounded=0;fontSize=31;" vertex="1" parent="L7CRdUDuIkSmKt0sv8hs-1">
          <mxGeometry x="100" y="-1010" width="130" height="20" as="geometry" />
        </mxCell>
        <mxCell id="L7CRdUDuIkSmKt0sv8hs-36" value="" style="shape=image;verticalLabelPosition=bottom;labelBackgroundColor=#ffffff;verticalAlign=top;aspect=fixed;imageAspect=0;image=data:image/png,iVBORw0KGgoAAAANSUhEUgAAASIAAAAtCAYAAAAKn2bXAAAHoklEQVR4Ae2c30sbWRTH+5/kbd+EfRCEpXkoKRS7UPGltFQWsbD6ULRQzIMSaKnQUmmh6ENJHkoKQrqIiohFdEPDosFdRlb2LoEZVmKgQZQgUYQJCN/lZmbMD5Px1ukgTb5CkMnce+bO597z5Zxzr14Df0iABEjgiglcu+Ln8/EkQAIkAAoRFwEJkMCVE6AQXfkUcAAkQAIUIq4BEiCBKydAIbryKeAASIAEKEQe10A4HAY/ZMA10HwNqLgYhUiFUpM2cvHxhwRIwJ2Aip9QiNwZut5VAexqgDdJoA0IqPgJhcjDQlAB7ME8u5JASxBQ8RMKkYepVgHswTy7kkBLEFDxEwqRh6lWAezBPLuSQEsQUPETCpGHqVYB7ME8u5JASxBQ8ZOmQlTcSSM+NoLeYBCBjiACwT4MjiWQ3DluCTjf4iVUAH+L59AGCXzPBFT85LwQnR5DxIbQKcWn4SeE/phA8fR7RvNtxq4C+Ns8iVZI4PsloOIndUJUgva6ryJAwSFEXsUQnY4h+uoZ+p3oqCOI3tcCpiqbAx3JmRgmwuMIPxlHeOwNovMajENVAz6320shciOIwMMEjBP1Z6kAVrfGliTQmgRU/KRWiDJx9NpRUOejufNOeZJF4lHIFqo+RDMXgytm5hCWTt4ouvppFNGNwsVG/G5BIfKbMO23MYGvFKIS1l/YInNrGlqzyOBEw+QtS1g6X2juUZGZx8ITafMuIrMCRSeEOslDW5zG4M0+THymELXxGuWrtwGBrxQiHVFbYG7HdFc8InbXinBuxSHcWh6kMXEziMCDOMTR+YbmYaEiTvK2FKi1JSzMLmFhRUOuQepm7gok52WbVaxnCige5GEYWezb9otfsjCMPPaPCjD+WC3bSgpb7E4KEJ+t7xYW0xBf7MJ7VUQkdnSsL1tj+LSZda2FqQA+/9b8hgTai4CKn1SlZgJTdvo0OO8epezPj9qp1jQ0N6aHGibvyB23cSxk3HfbzMwSIj/XpXA3nlX6nR7DmH+GUF2K19kl+/RYkdXpMbS3Vo0rJAXQeZ+PWRQb2e/oxvCMQPGLXSOqsy379z5PIedEcnXvqgK4rgsvSaDtCKj4SZUQ+RARyR24D6P4wXbw+4/fID6fgrZTqE3pDgWiD6RwDGByUSC3l4fxOY7BriA67FqVKRIYlHZujCO+JiAyAsn347Yw2UKEEsT7IUuAukYwtSwghA7xz5+2/R6EYymIjA6xlUI0PIThDzpMJyLqCOL2WALr2zrE5iom71ljim43FlEVwG236vjCJFBHQMVPqoTIhxqRHJCMZNbiiNxzitx2pHJnHNE1K/UpbkyXi+TXn8xhXegwMjoMoSER7kGgcxQLOwWIdwMIdHQjspyviJiZx6ex7kpEVCVEgzP6WTvHfuhpCvvV0c1pCaY8huAI0c2XSO45FEswPsrIrxuRlbzzZc1vFcA1HXhBAm1IQMVPqoQIgA+7ZtXczb1suQYUfTqC6+UoqQcTK7v4t+zwlVTKSams332I/pWzBWcECaNUZdKJgOojIudaNnUEJYjh2eyZOFUZqQhRzfZ9CbnlZ+XzVIMfG/dTAVzzHF6QQBsSUPGTWiGC+jmicoq07V5LcmNe3IhZUdDY7/j7N6vm1D9tpU3liEimT5syBcti/7CAZERGPkOIZ75eiHKzlv3hJoJyFhFRiNymjPdI4FIELiFEVip10cnq3jv2rllHX9O0pTxiswBtOQXRYPeruGkJUeh5Gv+lrdQsFFmtKwyXUDyUwmOd9g50hBBerErNTrJYeCxTPicCqo+QLG7FzSb2zWMU5TEFJzWjEF1qobETCbgRuJwQ2Rbd/tbM3LZExEmdmtVQzMycVWDuGsLEuyUkN3WIbQ2fZqYxXD7keBeT8hzRkY74rzI1C2HwxRySWzrExiqikQGEfolDOwRMYw7DnUEEfhzCxEwa2lYaiRdDdiHcXYgq9oPofy7tC2hrCUw86EH/u6pdMwqR23riPRK4FAFPQnTRE3MrL89OYQeaRUayUL0cs0WnvgY0gIlF/eycjrmbxtTDuoK2FKa3KeTKZ4RKyK28wf2aLfZu3O+9OCKS72LupjBV3pmrHoc9Bmf7nkJ00bTzPgl8NQFfhUiOpkaMumLNDzeeHmPfENZBQbl9L7LYb3Ry+7SE/R0d2tpqOXrKHVTXg+z3P8rD2EojuSEg75vyQKOsI9kHGs2DbM11DbWyfYH1lVWsb1X6yJ29nKHD2C1Yu2h2J/PQst1wHED5n+bX2OcFCZDAOQK+C5F8YlmMukaxsHvu+S3/hQrglofAFySBCwio+EndrtkFFnm7hoAK4JoOvCCBNiSg4icUIg8LQwWwB/PsSgItQUDFTyhEHqZaBbAH8+xKAi1BQMVPKEQeploFsAfz7EoCLUFAxU8oRB6mWgWwB/PsSgItQUDFTyhEHqZaBbAH8+xKAi1BQMVPKEQep1pC5ocMuAaarwEVF6MQqVBiGxIgAV8JUIh8xUvjJEACKgQoRCqU2IYESMBXAhQiX/HSOAmQgAoBCpEKJbYhARLwlQCFyFe8NE4CJKBCgEKkQoltSIAEfCVAIfIVL42TAAmoEKAQqVBiGxIgAV8J/A8mMlYmK3E8bAAAAABJRU5ErkJggg==;" vertex="1" parent="L7CRdUDuIkSmKt0sv8hs-1">
          <mxGeometry x="1010" y="-899" width="290" height="45" as="geometry" />
        </mxCell>
        <mxCell id="L7CRdUDuIkSmKt0sv8hs-37" value="" style="shape=image;verticalLabelPosition=bottom;labelBackgroundColor=#ffffff;verticalAlign=top;aspect=fixed;imageAspect=0;image=data:image/png,iVBORw0KGgoAAAANSUhEUgAAAIUAAAAzCAYAAAC5SctUAAAFCUlEQVR4Ae2bz2sUSRTH58/I1Vs85eRB8LSYy/ZJL4qwpwFhD0su8TQMSgjIXCSQoKyXPQ2RJGPQwCpiiKBkTskgOFFR/IFidhdklwRxljV8l3amO6+rUl31errHmvgGhq6qrl/93qffq19dgvxEAooESkpcoiIBCBQCgSYBgUITiSQIFMKAJgGBQhOJJAgUwoAmAYFCE4kkCBTCgCYBgUITiSQIFMKAJgGBQhOJJAgUwoAmARYUn18Apy8CpYr+PzIDbP6r1X8oEjqvFjG5EGD0RhnX2ruH4pnSHoIFxfq8DgMFZLqd1tSw3tvG0vI4Ruej/yxaw/oojv0WKKyCaqEWAxGCUQAUe8B6AzhaTX/p6AvIDleBcw3g7z3rA/N2Sb83S9H50MbKowrOJqAoY/LBLTRff7RL1zHH5nKBMCiu/viyvVNiKQ6QUefVLUw1AuIyIteRvI41Kqg/63+MMV2khVCgKFWBzQOemSYJFFQaAN41L+BYwjIkQdgfW0TpAc6utbDzRamIEZ0milt3MO+MqrtZ94AKbcNSgUBBBPSuOYExFhARGOMI7rXQIXVxggkoOAUZeTltCBQ9wXaezSLICETXegSY3Mg2zuAojMFBIiunDYEiFN2Xt6jf3H/rdRfheG9hFq1PCV04RTgKCyukA/6ReacmwGlDoAhl2p7N7DZUgCY3+ANPjsLC7tZnyGxlBth24ILThkABoHXfPtNQlW+Mr6xix0FJNAtHYQIFlVxhYXXF0tFVGMcf/MUt/6H4Cygb9jfYq2i9adCRq24mrjC9p1bcxrWFfkGg5Q8jFE+BETKnzQpCopzDgkmq3gq9qS5jUwVnCR9GKJTRbUK5GWHxe6MsbygmsOQy8iOgm9xH4zrwQ03/J/ZIqvr9r2WuJ62zqQ3SjThoHGjSaU8/YPgNBIBPDzFlHB9ksRQ/Y+l9LF+ngElhND2LDtZJ67Qumk6yxEEjFGGOfsHwHojwId/UcSpXKMZRexLL1ylgUhhN9waKfsAYCiAA7GxUrBtfxumnAaaTa7yDJVT59C32zn1QxLkWY1iAAHZxbyWLi7CUadTxkgrQEjZBYSrmzeKVKxj9AHFplazUGQa1YZ7cfh/v4BfD2861Dsn8P6H+xr2XQwtF+Ig2MPoBIhJhGhi5AgFga+1M7q4jgmPs94fOu6ZDDUUaGHkAkQZG3kB02v3uilpcyHyA8023ual3UJhOZ6uj3XP3I5XpFiMG4j+gPmd3AWHdttPf1GIMHxARMGdQczj97R0UqvLT4gkwFoGRKpAFiKiNuOw+bwMI5b3XEQFgutpXOLlQUDdeyNZ5pCDXKwUj1iDDQtB2BIquBLlQxHJnBDhtlKiSXMM/LgLbvQ9/Pv8BTF9xcxlq/d8GCqDz/DecDz/uKWTmQSzGjTJqj+2nsTgKY3CQyMppIxMUqnKzxr8VFAlpeRBJKMyHg7tZFZpaLtykuUx2W9V4bw1CoOgS6d0R/1TlGhaQbGXmegs3Wytdt6LGo/J+Q/EW9QZxBZqrsQ8gXY2Qdx8DRQrK86pCoMajtvyGAthaPWUed9y+wz52Z4TEt88GIwXlelXdhRofFvex20Jt8SBrMcHeHjcC4eGNkuviVa7QOCxeeSOrf15g6W4ZJ766jwDB7V/R/NOb3hXSkdTzFIW0KJV6LwGBwnsVDb6DAsXgZe59iwKF9yoafAcFisHL3PsWBQrvVTT4Dv4PTW92xl4JW1wAAAAASUVORK5CYII=;" vertex="1" parent="L7CRdUDuIkSmKt0sv8hs-1">
          <mxGeometry x="1160" y="-950" width="133" height="51" as="geometry" />
        </mxCell>
        <mxCell id="L7CRdUDuIkSmKt0sv8hs-38" value="ACE;HBMC" style="text;html=1;strokeColor=none;fillColor=none;align=center;verticalAlign=middle;whiteSpace=wrap;rounded=0;fontSize=31;" vertex="1" parent="L7CRdUDuIkSmKt0sv8hs-1">
          <mxGeometry x="1160" y="-884" width="40" height="20" as="geometry" />
        </mxCell>
        <mxCell id="L7CRdUDuIkSmKt0sv8hs-41" value="" style="shape=flexArrow;endArrow=classic;html=1;fontSize=31;entryX=0;entryY=1;entryDx=0;entryDy=0;" edge="1" parent="L7CRdUDuIkSmKt0sv8hs-1" source="L7CRdUDuIkSmKt0sv8hs-10" target="L7CRdUDuIkSmKt0sv8hs-38">
          <mxGeometry width="50" height="50" relative="1" as="geometry">
            <mxPoint x="640" y="-880" as="sourcePoint" />
            <mxPoint x="690" y="-930" as="targetPoint" />
            <Array as="points">
              <mxPoint x="650" y="-790" />
            </Array>
          </mxGeometry>
        </mxCell>
      </root>
    </mxGraphModel>
  </diagram>
</mxfile>
